<?xml version="1.0" encoding="utf-8"?>
<!DOCTYPE svg PUBLIC "-//W3C//DTD SVG 20010904//EN" "http://www.w3.org/TR/2001/REC-SVG-20010904/DTD/svg10.dtd">
<svg version="1.0" xmlns="http://www.w3.org/2000/svg" width="400px" height="400px" viewBox="0 0 400 400" preserveAspectRatio="xMidYMid meet">
 <g fill="#ffffff">
  <path d="M165.6 187.9 c-0.3 -1.7 -0.6 -5.3 -0.6 -8 0 -4.9 0 -4.9 3.5 -4.9 1.9 0 3.5 0.5 3.5 1 0 0.6 1.2 1 2.8 1 1.5 0 4.7 0.9 7.1 2 2.6 1.2 6.5 2 9.7 2 5.4 0 5.4 0 5.4 3.5 0 3.4 -0.1 3.5 -4.2 3.5 -2.4 0.1 -7.9 0.7 -12.3 1.5 -12.5 2.3 -14.1 2.1 -14.9 -1.6z"/>
  <path d="M139.5 159.9 c-12.2 -1.5 -24.4 -4.1 -25.6 -5.5 -4.1 -5 4.7 -9.5 22.9 -11.7 4.1 -0.5 4.2 -0.4 4.2 2.4 0 2.2 -0.5 2.9 -1.9 2.9 -1.1 0 -2.2 0.4 -2.6 0.9 -0.5 0.9 4.9 2.3 14 3.6 11.3 1.7 10.5 1.3 10.5 5 0 3.5 0 3.5 -7.2 3.4 -4 -0.1 -10.4 -0.5 -14.3 -1z"/>
 </g>
 <g fill="#f7f7f7">
  <path d="M169 189.5 c0 -0.8 -0.8 -1.5 -1.9 -1.5 -1.5 0 -1.9 -1.1 -2.5 -6.1 -0.3 -3.4 -0.6 -7.9 -0.6 -10 0 -3.8 0.1 -3.9 3.5 -3.9 3 0 3.5 0.3 3.5 2.4 0 1.9 0.7 2.6 3.3 3.1 6.8 1.4 16.8 4.8 18.2 6.1 0.7 0.8 2.7 1.4 4.4 1.4 2.9 0 3.1 0.2 3.1 3.6 0 3.7 0 3.7 -6 3.1 -3.9 -0.3 -6 -0.1 -6 0.5 0 1.1 -9.7 0.4 -10.8 -0.7 -1 -1 0.4 -1.4 8.8 -2.3 7.9 -0.9 8.1 -0.9 2.9 -1.1 -3.3 0 -7.6 -1 -10.4 -2.2 -2.6 -1.1 -5.8 -1.9 -7.1 -1.6 -1.7 0.3 -2.4 0 -2.4 -1.1 0 -0.8 -0.3 -1.3 -0.6 -0.9 -0.4 0.3 -0.3 2.7 0 5.2 0.7 4.6 0.7 4.6 4.2 3.9 3 -0.5 3.4 -0.4 3.4 1.5 0 1.7 -0.6 2.1 -3.5 2.1 -2.4 0 -3.5 -0.5 -3.5 -1.5z"/>
  <path d="M145 159.6 c0 -0.9 -0.4 -1.6 -1 -1.6 -0.5 0 -1 0.5 -1 1 0 0.6 -1.6 1 -3.5 1 -1.9 0 -3.5 -0.3 -3.5 -0.8 0 -0.4 -1.8 -0.6 -4 -0.4 -3.5 0.4 -4 0.2 -4 -1.7 0 -1.2 0.1 -2.1 0.3 -2.1 0.1 0 5.6 0.7 12.2 1.5 12.4 1.6 18.2 1.9 17.3 1 -0.3 -0.3 -5 -1.2 -10.4 -2 -10 -1.5 -19.4 -4.1 -19.4 -5.3 0 -1.5 1.7 -3.1 4 -4.2 2.1 -0.9 1.9 -0.9 -1.5 -0.4 -2.2 0.3 -5.2 0.8 -6.7 1.1 -1.6 0.3 -2.8 0.1 -2.8 -0.5 0 -0.9 4.4 -1.8 18.3 -3.8 3.6 -0.6 3.7 -0.5 3.7 2.4 0 2.7 -0.4 3 -3.9 3.6 -6.2 1 -6 2.6 0.3 2.6 4.4 0 5.6 0.3 5.6 1.6 0 1.3 1.1 1.4 8 0.8 8 -0.7 8 -0.7 8 3 0 3.3 -0.3 3.6 -2.7 3.6 -1.6 0 -5.2 0.3 -8 0.6 -4.5 0.6 -5.3 0.4 -5.3 -1z"/>
  <path d="M267 145.2 c0 -2.6 0.2 -2.8 3.5 -2.4 2.9 0.3 3.5 0.8 3.5 2.8 0 2.1 -0.5 2.4 -3.5 2.4 -3.2 0 -3.5 -0.3 -3.5 -2.8z"/>
 </g>
 <g fill="#efefef">
  <path d="M174 188.6 c0 -1.3 2.8 -2.6 5.8 -2.6 0.6 0 1.2 0.9 1.2 2 0 1.6 -0.7 2 -3.5 2 -2.3 0 -3.5 -0.5 -3.5 -1.4z"/>
  <path d="M165 185.5 c0 -4.4 2.6 -4.8 3.5 -0.6 0.3 1.7 1.4 3.2 2.3 3.4 0.9 0.3 0 0.5 -2 0.6 -3.7 0.1 -3.8 0 -3.8 -3.4z"/>
  <path d="M182 187.6 c0 -1.7 2.9 -2.5 10 -2.7 5.5 -0.2 5.5 -0.2 1 -0.9 -2.5 -0.4 -4 -0.8 -3.5 -0.9 2.7 -0.5 -11.7 -5.6 -18 -6.4 -2.3 -0.3 -3.2 -1 -3.7 -3.3 -0.5 -1.9 -0.6 -1.2 -0.3 1.9 0.4 3.6 0.2 4.8 -0.8 4.4 -1.4 -0.4 -2.4 -4.4 -2.6 -9.9 -0.1 -3.7 0 -3.8 3.4 -3.8 3 0 3.5 0.3 3.5 2.3 0 2 0.8 2.5 6.3 3.6 7.5 1.5 18.8 5.8 20.3 7.7 0.6 0.8 2.3 1.4 3.8 1.4 2.3 0 2.6 0.4 2.6 3.6 0 3.7 0 3.7 -7.5 3.1 -4.7 -0.4 -7.5 -0.3 -7.5 0.3 0 0.6 -1.6 1 -3.5 1 -2.3 0 -3.5 -0.5 -3.5 -1.4z"/>
  <path d="M144 159 c0 -2.1 1 -2.4 4.8 -1.4 3.6 1 2.7 3.4 -1.3 3.4 -2.8 0 -3.5 -0.4 -3.5 -2z"/>
  <path d="M155 159.5 c0 -0.8 0.7 -1.5 1.5 -1.5 0.8 0 1.5 -0.4 1.5 -1 0 -0.5 -0.7 -1 -1.5 -1 -0.8 0 -1.5 -0.7 -1.5 -1.5 0 -1 1.1 -1.5 3.5 -1.5 3.4 0 3.5 0.1 3.5 4 0 3.9 -0.1 4 -3.5 4 -2.4 0 -3.5 -0.5 -3.5 -1.5z"/>
  <path d="M135 158 c0 -2.1 1 -2.4 4.8 -1.4 3.6 1 2.7 3.4 -1.3 3.4 -2.8 0 -3.5 -0.4 -3.5 -2z"/>
  <path d="M120.8 157.3 c-1.6 -0.2 -2.8 -0.9 -2.8 -1.4 0 -0.5 -0.9 -0.9 -2 -0.9 -3.8 0 -3.7 -5.6 0.1 -6.9 1.1 -0.3 1.2 -0.1 0.2 1 -1.6 2 0.6 3.3 8 4.9 3.7 0.7 5.7 1.6 5.7 2.6 0 1.4 -3 1.6 -9.2 0.7z"/>
  <path d="M145.5 155 c-1.6 -0.7 -1.3 -0.9 1.8 -0.9 2 -0.1 3.7 0.4 3.7 0.9 0 1.2 -2.7 1.2 -5.5 0z"/>
  <path d="M137.3 153.3 c0.9 -0.2 2.5 -0.2 3.5 0 0.9 0.3 0.1 0.5 -1.8 0.5 -1.9 0 -2.7 -0.2 -1.7 -0.5z"/>
  <path d="M129.8 150.9 c-2.1 -1.2 -1.4 -3.5 1.3 -4.2 1.5 -0.4 1.9 0 1.9 1.8 0 2.9 -1 3.6 -3.2 2.4z"/>
  <path d="M137 146.5 c0 -0.8 0.8 -1.5 1.8 -1.6 1.4 0 1.4 -0.2 -0.3 -0.9 -1.9 -0.7 -1.8 -0.8 0.5 -1.3 1.4 -0.3 4.6 -0.8 7.3 -1.1 4.6 -0.6 4.7 -0.5 4.7 2.3 0 2.7 -0.3 2.9 -5.2 3.5 -7.7 0.9 -8.8 0.8 -8.8 -0.9z"/>
  <path d="M120.4 146.2 c0.3 -0.6 2.5 -1.3 4.9 -1.7 2.3 -0.3 5 -0.9 6 -1.1 0.9 -0.3 1.7 -0.1 1.7 0.5 0 0.9 -1.4 1.3 -9.4 2.7 -2.6 0.5 -3.7 0.3 -3.2 -0.4z"/>
 </g>
 <g fill="#e6e6e6">
  <path d="M166 188.5 c0 -3.5 1.6 -4.7 2.6 -2 0.4 0.8 1.5 1.5 2.5 1.5 1.2 0 1.9 0.7 1.9 2 0 1.6 -0.7 2 -3.5 2 -3.3 0 -3.5 -0.2 -3.5 -3.5z"/>
  <path d="M175 188.6 c0 -1.3 2.8 -2.6 5.8 -2.6 0.6 0 1.2 0.9 1.2 2 0 1.6 -0.7 2 -3.5 2 -2.3 0 -3.5 -0.5 -3.5 -1.4z"/>
  <path d="M195.3 187.3 c-5 -0.6 -3.9 -2.3 1.5 -2.4 3.3 -0.2 3.8 -0.3 1.7 -0.6 -1.6 -0.3 -3.4 -1.1 -4 -1.8 -1.4 -1.8 -12.8 -6.1 -20.2 -7.6 -4.9 -1 -6.3 -1.7 -6.6 -3.3 -0.3 -1.2 -0.3 0.5 -0.1 3.7 0.3 5.1 0.2 5.7 -1.5 5.7 -1.7 0 -1.9 -0.9 -2 -9 0 -9 0 -9 3.4 -9 2.8 0 3.5 0.4 3.5 1.9 0 1.5 1.3 2.3 5.4 3.5 3 0.9 5.8 1.6 6.4 1.6 2.2 0 18.8 7.3 20.8 9.1 1.1 1 3 1.9 4.2 1.9 1.8 0 2.2 0.6 2.2 3.5 0 3.5 0 3.5 -5.7 3.3 -3.2 0 -7.3 -0.3 -9 -0.5z"/>
  <path d="M156 159.5 c0 -0.8 0.7 -1.5 1.5 -1.5 0.8 0 1.5 -0.4 1.5 -1 0 -0.5 -0.7 -1 -1.5 -1 -0.8 0 -1.5 -0.4 -1.5 -1 0 -0.5 1.6 -1 3.5 -1 3.3 0 3.5 0.2 3.5 3.5 0 3.3 -0.2 3.5 -3.5 3.5 -2.4 0 -3.5 -0.5 -3.5 -1.5z"/>
  <path d="M133.7 158 c-0.5 -1.9 -0.2 -2 6.1 -1.4 3.7 0.4 7.8 1.1 9.2 1.6 1.7 0.5 0.9 0.7 -2.7 0.3 -3 -0.2 -5.3 0 -5.3 0.5 0 0.6 -1.5 1 -3.4 1 -2.5 0 -3.5 -0.5 -3.9 -2z"/>
  <path d="M144 155 c-1.9 -0.4 -5.2 -1.1 -7.2 -1.4 -2.4 -0.4 -3.8 -1.2 -3.8 -2.1 0 -1.8 2 -1.9 11.1 -0.4 5.6 1 6.9 1.5 6.9 3 0 2 -1.3 2.2 -7 0.9z"/>
  <path d="M131.6 147 c0.6 -0.6 3 -1.5 5.5 -2 4.4 -0.9 4.4 -0.9 -0.8 -0.4 -2.9 0.2 -5.3 0.1 -5.3 -0.4 0 -0.5 3.3 -1.2 7.3 -1.6 3.9 -0.4 8.7 -0.9 10.5 -1.3 3 -0.5 3.2 -0.4 3.2 2.4 0 2.9 -0.2 3 -5.2 3.7 -8.4 1 -16.4 0.8 -15.2 -0.4z"/>
  <path d="M266 144.9 c0 -2.4 0.3 -3 1.6 -2.5 0.9 0.3 2.9 0.6 4.5 0.6 2.4 0 2.9 0.4 2.9 2.5 0 2.3 -0.4 2.5 -4.5 2.5 -4.4 0 -4.5 -0.1 -4.5 -3.1z"/>
 </g>
 <g fill="#dedede">
  <path d="M165 186.5 c0 -4.4 2.6 -4.8 3.5 -0.6 0.4 2 1.1 2.8 2.1 2.4 0.8 -0.3 1.4 0 1.4 0.6 0 0.6 -1.6 1.1 -3.5 1.1 -3.3 0 -3.5 -0.2 -3.5 -3.5z"/>
  <path d="M202 187.3 c-4.8 -0.9 -4.5 -2.3 0.6 -2.4 2.7 -0.1 3.8 -0.4 2.4 -0.6 -1.4 -0.3 -3.4 -1.3 -4.5 -2.3 -4.3 -4 -31.3 -13.1 -31.6 -10.6 -0.1 0.6 -0.5 -0.5 -1 -2.4 -0.6 -2.5 -0.7 -1 -0.4 4.8 0.3 7.3 0.1 8.2 -1.4 8.2 -1.6 0 -1.8 -1.2 -1.8 -10.5 0 -10.5 0 -10.5 3.3 -10.5 2.7 0 3.4 0.4 3.4 1.9 0 1.5 1.2 2.2 5.3 3.1 11.1 2.6 31.5 11.2 33.2 14.1 0.4 0.5 1.9 0.9 3.6 0.9 2.7 0 2.9 0.3 2.9 3.5 0 3.5 0 3.5 -5.7 3.4 -3.2 -0.1 -6.9 -0.4 -8.3 -0.6z"/>
  <path d="M143 159 c0 -2.1 1 -2.4 4.8 -1.4 3.6 1 2.7 3.4 -1.3 3.4 -2.8 0 -3.5 -0.4 -3.5 -2z"/>
  <path d="M156 159.1 c0 -0.5 1 -1.2 2.3 -1.4 2.2 -0.4 2.2 -0.4 0 -1.2 -3.7 -1.2 -2.8 -3.5 1.2 -3.5 3.3 0 3.5 0.2 3.5 3.5 0 3.3 -0.2 3.5 -3.5 3.5 -1.9 0 -3.5 -0.4 -3.5 -0.9z"/>
  <path d="M124.8 158.3 c-2 -0.3 -2.8 -1 -2.8 -2.4 0 -2.2 0.3 -2.3 7 -0.8 3.1 0.7 5 1.6 5 2.5 0 1.4 -3 1.6 -9.2 0.7z"/>
  <path d="M145.5 155 c-3 -0.8 -3 -0.8 0.8 -0.9 2 0 3.7 0.4 3.7 0.9 0 1.1 -0.2 1.1 -4.5 0z"/>
  <path d="M113 151.1 c0 -1.1 4.8 -5.1 6.1 -5.1 1.7 0 0.9 1.5 -1.3 2.5 -1.3 0.6 -2.2 1.6 -2 2.3 0.1 0.7 -0.5 1.2 -1.3 1.2 -0.8 0 -1.5 -0.4 -1.5 -0.9z"/>
  <path d="M129 148.9 c0 -1.1 6 -3.9 8.5 -3.9 2.4 0 1.8 3.7 -0.7 4.4 -3.6 0.9 -7.8 0.7 -7.8 -0.5z"/>
  <path d="M265 144.9 c0 -2.8 0.3 -3.1 2.3 -2.5 1.2 0.3 3.7 0.6 5.5 0.6 2.7 0 3.2 0.3 3.2 2.5 0 2.4 -0.3 2.5 -5.5 2.5 -5.5 0 -5.5 0 -5.5 -3.1z"/>
  <path d="M257 144.5 c0 -2.2 0.4 -2.5 3.5 -2.5 3.1 0 3.5 0.3 3.5 2.5 0 2.2 -0.4 2.5 -3.5 2.5 -3.1 0 -3.5 -0.3 -3.5 -2.5z"/>
  <path d="M125 145.1 c0 -0.9 7.5 -2.2 11.9 -2 1.4 0.1 -0.1 0.7 -3.4 1.5 -7.2 1.6 -8.5 1.7 -8.5 0.5z"/>
 </g>
 <g fill="#d6d6d6">
  <path d="M170 189.6 c0 -1.5 1.4 -1.9 12 -3.6 8.6 -1.3 9 -1.3 9 0.8 0 1.5 -1.5 2 -9.2 3 -11.5 1.5 -11.8 1.5 -11.8 -0.2z"/>
  <path d="M207.5 187.3 c-5.5 -0.8 -5.2 -2.3 0.6 -2.4 3.3 -0.1 4.2 -0.4 2.4 -0.6 -1.6 -0.3 -3.7 -1.1 -4.5 -1.8 -4.4 -3.9 -27.2 -12.9 -34.5 -13.7 -2.2 -0.2 -3.2 -0.9 -3.6 -2.8 -0.5 -1.9 -0.7 -1.5 -0.8 1.8 -0.2 6 -1.8 5.2 -2.7 -1.4 -0.6 -5.5 -0.6 -5.5 -7 -4.8 -5.5 0.5 -6.4 0.4 -6.4 -1 0 -1.1 -0.9 -1.6 -3 -1.6 -1.6 0 -3 -0.3 -3 -0.7 0 -0.5 3.4 -0.7 7.5 -0.5 4.9 0.2 7.5 0 7.5 -0.7 0 -0.7 -2.2 -1.1 -5.2 -1.1 -6.7 0 -9.8 -0.9 -9.8 -2.6 0 -0.9 1.2 -1.4 3.5 -1.4 2.4 0 3.5 0.5 3.5 1.5 0 0.9 0.9 1.5 2.5 1.5 1.4 0 2.5 -0.4 2.5 -1 0 -0.5 1.6 -1 3.5 -1 3.1 0 3.5 0.3 3.5 2.5 0 2.2 0.4 2.5 3.5 2.5 2.8 0 3.5 0.4 3.5 1.9 0 1.5 1.3 2.3 5.8 3.6 12.1 3.3 16 4.8 26 9.5 5.6 2.7 10.5 5.6 10.8 6.4 0.3 0.9 1.7 1.6 3 1.6 2.1 0 2.4 0.5 2.4 3.5 0 3.5 0 3.5 -4.2 3.4 -2.4 -0.1 -5.6 -0.4 -7.3 -0.6z"/>
  <path d="M133 158 c0 -2.1 1 -2.4 4.8 -1.4 3.6 1 2.7 3.4 -1.3 3.4 -2.8 0 -3.5 -0.4 -3.5 -2z"/>
  <path d="M134.1 152.7 c-4.8 -1.7 -5.2 -3.7 -0.7 -3.7 2.9 0 3.6 0.4 3.6 1.9 0 1.1 0.8 2.2 1.8 2.4 1.2 0.3 1.2 0.5 0.2 0.5 -0.8 0.1 -3 -0.4 -4.9 -1.1z"/>
  <path d="M118.9 146.5 c1.8 -0.9 3.6 -1.4 3.9 -1.1 0.9 1 -0.2 1.5 -3.9 2.1 -3.4 0.5 -3.4 0.5 0 -1z"/>
  <path d="M139 146.6 c0 -0.8 0.8 -1.7 1.8 -1.9 1.6 -0.4 1.6 -0.5 0 -0.6 -3.2 -0.2 -1.9 -2.1 1.5 -2.1 1.7 0 4.9 -0.3 7 -0.6 3.6 -0.6 3.7 -0.6 3.7 2.3 0 2.9 -0.2 3 -5.2 3.7 -7.7 0.9 -8.8 0.8 -8.8 -0.8z"/>
  <path d="M260.3 147.3 c-3.9 -0.4 -4.3 -0.7 -4.3 -3.1 0 -2.6 0.2 -2.7 4.3 -2.4 2.3 0.1 5.8 0.5 7.7 0.9 3 0.5 3.2 0.7 1.5 1.3 -1.7 0.7 -1.7 0.9 -0.2 0.9 0.9 0.1 1.7 0.8 1.7 1.6 0 1.5 -1.2 1.6 -10.7 0.8z"/>
  <path d="M155 143.5 c0 -2.2 0.4 -2.5 3.5 -2.5 3.1 0 3.5 0.3 3.5 2.5 0 2.2 -0.4 2.5 -3.5 2.5 -3.1 0 -3.5 -0.3 -3.5 -2.5z"/>
 </g>
 <g fill="#cecece">
  <path d="M210.8 187.3 c-4.3 -0.7 -3.3 -2.3 1.5 -2.4 2.7 -0.1 3.3 -0.3 1.7 -0.6 -1.4 -0.3 -2.9 -1.1 -3.3 -1.9 -0.9 -1.6 -11.5 -7.2 -20 -10.5 -7 -2.8 -21.7 -6.9 -21.8 -6.1 -0.1 0.4 -0.5 -0.6 -0.9 -2.3 -0.7 -2.8 -0.8 -2.7 -0.9 1.3 -0.1 5.3 -1.6 5.5 -2.5 0.2 -0.6 -4.1 -0.6 -4.1 -6.6 -3.4 -5.2 0.6 -6 0.4 -6 -1 0 -0.9 -0.7 -1.6 -1.5 -1.6 -0.8 0 -1.5 0.5 -1.5 1 0 0.6 -1.6 1 -3.5 1 -2.8 0 -3.5 -0.4 -3.5 -2 0 -1.9 0.4 -2 5.8 -1.4 3.1 0.4 5.9 0.7 6.2 0.6 5.1 0 7 -0.4 7 -1.2 0 -0.5 -2.4 -1 -5.2 -1.1 -5.2 0 -15 -1.6 -11.5 -1.8 0.9 0 1.7 -0.5 1.7 -1.1 0 -0.5 1.6 -1 3.5 -1 2.5 0 3.5 0.4 3.5 1.5 0 1.4 1 1.5 6 0.9 4.2 -0.5 6 -0.3 6 0.5 0 0.6 1.4 1.1 3 1.1 2.3 0 3 0.5 3 1.9 0 1.4 1.2 2.1 4.8 3 15 3.9 35.4 12.7 40.9 17.9 1.3 1.2 2.8 2.2 3.4 2.2 0.5 0 0.9 1.6 0.9 3.5 0 3.4 -0.1 3.5 -3.7 3.4 -2.1 -0.1 -5 -0.4 -6.5 -0.6z"/>
  <path d="M164 179.5 c0 -4 2.4 -4.9 3.4 -1.2 1 3.7 0.7 4.7 -1.4 4.7 -1.6 0 -2 -0.7 -2 -3.5z"/>
  <path d="M132 158 c0 -2.1 1 -2.4 4.8 -1.4 3.6 1 2.7 3.4 -1.3 3.4 -2.8 0 -3.5 -0.4 -3.5 -2z"/>
  <path d="M117 155 c0 -1.3 -0.7 -2 -2 -2 -2.5 0 -2.6 -2.2 -0.1 -4.4 2.4 -2.2 10.4 -4.7 11.9 -3.7 0.7 0.4 -1.5 1.3 -4.7 1.9 -7.2 1.5 -8.6 3.7 -3.6 5.8 1.9 0.7 3.9 1.4 4.5 1.4 0.5 0 1 0.7 1 1.5 0 1 -1.1 1.5 -3.5 1.5 -2.8 0 -3.5 -0.4 -3.5 -2z"/>
  <path d="M135.8 153.3 c-3.3 -0.8 -2 -3.3 1.7 -3.3 2.8 0 3.5 0.4 3.5 2 0 2 -1.4 2.3 -5.2 1.3z"/>
  <path d="M130.3 151.3 c-2.2 -0.8 -1.4 -3.3 1.5 -4.4 1.5 -0.6 4.7 -1.5 7.2 -1.9 4.5 -0.9 4.5 -0.9 -0.8 -0.7 -2.8 0.1 -5.2 -0.1 -5.2 -0.4 0 -0.9 8.8 -2 21.8 -2.8 10.2 -0.6 10.2 -0.6 10.2 2 0 2.5 -0.2 2.6 -8.2 3.2 -4.6 0.4 -10.2 0.7 -12.5 0.7 -2.4 0 -4.3 0.5 -4.3 1 0 0.6 -1.6 1 -3.5 1 -2.4 0 -3.5 0.5 -3.5 1.5 0 1.5 -0.6 1.7 -2.7 0.8z m18.5 -8 c-1 -0.2 -2.6 -0.2 -3.5 0 -1 0.3 -0.2 0.5 1.7 0.5 1.9 0 2.7 -0.2 1.8 -0.5z"/>
  <path d="M255 143.9 c0 -2.4 0.3 -3 1.6 -2.5 0.9 0.3 3.3 0.6 5.5 0.6 3.5 0 3.9 0.3 3.9 2.5 0 2.4 -0.3 2.5 -5.5 2.5 -5.5 0 -5.5 0 -5.5 -3.1z"/>
 </g>
 <g fill="#c5c5c5">
  <path d="M165 187.5 c0 -4.1 2.4 -4.9 3.4 -1 0.4 1.6 1.1 2.2 2.1 1.9 0.9 -0.4 1.5 0 1.5 1 0 1.2 -1 1.6 -3.5 1.6 -3.3 0 -3.5 -0.2 -3.5 -3.5z"/>
  <path d="M177 188.6 c0 -1.3 2.8 -2.6 5.8 -2.6 0.6 0 1.2 0.9 1.2 2 0 1.6 -0.7 2 -3.5 2 -2.3 0 -3.5 -0.5 -3.5 -1.4z"/>
  <path d="M185 187.6 c0 -0.7 1 -1.6 2.3 -2 4.1 -1.1 5.7 -0.7 5.7 1.4 0 1.7 -0.7 2 -4 2 -2.7 0 -4 -0.4 -4 -1.4z"/>
  <path d="M215 188 c0 -0.5 -0.7 -1 -1.5 -1 -3.1 0 -1.4 -2 1.8 -2.1 1.7 0 2.6 -0.3 1.9 -0.6 -0.7 -0.3 -2.4 -1.5 -3.6 -2.7 -6.4 -5.9 -34.9 -17.6 -44.1 -18 -0.5 -0.1 -1.3 -1.2 -1.6 -2.6 -0.5 -1.9 -0.7 -1.5 -0.8 1.8 -0.1 4.7 -1.8 5.8 -2.3 1.5 -0.2 -2.2 -0.9 -2.9 -3.2 -3.3 -3.6 -0.6 -4.5 -2.7 -1.4 -3.3 2.3 -0.4 2.3 -0.4 0.1 -1.2 -2.8 -0.9 -3.1 -3.5 -0.4 -3.5 5 0 11.1 1.4 11.1 2.5 0 0.7 2.3 1.9 5.3 2.5 7.6 1.9 21.3 6.8 28.2 10.2 8.4 4.2 20.5 11.8 20.5 12.9 0 0.5 0.7 0.9 1.5 0.9 1 0 1.5 1.1 1.5 3.5 0 3.5 0 3.5 -6.5 3.5 -3.7 0 -6.5 -0.4 -6.5 -1z"/>
  <path d="M148.8 158.3 c1.2 -0.2 3 -0.2 4 0 0.9 0.3 -0.1 0.5 -2.3 0.4 -2.2 0 -3 -0.2 -1.7 -0.4z"/>
  <path d="M149 155.5 c-0.8 -0.2 -3.2 -0.6 -5.2 -1 -2.4 -0.4 -3.8 -1.1 -3.8 -2 0 -1.7 1.1 -1.8 8.8 -0.9 4.2 0.6 5.2 1 5.2 2.5 0 1.8 -1.2 2.1 -5 1.4z"/>
  <path d="M130 147.9 c0 -0.7 3.5 -1.9 5.8 -1.9 2.8 0 0.9 1.8 -2.3 2.2 -1.9 0.2 -3.5 0.1 -3.5 -0.3z"/>
  <path d="M261.8 147.3 c-1 -0.2 -1.8 -1.1 -1.8 -1.9 0 -0.8 0.8 -1.4 1.8 -1.5 1.5 0 1.4 -0.2 -0.3 -1 -1.4 -0.6 0 -0.8 4.4 -0.4 3.5 0.3 7.5 0.5 8.7 0.5 1.9 0 2.4 0.5 2.4 2.5 0 2.4 -0.2 2.5 -6.7 2.4 -3.8 -0.1 -7.6 -0.3 -8.5 -0.6z m10 -3 c-1 -0.2 -2.6 -0.2 -3.5 0 -1 0.3 -0.2 0.5 1.7 0.5 1.9 0 2.7 -0.2 1.8 -0.5z"/>
  <path d="M139 146 c0 -0.5 0.6 -1 1.3 -1 0.6 0 2.2 -0.3 3.5 -0.6 1.6 -0.5 2.2 -0.2 2.2 1 0 1.2 -0.9 1.6 -3.5 1.6 -1.9 0 -3.5 -0.4 -3.5 -1z"/>
  <path d="M148 145.7 c0 -0.8 0.8 -1.8 1.8 -2 1.6 -0.4 1.6 -0.5 0 -0.6 -1 0 -1.8 -0.5 -1.8 -1.1 0 -0.6 3.1 -1 7.3 -1 3.9 0 8.2 -0.3 9.5 -0.6 1.9 -0.6 2.2 -0.3 2.2 2.5 0 2.9 -0.3 3.1 -3.4 3.1 -1.8 0 -6.1 0.3 -9.5 0.6 -5.1 0.6 -6.1 0.4 -6.1 -0.9z"/>
  <path d="M124.5 145.2 c0.6 -0.6 3.7 -1.3 7 -1.6 7 -0.7 4.7 0.7 -3 1.8 -3.3 0.5 -4.7 0.4 -4 -0.2z"/>
  <path d="M139 143 c0 -0.5 1.7 -1 3.8 -0.9 3 0 3.3 0.2 1.7 0.9 -2.8 1.2 -5.5 1.2 -5.5 0z"/>
 </g>
 <g fill="#bdbdbd">
  <path d="M166 267.5 c0 -3.2 0.2 -3.5 3 -3.5 3.5 0 4.1 2.7 1.2 5.3 -2.9 2.6 -4.2 2 -4.2 -1.8z"/>
  <path d="M222.6 189.3 c-0.4 -0.4 -2.7 -0.6 -5.1 -0.4 -4 0.2 -4.5 0 -4.5 -1.9 0 -2 0.4 -2.1 6.3 -1.6 3.4 0.3 5.2 0.3 3.9 0 -1.2 -0.3 -2 -0.9 -1.7 -1.4 0.6 -0.9 -10.8 -8.2 -20.3 -12.9 -7.1 -3.6 -25.1 -9.8 -29.7 -10.3 -1.9 -0.2 -3.2 -1 -3.7 -2.3 -0.4 -1.4 -0.6 -0.9 -0.7 1.8 -0.1 3.4 -2.1 5.6 -2.1 2.2 0 -1.2 -1.2 -1.4 -7.5 -0.8 -6.6 0.5 -7.5 0.4 -7.5 -1.1 0 -0.9 -0.4 -1.6 -1 -1.6 -0.5 0 -1 0.5 -1 1 0 0.6 -1.6 1 -3.5 1 -2.8 0 -3.5 -0.4 -3.5 -2 0 -1.8 0.5 -1.9 6.3 -1.3 6.9 0.7 6.6 0.7 12 0.5 5.4 -0.3 3.6 -2.2 -2.1 -2.3 -5 -0.1 -15 -1.6 -11.9 -1.8 1 -0.1 1.7 -0.9 1.7 -2.2 0 -2.1 0.2 -2.2 9.8 -1.5 5.3 0.4 9.9 1.2 10 1.7 0.2 0.5 1.2 0.9 2.3 0.9 1 0 1.9 0.4 1.9 0.9 0 0.5 3 1.6 6.8 2.5 8.4 2.1 20.5 6.7 29.7 11.3 9 4.6 20.5 12 20.5 13.3 0 0.5 1.1 1.2 2.5 1.6 2.1 0.5 2.5 1.2 2.5 4 0 3.4 0 3.4 -4.8 3.4 -2.7 0 -5.2 -0.3 -5.6 -0.7z"/>
  <path d="M164 180.5 c0 -4 2.4 -4.9 3.4 -1.2 1 3.7 0.7 4.7 -1.4 4.7 -1.6 0 -2 -0.7 -2 -3.5z"/>
  <path d="M126.3 158.7 c-2.9 -0.5 -5.3 -1.4 -5.3 -1.8 0 -0.5 -1.6 -0.9 -3.5 -0.9 -3.4 0 -3.5 -0.1 -3.4 -3.7 0 -2.1 0.3 -3.2 0.6 -2.5 0.7 1.7 5 3.8 9.8 4.6 10.5 1.9 13.5 2.8 13.5 4.2 0 1.6 -3.7 1.7 -11.7 0.1z"/>
  <path d="M133.8 152.4 c-2.7 -0.8 -4.8 -1.8 -4.8 -2.2 0.1 -2.1 2.3 -3.4 8.6 -4.7 8.9 -1.9 9.4 -1.9 9.4 0.4 0 1.5 -1.2 2 -6.2 2.8 -5.1 0.8 -5.6 1 -2.5 1.2 3 0.1 3.7 0.5 3.7 2.1 0 2.4 -1.6 2.4 -8.2 0.4z"/>
  <path d="M268 148 c0 -0.6 -3 -1 -7 -1 -7 0 -7 0 -7 -3.1 0 -2.8 0.2 -3 2.8 -2.5 1.5 0.2 6.3 0.8 10.7 1.1 10.6 0.8 11.5 1.2 11.5 4.1 0 2.2 -0.3 2.4 -5.5 2.4 -3 0 -5.5 -0.4 -5.5 -1z m4.3 -3.7 c-1.3 -0.2 -3.3 -0.2 -4.5 0 -1.3 0.2 -0.3 0.4 2.2 0.4 2.5 0 3.5 -0.2 2.3 -0.4z m-9.5 -1 c-1 -0.2 -2.6 -0.2 -3.5 0 -1 0.3 -0.2 0.5 1.7 0.5 1.9 0 2.7 -0.2 1.8 -0.5z"/>
  <path d="M150 145.1 c0 -0.5 0.8 -1.2 1.8 -1.4 1.6 -0.4 1.6 -0.5 0 -0.6 -3.5 -0.2 -1.7 -2.1 2 -2 3 0 3.3 0.2 1.7 0.9 -1.7 0.7 -1.7 0.9 -0.2 0.9 0.9 0.1 1.7 0.8 1.7 1.6 0 1 -1.1 1.5 -3.5 1.5 -1.9 0 -3.5 -0.4 -3.5 -0.9z"/>
  <path d="M161 144.5 c0 -0.8 0.8 -1.5 1.8 -1.6 1.5 0 1.4 -0.1 -0.2 -0.8 -1.8 -0.7 -1.8 -0.8 0.5 -1.4 4.2 -1.2 4.9 -0.8 4.9 2.3 0 2.8 -0.3 3 -3.5 3 -2.4 0 -3.5 -0.5 -3.5 -1.5z"/>
  <path d="M243 143.5 c0 -2.3 0.3 -2.5 5 -2.5 4.7 0 5 0.2 5 2.5 0 2.3 -0.3 2.5 -5 2.5 -4.7 0 -5 -0.2 -5 -2.5z"/>
  <path d="M128.3 144.3 c0.9 -0.2 2.5 -0.2 3.5 0 0.9 0.3 0.1 0.5 -1.8 0.5 -1.9 0 -2.7 -0.2 -1.7 -0.5z"/>
  <path d="M136.5 143 c1.7 -0.4 4.8 -0.8 7 -0.8 3.8 0 3.8 0.1 1 0.8 -1.6 0.4 -4.8 0.8 -7 0.8 -3.8 0 -3.8 -0.1 -1 -0.8z"/>
 </g>
 <g fill="#b5b5b5">
  <path d="M159.5 276 c-0.4 -0.6 -0.9 -3.6 -1.2 -6.6 -0.6 -5.6 -0.6 -5.6 3.5 -5.2 2.3 0.2 4.2 0.3 4.3 0.3 0.6 -0.3 7.3 -43.8 6.8 -44.1 -1.6 -0.9 -7.2 -17.3 -9 -25.9 -1 -4.9 -2.2 -14.3 -2.5 -20.7 -0.4 -6.5 -1.1 -11.8 -1.6 -11.8 -0.4 0 -0.8 1.6 -0.8 3.5 0 3.3 -0.2 3.5 -3.5 3.5 -3.5 0 -3.5 0 -3.5 -5.3 0 -4.8 0.2 -5.3 2.3 -5.3 6.5 -0.1 11 -0.5 10.5 -1 -0.5 -0.4 -18 -2.8 -24.5 -3.4 -0.2 0 -0.3 -1.1 -0.3 -2.5 0 -3 0.4 -3 16.6 -1.4 16.9 1.6 33.8 6.6 50.6 15 11.2 5.6 22.4 12.7 25.5 16.2 1.1 1.4 3.5 2.8 5.2 3.2 2.8 0.6 3.1 1.1 3.1 4.2 0 3.6 0 3.6 -4.7 2.9 -2.7 -0.4 -6.9 -0.9 -9.5 -1.3 -3.9 -0.4 -4.8 -0.9 -4.8 -2.5 0 -1.7 0.5 -1.9 4.3 -1.4 3.7 0.5 3.9 0.5 1.5 -0.5 -1.6 -0.6 -2.8 -1.5 -2.8 -2 0 -2.3 -21.6 -14.5 -34.7 -19.5 -8.2 -3.1 -20.4 -6.5 -21.4 -5.8 -0.4 0.2 -1 -0.4 -1.2 -1.3 -0.8 -3 -0.6 21.9 0.2 26.7 0.4 2.5 1.1 4.4 1.6 4.3 0.6 -0.1 2.7 -0.4 4.8 -0.8 3.3 -0.6 3.7 -0.5 3.7 1.3 0 1.5 -0.9 2.1 -3.4 2.6 -3.5 0.7 -3.5 0.7 -2 5.9 0.9 2.9 2.6 7.5 3.9 10.4 1.4 3.2 1.9 5.3 1.3 5.5 -0.7 0.3 -0.5 1.5 0.5 3.5 1.5 2.8 1.4 4.4 -2.4 26.9 -3.9 23.9 -3.9 23.9 -9.2 28.6 -5.5 5 -6.2 5.4 -7.2 3.8z"/>
  <path d="M156 232 c0 -5 0 -5 3.5 -5 3.5 0 3.5 0 3.5 5 0 5 0 5 -3.5 5 -3.5 0 -3.5 0 -3.5 -5z"/>
  <path d="M154 199 c0 -3.9 0.1 -4 3.5 -4 3.4 0 3.5 0.1 3.5 4 0 3.9 -0.1 4 -3.5 4 -3.4 0 -3.5 -0.1 -3.5 -4z"/>
  <path d="M187 187.6 c0 -1.3 2.8 -2.6 5.8 -2.6 0.6 0 1.2 0.9 1.2 2 0 1.6 -0.7 2 -3.5 2 -2.3 0 -3.5 -0.5 -3.5 -1.4z"/>
  <path d="M212 187 c0 -2.1 1 -2.4 4.8 -1.4 3.6 1 2.7 3.4 -1.3 3.4 -2.8 0 -3.5 -0.4 -3.5 -2z"/>
  <path d="M153 180.5 c0 -3.3 0.2 -3.5 3.5 -3.5 3.3 0 3.5 0.2 3.5 3.5 0 3.3 -0.2 3.5 -3.5 3.5 -3.3 0 -3.5 -0.2 -3.5 -3.5z"/>
  <path d="M116 154.6 c0 -2.3 0.2 -2.4 3.5 -1.3 4.6 1.4 4.6 3.7 0 3.7 -3 0 -3.5 -0.3 -3.5 -2.4z"/>
  <path d="M130 149 c0 -1.2 3.3 -3 5.4 -3 0.9 0 1.6 0.9 1.6 2 0 1.6 -0.7 2 -3.5 2 -1.9 0 -3.5 -0.4 -3.5 -1z"/>
  <path d="M270 146.9 c0 -1.1 0.5 -1.7 1 -1.4 0.6 0.3 1.6 0.3 2.2 -0.1 0.9 -0.6 0.5 -1 -1.2 -1.5 -2.4 -0.7 -2.4 -0.7 0.5 -0.8 5.2 -0.1 7.5 0.9 7.5 3.5 0 2.2 -0.4 2.4 -5 2.4 -4.4 0 -5 -0.3 -5 -2.1z"/>
  <path d="M262 146 c0 -1.2 0.7 -2 1.8 -2.1 1.4 0 1.4 -0.2 -0.3 -0.9 -1.7 -0.7 -1.5 -0.9 1.2 -0.9 3.5 -0.1 5.3 1.5 2.6 2.2 -1.7 0.4 -1.7 0.5 0 0.6 0.9 0 1.7 0.8 1.7 1.6 0 1 -1.1 1.5 -3.5 1.5 -2.8 0 -3.5 -0.4 -3.5 -2z"/>
  <path d="M149.5 145.9 c-0.9 -1.4 -0.6 -1.6 3.8 -2.4 3.3 -0.7 3.7 -0.5 3.7 1.4 0 1.7 -0.6 2.1 -3.4 2.1 -1.9 0 -3.8 -0.5 -4.1 -1.1z"/>
  <path d="M124 145.1 c0.8 -0.5 4.2 -1.2 7.5 -1.5 7 -0.7 3.8 0.7 -4 1.8 -3.2 0.4 -4.5 0.3 -3.5 -0.3z"/>
  <path d="M162 144.5 c0 -0.8 0.8 -1.5 1.8 -1.6 1.5 0 1.5 -0.1 -0.2 -0.8 -1.8 -0.7 -1.8 -0.8 -0.2 -1.4 1 -0.4 2.9 -0.7 4.2 -0.7 2 0 2.4 0.5 2.4 3 0 2.8 -0.2 3 -4 3 -2.9 0 -4 -0.4 -4 -1.5z"/>
  <path d="M242 143.5 c0 -2.4 0.3 -2.5 6 -2.5 5.7 0 6 0.1 6 2.5 0 2.4 -0.3 2.5 -6 2.5 -5.7 0 -6 -0.1 -6 -2.5z"/>
  <path d="M173 142.5 c0 -2.3 0.3 -2.5 5 -2.5 4.7 0 5 0.2 5 2.5 0 2.3 -0.3 2.5 -5 2.5 -4.7 0 -5 -0.2 -5 -2.5z"/>
  <path d="M149 142 c0 -0.5 1.9 -1 4.3 -0.9 3.6 0.1 3.8 0.2 1.7 0.9 -3.6 1.2 -6 1.2 -6 0z"/>
 </g>
 <g fill="#adadad">
  <path d="M159.4 276.2 c-0.7 -0.4 -2.3 -21.8 -4.4 -58.9 -2.9 -50.2 -3.6 -58.3 -4.9 -58.5 -0.9 -0.2 1.9 -0.4 6.1 -0.5 7.7 -0.1 7.7 -0.1 8.1 8.1 0.3 8.1 0.3 8.1 0.5 -0.6 0.2 -9.8 1.3 -8.9 -11.8 -10.3 -3 -0.3 -8.5 -1 -12.2 -1.7 -5.9 -1 -6.8 -1.4 -6.8 -3.2 0 -1.2 0.4 -2.7 0.8 -3.3 0.8 -1.3 7.2 -2.7 17.5 -3.7 5.3 -0.6 5.7 -0.5 5.7 1.5 0 2 -0.4 2.1 -5 1.6 -2.9 -0.4 -5 -0.2 -5 0.3 0 0.6 2.8 1 6.3 1 21.2 0 55.2 12.5 75.6 27.7 2.4 1.8 5.2 3.3 6.1 3.3 2.1 0 4 4 4 8.5 0 3.5 0 3.5 -5.5 3.5 -3 0 -5.5 -0.3 -5.5 -0.8 0 -0.4 -1.8 -0.6 -4 -0.4 -3.5 0.4 -4 0.2 -4 -1.7 0 -2 0.4 -2.1 5.6 -1.5 5.7 0.7 5.7 0.7 3.3 -2 -3.3 -3.8 -14.2 -10.8 -25.7 -16.5 -16.6 -8.3 -34.8 -13.8 -48.2 -14.5 -8.5 -0.5 -8.5 -0.5 1 0.7 9.5 1.2 9.5 1.2 9.4 5.7 -0.2 10.5 1.6 27.5 3.1 28.6 0.9 0.7 2.2 4.5 3.1 8.5 0.8 4.1 1.9 7.6 2.3 7.9 0.7 0.5 1.7 3.7 2.4 8.5 0.2 1.1 0.9 3 1.5 4.1 0.9 1.6 0.3 7.2 -2.9 26 -3.9 23.9 -3.9 23.9 -9.2 28.6 -5.6 5.1 -5.7 5.1 -7.3 4z m15.9 -61.7 c-0.9 -1.9 -1.8 -3.3 -2.1 -3.1 -0.4 0.5 2.6 6.6 3.3 6.6 0.3 0 -0.3 -1.6 -1.2 -3.5z"/>
  <path d="M178 188.6 c0 -1.3 2.8 -2.6 5.8 -2.6 0.6 0 1.2 0.9 1.2 2 0 1.6 -0.7 2 -3.5 2 -2.3 0 -3.5 -0.5 -3.5 -1.4z"/>
  <path d="M188 187.6 c0 -1.3 2.8 -2.6 5.8 -2.6 0.6 0 1.2 0.9 1.2 2 0 1.6 -0.7 2 -3.5 2 -2.3 0 -3.5 -0.5 -3.5 -1.4z"/>
  <path d="M211 187 c0 -2.1 1 -2.4 4.8 -1.4 3.6 1 2.7 3.4 -1.3 3.4 -2.8 0 -3.5 -0.4 -3.5 -2z"/>
  <path d="M140 159 c0 -2.1 1 -2.4 4.8 -1.4 3.6 1 2.7 3.4 -1.3 3.4 -2.8 0 -3.5 -0.4 -3.5 -2z"/>
  <path d="M115.5 148 c0.7 -1.2 6.5 -3 6.5 -2.1 0 0.4 -1.6 1.2 -3.5 1.8 -1.9 0.6 -3.3 0.7 -3 0.3z"/>
  <path d="M250.8 146.3 c-3.1 -0.5 -3.9 -3.3 -1 -3.4 1.4 0 1.4 -0.2 -0.3 -0.9 -1.6 -0.7 -1.1 -0.9 2 -0.9 2.2 0 5.1 0.2 6.4 0.6 2.3 0.6 2.3 0.7 0.5 1.4 -1.6 0.7 -1.7 0.8 -0.1 0.8 0.9 0.1 1.7 0.8 1.7 1.6 0 1.5 -2.9 1.8 -9.2 0.8z"/>
  <path d="M164 144.7 c0 -0.8 0.8 -1.8 1.8 -2 1.6 -0.4 1.6 -0.5 0 -0.6 -1 0 -1.8 -0.5 -1.8 -1.1 0 -0.6 4.7 -1 12 -1 12 0 12 0 12 2.5 0 2.4 -0.2 2.5 -6.7 2.5 -3.8 0 -9.2 0.3 -12 0.6 -4.4 0.6 -5.3 0.4 -5.3 -0.9z"/>
  <path d="M137.3 143 c1.6 -0.5 7 -1.1 12 -1.4 6.2 -0.4 7.9 -0.3 5.2 0.3 -5.9 1.2 -20.6 2.2 -17.2 1.1z"/>
 </g>
 <g fill="#a5a5a5">
  <path d="M159 272.6 c0 -1.9 0.5 -3.8 1 -4.1 0.6 -0.4 1 0.8 1 3 0 2.2 0.4 3.4 1 3 0.6 -0.4 0.8 -1 0.5 -1.4 -0.2 -0.5 0.7 -1.9 2.2 -3.2 1.4 -1.3 2.3 -1.8 1.9 -1.1 -1 1.7 0.9 1.5 2.3 -0.2 1.4 -1.7 9.4 -48.3 8.6 -50.3 -0.2 -0.8 -1 -1.1 -1.6 -0.7 -0.7 0.4 -0.9 0.3 -0.6 -0.3 0.4 -0.6 -0.5 -3.7 -1.9 -6.8 -2.2 -5.2 -7.4 -24.1 -7.4 -27.2 0 -0.7 0.5 -1.3 1 -1.3 0.6 0 1 1.4 1 3 0 1.8 0.6 3.3 1.5 3.6 0.9 0.4 1.5 1.9 1.5 3.9 0 1.9 1.1 6.5 2.5 10.3 1.4 3.8 2.5 7.6 2.5 8.5 0 0.9 0.9 3.1 2 4.9 1.9 3.4 1.9 3.4 -2 27.3 -4 24 -4 24 -8.8 28.2 -5.9 5.4 -8.2 5.6 -8.2 0.9z"/>
  <path d="M157 258.5 c0 -4.9 2.3 -6.4 3.4 -2.2 1.2 4.4 0.7 6.7 -1.4 6.7 -1.7 0 -2 -0.7 -2 -4.5z"/>
  <path d="M156 241.5 c0 -4.9 2.3 -6.4 3.4 -2.2 1.2 4.4 0.7 6.7 -1.4 6.7 -1.7 0 -2 -0.7 -2 -4.5z"/>
  <path d="M155 224 c0 -4.5 2.3 -5.7 3.4 -1.7 1.1 4.1 0.7 5.7 -1.4 5.7 -1.7 0 -2 -0.7 -2 -4z"/>
  <path d="M154 207 c0 -4.5 2.3 -5.7 3.4 -1.7 1.1 4.1 0.7 5.7 -1.4 5.7 -1.7 0 -2 -0.7 -2 -4z"/>
  <path d="M153 190 c0 -4.5 2.3 -5.7 3.4 -1.7 1.1 4.1 0.7 5.7 -1.4 5.7 -1.7 0 -2 -0.7 -2 -4z"/>
  <path d="M230.8 191.3 c-2 -0.3 -2.8 -1 -2.8 -2.4 0 -2.1 0.8 -2.2 6.2 -1 3.6 0.8 3.6 0.8 2.6 -1.5 -0.6 -1.3 -1.4 -2.2 -1.7 -2.1 -0.3 0.1 -3.3 -1.8 -6.6 -4.3 -17.5 -13.3 -43.7 -24.6 -65 -27.9 -3.8 -0.6 -11.5 -1 -17 -0.9 -10 0.2 -10 0.2 -4.2 1.4 5.9 1.2 8.6 2.4 5.1 2.4 -4.6 -0.1 -18.4 -3.8 -18.4 -5 0 -1.6 3.2 -3.2 6.7 -3.4 2.1 -0.1 5.4 -0.7 7.3 -1.3 1.9 -0.6 6.3 -1.4 9.8 -1.7 5 -0.5 6.2 -0.3 6.2 0.9 0 0.9 1.6 1.6 4.8 2 18.1 2.3 43.7 12.2 61.7 23.9 4.7 3.1 9.2 5.6 10 5.6 0.8 0 1.7 1.2 2.1 2.8 0.3 1.5 1 3.7 1.5 5 0.5 1.3 0.9 3.6 0.9 5.2 0 2.7 -0.3 3 -3.2 2.9 -1.8 -0.1 -4.5 -0.4 -6 -0.6z"/>
  <path d="M189 187.6 c0 -1.3 2.8 -2.6 5.8 -2.6 0.6 0 1.2 0.9 1.2 2 0 1.6 -0.7 2 -3.5 2 -2.3 0 -3.5 -0.5 -3.5 -1.4z"/>
  <path d="M210 187 c0 -2.1 1 -2.4 4.8 -1.4 3.6 1 2.7 3.4 -1.3 3.4 -2.8 0 -3.5 -0.4 -3.5 -2z"/>
  <path d="M165.8 179 c-0.4 -1.4 -0.8 -6.8 -0.8 -12.1 0 -10.9 0 -10.9 -7.6 -10.9 -2.4 0 -4.4 -0.4 -4.4 -1 0 -1.1 12 -0.2 13.3 1 0.4 0.3 0.6 6.3 0.5 13.1 -0.2 7.3 -0.6 11.4 -1 9.9z"/>
  <path d="M152 173 c0 -4.5 2.3 -5.7 3.4 -1.7 1.1 4.1 0.7 5.7 -1.4 5.7 -1.7 0 -2 -0.7 -2 -4z"/>
  <path d="M163.3 166 c0 -3.6 0.2 -5 0.4 -3.2 0.2 1.7 0.2 4.7 0 6.5 -0.2 1.7 -0.4 0.3 -0.4 -3.3z"/>
  <path d="M151.3 162.3 c-1.5 -0.3 -2.3 -1.2 -2.3 -2.4 0 -1.9 1.6 -2.4 4.4 -1.3 1.6 0.6 2.3 4.5 0.9 4.3 -0.5 -0.1 -1.8 -0.4 -3 -0.6z"/>
  <path d="M130 158 c0 -2.1 1 -2.4 4.8 -1.4 3.6 1 2.7 3.4 -1.3 3.4 -2.8 0 -3.5 -0.4 -3.5 -2z"/>
  <path d="M113.7 154.3 c-1.2 -1.1 -0.7 -4 0.8 -5.3 1.3 -1.1 1.4 -1 0.9 0.3 -0.3 1 0.2 2.1 1.5 2.9 1.2 0.7 2.1 1.6 2.1 2 0 1 -4.4 1.1 -5.3 0.1z"/>
  <path d="M273.3 148.3 c-2.3 -0.9 -1.4 -2.3 1.5 -2.4 2.7 -0.1 2.7 -0.1 -0.3 -1.4 -3.2 -1.5 -1.7 -1.9 3.4 -0.9 2.4 0.5 3.1 1.2 3.1 3 0 2.1 -0.5 2.4 -3.2 2.3 -1.8 0 -3.9 -0.3 -4.5 -0.6z"/>
  <path d="M261 145.9 c0 -1.9 0.4 -2 4.3 -1.4 2.3 0.4 4.4 0.9 4.7 1.2 0.9 0.9 -2.6 2.3 -5.7 2.3 -2.7 0 -3.3 -0.4 -3.3 -2.1z"/>
  <path d="M251.3 146.3 c-1.9 -0.7 -1.6 -3.3 0.5 -3.4 1.4 0 1.4 -0.2 -0.3 -0.9 -1.7 -0.7 -1.5 -0.9 1.2 -0.9 1.7 -0.1 3.9 0.2 4.9 0.6 1.6 0.6 1.6 0.7 -0.2 1.4 -1.7 0.7 -1.7 0.8 -0.1 0.8 0.9 0.1 1.7 0.8 1.7 1.6 0 1.5 -4.8 2 -7.7 0.8z"/>
  <path d="M165 144.6 c0 -0.8 0.8 -1.7 1.8 -1.9 1.6 -0.4 1.6 -0.5 0 -0.6 -1 0 -1.8 -0.5 -1.8 -1.1 0 -0.6 2.5 -1 5.8 -0.9 4.1 0 5.1 0.3 3.7 0.9 -1.7 0.7 -1.7 0.9 -0.2 0.9 2.5 0.1 2.1 2.8 -0.5 3.5 -4.3 1.1 -8.8 0.7 -8.8 -0.8z"/>
  <path d="M240 143.5 c0 -2.3 0.4 -2.5 4.3 -2.4 3.2 0 3.7 0.2 2.2 0.9 -1.7 0.7 -1.7 0.9 -0.2 0.9 0.9 0.1 1.7 0.8 1.7 1.6 0 1.1 -1.1 1.5 -4 1.5 -3.6 0 -4 -0.2 -4 -2.5z"/>
  <path d="M130 144 c0.8 -0.5 2.6 -0.9 4 -0.9 2.3 0 2.3 0.1 0.5 0.9 -1.1 0.5 -2.9 0.9 -4 0.9 -1.7 0.1 -1.7 -0.1 -0.5 -0.9z"/>
  <path d="M178 143.5 c0 -0.8 0.8 -1.5 1.8 -1.6 1.4 0 1.4 -0.2 -0.3 -0.9 -1.3 -0.6 0.7 -0.9 6.3 -0.9 8.1 -0.1 8.2 -0.1 8.2 2.4 0 2.5 -0.1 2.5 -8 2.5 -6.4 0 -8 -0.3 -8 -1.5z"/>
  <path d="M224 142.5 c0 -2.4 0.3 -2.5 6 -2.5 5.7 0 6 0.1 6 2.5 0 2.4 -0.3 2.5 -6 2.5 -5.7 0 -6 -0.1 -6 -2.5z"/>
  <path d="M263.5 143 c-3 -0.8 -3 -0.8 0.5 -0.9 1.9 0 4.2 0.4 5 0.9 1.2 0.8 1.1 1 -0.5 0.9 -1.1 -0.1 -3.3 -0.5 -5 -0.9z"/>
  <path d="M145.5 141.9 c2.2 -0.4 6.3 -0.8 9 -0.7 5 0.1 5 0.1 0 0.8 -2.7 0.5 -6.8 0.8 -9 0.8 -4 0 -4 0 0 -0.9z"/>
 </g>
 <g fill="#9c9c9c">
  <path d="M169.5 268 c0.3 -0.5 1.2 -4.6 2 -9.1 1.4 -7.8 2 -9.7 2.9 -8.8 0.4 0.4 -2 15.4 -2.9 17.7 -0.2 0.6 -0.9 1.2 -1.5 1.2 -0.6 0 -0.8 -0.4 -0.5 -1z"/>
  <path d="M157 261 c0 -4.5 2.3 -5.7 3.4 -1.7 1.1 4.1 0.7 5.7 -1.4 5.7 -1.7 0 -2 -0.7 -2 -4z"/>
  <path d="M156 244 c0 -4.5 2.3 -5.7 3.4 -1.7 1.1 4.1 0.7 5.7 -1.4 5.7 -1.7 0 -2 -0.7 -2 -4z"/>
  <path d="M155 226.5 c0 -4.9 2.3 -6.4 3.4 -2.2 1.2 4.4 0.7 6.7 -1.4 6.7 -1.7 0 -2 -0.7 -2 -4.5z"/>
  <path d="M154 209.5 c0 -4.9 2.3 -6.4 3.4 -2.2 1.2 4.4 0.7 6.7 -1.4 6.7 -1.7 0 -2 -0.7 -2 -4.5z"/>
  <path d="M172.9 209.3 c-1.1 -2.7 -2.3 -6 -2.6 -7.5 -0.5 -2.4 -0.2 -2.8 1.6 -2.8 1.7 0 2.2 0.8 2.7 4 0.4 2.2 1 4 1.5 4 0.5 0 0.9 1.6 0.9 3.5 0 4.9 -1.7 4.4 -4.1 -1.2z"/>
  <path d="M153 192 c0 -4.5 2.3 -5.7 3.4 -1.7 1.1 4.1 0.7 5.7 -1.4 5.7 -1.7 0 -2 -0.7 -2 -4z"/>
  <path d="M167.6 190.4 c-2.2 -7 -3.5 -30.4 -1.7 -30.4 0.4 0 1 6.1 1.3 13.5 0.3 7.5 0.9 14 1.4 14.5 0.6 0.6 2.3 0.6 4.4 0.1 1.9 -0.5 5.6 -1.2 8.3 -1.6 4.2 -0.6 4.7 -0.4 4.7 1.3 0 1.6 -1 2.1 -6.2 2.6 -3.5 0.4 -7.5 1 -8.9 1.3 -2 0.4 -2.8 0 -3.3 -1.3z"/>
  <path d="M226.3 190.7 c-5.1 -0.8 -6.3 -1.4 -6.3 -2.9 0 -1 0.3 -1.8 0.8 -1.8 1.4 0 13.7 2.1 15.4 2.6 1.5 0.4 1.4 -0.1 -0.5 -4.5 -1.1 -2.9 -2.4 -4.6 -2.8 -4 -0.4 0.7 -0.8 0.7 -1 0.1 -0.7 -1.8 -17.9 -12.3 -28.1 -17.2 -18.9 -8.9 -32.9 -12.8 -49 -13.7 -8.7 -0.4 -12.1 -0.3 -13.2 0.6 -0.9 0.8 -2.8 1 -4.8 0.7 -2.4 -0.4 -2.7 -0.4 -1.3 0.3 1.1 0.4 5.4 1.4 9.5 2 4.1 0.7 9.1 1.5 11 1.8 1.9 0.3 2.9 0.8 2.3 1 -2.1 0.8 -23.4 -2.7 -26.5 -4.3 -6 -3.1 0 -5.4 19.2 -7.3 24.9 -2.4 25 -2.4 25 -0.3 0 1.5 2 2.5 10.3 5.2 12.4 4 26.1 10.3 37.3 17 4.6 2.7 8.6 5 9 5 1.4 0 3.3 3.6 3.4 6.3 0 1.7 0.5 2.7 1.5 2.7 0.8 0 1.5 0.9 1.5 2 0 1.1 0.5 2 1 2 0.6 0 1 1.5 1 3.4 0 4.9 -1.9 5.4 -14.7 3.3z"/>
  <path d="M190 187.6 c0 -1.3 2.8 -2.6 5.8 -2.6 0.6 0 1.2 0.9 1.2 2 0 1.6 -0.7 2 -3.5 2 -2.3 0 -3.5 -0.5 -3.5 -1.4z"/>
  <path d="M209 187 c0 -2.1 1 -2.4 4.8 -1.4 3.6 1 2.7 3.4 -1.3 3.4 -2.8 0 -3.5 -0.4 -3.5 -2z"/>
  <path d="M152 175.5 c0 -4.9 2.3 -6.4 3.4 -2.2 1.2 4.4 0.7 6.7 -1.4 6.7 -1.7 0 -2 -0.7 -2 -4.5z"/>
  <path d="M148 160 c0 -2.1 1 -2.4 4.8 -1.4 3.6 1 2.7 3.4 -1.3 3.4 -2.8 0 -3.5 -0.4 -3.5 -2z"/>
  <path d="M139 159 c0 -2.1 1 -2.4 4.8 -1.4 3.6 1 2.7 3.4 -1.3 3.4 -2.8 0 -3.5 -0.4 -3.5 -2z"/>
  <path d="M122.8 158.3 c-2 -0.3 -2.8 -1 -2.8 -2.4 0 -2.2 0.3 -2.3 7 -0.8 3.1 0.7 5 1.6 5 2.5 0 1.4 -3 1.6 -9.2 0.7z"/>
  <path d="M275 147.5 c0 -0.8 0.8 -1.5 1.7 -1.5 1.5 0 1.4 -0.2 -0.3 -1.6 -1.7 -1.4 -1.7 -1.5 -0.1 -1 1 0.3 2.7 0.6 3.8 0.6 1.4 0 1.9 0.7 1.9 2.5 0 2.2 -0.4 2.5 -3.5 2.5 -2.4 0 -3.5 -0.5 -3.5 -1.5z"/>
  <path d="M120 146 c2.2 -1 13.7 -2.9 25.8 -4.3 2.3 -0.3 4.2 -0.1 4.2 0.4 0 0.5 -1.7 0.9 -3.7 0.9 -3.2 0 -12.4 1.3 -25.8 3.5 -2.9 0.5 -2.9 0.5 -0.5 -0.5z"/>
  <path d="M231.3 145.3 c-8.1 -0.4 -8.3 -0.5 -8.3 -2.8 0 -2.4 0.3 -2.5 6.3 -2.5 9.3 0 17.6 1.2 15.2 2.1 -1.7 0.7 -1.8 0.8 -0.2 0.8 0.9 0.1 1.7 0.8 1.7 1.6 0 1.1 -0.9 1.4 -3.2 1.3 -1.8 -0.1 -7 -0.4 -11.5 -0.5z"/>
  <path d="M251 144.5 c0 -0.8 0.8 -1.5 1.8 -1.6 1.4 0 1.4 -0.2 -0.3 -0.9 -1.8 -0.8 -1.7 -0.9 0.7 -0.9 1.4 -0.1 3.5 0.2 4.5 0.6 1.6 0.6 1.5 0.8 -0.7 1.4 -2.4 0.7 -2.4 0.7 -0.2 0.8 3.9 0.2 2.3 2.1 -1.8 2.1 -2.9 0 -4 -0.4 -4 -1.5z"/>
  <path d="M188 143.5 c0 -0.8 0.8 -1.5 1.8 -1.6 1.4 0 1.4 -0.2 -0.3 -0.9 -1.5 -0.6 -0.8 -0.9 2.8 -0.9 4.4 -0.1 4.7 0.1 4.7 2.4 0 2.3 -0.4 2.5 -4.5 2.5 -3.3 0 -4.5 -0.4 -4.5 -1.5z"/>
  <path d="M154.8 141.3 c1.2 -0.2 3.2 -0.2 4.5 0 1.2 0.2 0.2 0.4 -2.3 0.4 -2.5 0 -3.5 -0.2 -2.2 -0.4z"/>
  <path d="M163 141.1 c1.4 -1 13.9 -1.6 12.9 -0.7 -0.2 0.2 -3.5 0.7 -7.4 1.1 -5 0.4 -6.6 0.3 -5.5 -0.4z"/>
 </g>
 <g fill="#949494">
  <path d="M166.1 270.8 c4.5 -4.3 4.5 -4.3 8.3 -28 2.9 -17.8 3.6 -24.1 2.8 -25.1 -0.7 -0.7 -1.8 -3 -2.7 -5 -1.5 -3.7 -1.5 -3.7 1.1 -3.7 2.3 0 2.6 0.3 2.1 2.7 -0.3 1.5 0.1 3.9 0.8 5.4 1.2 2.3 0.9 5.5 -2.6 26.5 -3.9 23.9 -3.9 23.9 -8.2 27.6 -5.8 5.2 -7.2 4.8 -1.6 -0.4z"/>
  <path d="M129.8 268.3 c-3.3 -0.8 -2 -3.3 1.7 -3.3 2.8 0 3.5 0.4 3.5 2 0 2 -1.4 2.3 -5.2 1.3z"/>
  <path d="M157 263 c0 -4.5 2.3 -5.7 3.4 -1.7 1.1 4.1 0.7 5.7 -1.4 5.7 -1.7 0 -2 -0.7 -2 -4z"/>
  <path d="M115.3 263.4 c-6.1 -2.7 -6.8 -4.4 -1.8 -4.4 2.4 0 3.5 0.5 3.5 1.5 0 1 1.1 1.5 3.5 1.5 2.8 0 3.5 0.4 3.5 2 0 2.6 -2.1 2.5 -8.7 -0.6z"/>
  <path d="M156 246 c0 -4.5 2.3 -5.7 3.4 -1.7 1.1 4.1 0.7 5.7 -1.4 5.7 -1.7 0 -2 -0.7 -2 -4z"/>
  <path d="M94.3 235.8 c1.9 -4.6 3.7 -4.8 3.7 -0.4 0 3.2 -0.3 3.6 -2.5 3.6 -2.4 0 -2.5 -0.1 -1.2 -3.2z"/>
  <path d="M155 229 c0 -4.5 2.3 -5.7 3.4 -1.7 1.1 4.1 0.7 5.7 -1.4 5.7 -1.7 0 -2 -0.7 -2 -4z"/>
  <path d="M261 226.1 c0 -1.7 0.6 -2.1 3.4 -2.1 3.8 0 3.6 0.5 5.7 -15.2 1.1 -8.4 1.5 -9.8 3.1 -9.8 1 0 1.8 0.3 1.8 0.8 -0.1 1.9 -3.9 26.4 -4.2 26.7 -0.2 0.1 -2.4 0.6 -5 0.9 -4.4 0.7 -4.8 0.6 -4.8 -1.3z"/>
  <path d="M240.8 226.3 c-3.3 -0.8 -2 -3.3 1.7 -3.3 2.8 0 3.5 0.4 3.5 2 0 2 -1.4 2.3 -5.2 1.3z"/>
  <path d="M105 222.2 c0 -0.8 5.2 -4.2 6.4 -4.2 0.3 0 0.6 1.1 0.6 2.5 0 2.2 -0.4 2.5 -3.5 2.5 -1.9 0 -3.5 -0.4 -3.5 -0.8z"/>
  <path d="M114.2 216.8 c0.3 -0.7 1.9 -1.8 3.6 -2.5 3.1 -1.3 3.2 -1.2 3.2 1.2 0 2.2 -0.4 2.5 -3.6 2.5 -2.3 0 -3.4 -0.4 -3.2 -1.2z"/>
  <path d="M154 212 c0 -4.5 2.3 -5.7 3.4 -1.7 1.1 4.1 0.7 5.7 -1.4 5.7 -1.7 0 -2 -0.7 -2 -4z"/>
  <path d="M202.8 213.3 c-3.3 -0.8 -2 -3.3 1.7 -3.3 2.8 0 3.5 0.4 3.5 2 0 2 -1.4 2.3 -5.2 1.3z"/>
  <path d="M181 211 c0 -1.6 0.7 -2 3.5 -2 4 0 4.9 2.4 1.3 3.4 -3.8 1 -4.8 0.7 -4.8 -1.4z"/>
  <path d="M119.6 204.8 c-1 -3.8 -0.7 -4.8 1.4 -4.8 1.6 0 2 0.7 2 3.5 0 4 -2.4 4.9 -3.4 1.3z"/>
  <path d="M153 194 c0 -4.5 2.3 -5.7 3.4 -1.7 1.1 4.1 0.7 5.7 -1.4 5.7 -1.7 0 -2 -0.7 -2 -4z"/>
  <path d="M247.3 196.3 c-0.7 -0.2 -1.3 -2 -1.3 -3.8 0 -3.6 1.2 -4.5 6.1 -4.5 2.8 0 2.9 0.2 2.9 4.5 0 4.4 -0.1 4.5 -3.2 4.4 -1.8 0 -3.9 -0.3 -4.5 -0.6z"/>
  <path d="M168 190.6 c0 -1.3 2.8 -2.6 5.8 -2.6 0.6 0 1.2 0.9 1.2 2 0 1.6 -0.7 2 -3.5 2 -2.3 0 -3.5 -0.5 -3.5 -1.4z"/>
  <path d="M191 187.6 c0 -1.3 2.8 -2.6 5.8 -2.6 0.6 0 1.2 0.9 1.2 2 0 1.6 -0.7 2 -3.5 2 -2.3 0 -3.5 -0.5 -3.5 -1.4z"/>
  <path d="M208 187 c0 -2.1 1 -2.4 4.8 -1.4 3.6 1 2.7 3.4 -1.3 3.4 -2.8 0 -3.5 -0.4 -3.5 -2z"/>
  <path d="M234.6 181.4 c-2.1 -4.1 -4 -7.3 -4.3 -7 -0.3 0.2 -3.2 -1.4 -6.6 -3.6 -19.2 -12.4 -49.9 -23.6 -70.7 -25.7 -6.5 -0.6 -6.5 -0.6 4.5 -1.4 6.1 -0.4 13.1 -1 15.8 -1.3 3.5 -0.4 4.7 -0.3 4.7 0.8 0 0.8 3.1 2.2 7.8 3.6 10.2 3.1 24.7 9.5 35 15.4 4.6 2.6 8.9 4.8 9.7 4.8 1.6 0 2.5 2.2 2.5 6.6 0 3 0.3 3.4 2.5 3.4 2 0 2.5 0.5 2.5 2.5 0 1.4 0.5 2.5 1 2.5 0.6 0 1 1.6 1 3.5 0 1.9 -0.4 3.5 -0.8 3.5 -0.5 0 -2.5 -3.4 -4.6 -7.6z"/>
  <path d="M116.6 179.8 c-1 -3.8 -0.7 -4.8 1.4 -4.8 1.6 0 2 0.7 2 3.5 0 4 -2.4 4.9 -3.4 1.3z"/>
  <path d="M152 177.5 c0 -4 2.4 -4.9 3.4 -1.2 1 3.7 0.7 4.7 -1.4 4.7 -1.6 0 -2 -0.7 -2 -3.5z"/>
  <path d="M165.6 175.2 c-0.4 -1.8 -0.5 -3.6 -0.2 -3.9 1.1 -1.2 1.7 0.5 1.4 3.9 -0.3 3.3 -0.3 3.3 -1.2 0z"/>
  <path d="M115.6 171.8 c-1 -3.8 -0.7 -4.8 1.4 -4.8 1.6 0 2 0.7 2 3.5 0 4 -2.4 4.9 -3.4 1.3z"/>
  <path d="M165 163.8 c0 -6.3 -0.1 -6.7 -2.7 -7.6 -2.8 -1 -2.8 -1 -0.3 -1.1 4.5 -0.1 5.2 1.1 4.6 7.9 -0.8 8.5 -1.6 8.9 -1.6 0.8z"/>
  <path d="M151 161.5 c0 -1.8 0.5 -2.5 2 -2.5 1.5 0 2 0.7 2 2.5 0 1.8 -0.5 2.5 -2 2.5 -1.5 0 -2 -0.7 -2 -2.5z"/>
  <path d="M152.5 155 c-2 -0.9 -2 -0.9 0 -0.9 1.1 0 2.9 0.4 4 0.9 2 0.9 2 0.9 0 0.9 -1.1 0 -2.9 -0.4 -4 -0.9z"/>
  <path d="M278.2 152 c0.3 -3.8 0.2 -4 -2.4 -4 -3.9 0 -3.5 -2 0.5 -2.1 3.2 -0.1 3.2 -0.1 -0.3 -1.5 -3.5 -1.4 -3.5 -1.4 1 -0.8 5.5 0.8 5.9 1 5.5 3.2 -0.2 0.9 -0.7 3.4 -1 5.5 -0.4 2.4 -1.1 3.7 -2.2 3.7 -1.2 0 -1.4 -0.9 -1.1 -4z"/>
  <path d="M131.7 151.4 c-1.5 -0.8 -2.5 -1.9 -2.2 -2.4 0.8 -1.3 7.3 -3.2 8.8 -2.7 0.6 0.3 0.3 0.6 -0.8 0.7 -1.1 0 -3.1 0.7 -4.4 1.4 -2.4 1.3 -2.4 1.3 2 2.9 3.3 1.2 3.8 1.6 1.9 1.6 -1.4 0 -3.8 -0.7 -5.3 -1.5z"/>
  <path d="M251 144.9 c0 -1.9 0.4 -2 4.3 -1.4 2.3 0.4 4.4 0.9 4.7 1.2 0.9 0.9 -2.6 2.3 -5.7 2.3 -2.7 0 -3.3 -0.4 -3.3 -2.1z"/>
  <path d="M264 146 c0 -0.5 1.6 -1 3.5 -1 1.9 0 3.5 0.5 3.5 1 0 0.6 -1.6 1 -3.5 1 -1.9 0 -3.5 -0.4 -3.5 -1z"/>
  <path d="M141.3 145.3 c0.9 -0.2 2.5 -0.2 3.5 0 0.9 0.3 0.1 0.5 -1.8 0.5 -1.9 0 -2.7 -0.2 -1.7 -0.5z"/>
  <path d="M235.8 145.3 c-3.1 -0.5 -3.9 -3.3 -1 -3.4 1.4 0 1.4 -0.2 -0.3 -0.9 -2.6 -1.1 -0.5 -1.2 6.1 -0.3 3.6 0.5 4.3 0.8 2.9 1.4 -1.7 0.7 -1.8 0.8 -0.2 0.8 0.9 0.1 1.7 0.8 1.7 1.6 0 1.5 -2.9 1.8 -9.2 0.8z"/>
  <path d="M131.5 144 c0.3 -0.4 5.5 -1.2 11.7 -1.8 17.4 -1.7 25.5 -2.1 23.3 -1.3 -1.1 0.5 -7.2 1.1 -13.6 1.5 -6.3 0.4 -13.8 1 -16.7 1.5 -2.8 0.4 -4.9 0.5 -4.7 0.1z"/>
  <path d="M191 143.5 c0 -0.8 0.8 -1.5 1.8 -1.6 1.4 0 1.4 -0.2 -0.3 -0.9 -1.4 -0.6 0.1 -0.9 4.8 -0.9 6.5 -0.1 6.7 0 6.7 2.4 0 2.4 -0.2 2.5 -6.5 2.5 -5.1 0 -6.5 -0.3 -6.5 -1.5z"/>
  <path d="M220 142.5 c0 -2.4 0.2 -2.5 6.3 -2.4 4.4 0 5.6 0.3 4.2 0.9 -1.7 0.7 -1.7 0.9 -0.2 0.9 0.9 0.1 1.7 0.8 1.7 1.6 0 1.2 -1.3 1.5 -6 1.5 -5.7 0 -6 -0.1 -6 -2.5z"/>
  <path d="M265.5 143 c-2 -0.9 -2 -0.9 0 -0.9 1.1 0 2.9 0.4 4 0.9 2 0.9 2 0.9 0 0.9 -1.1 0 -2.9 -0.4 -4 -0.9z"/>
  <path d="M253.5 142 c-3 -0.8 -3 -0.8 0 -0.8 1.7 0 3.9 0.3 5 0.8 2 0.9 2 0.9 0 0.8 -1.1 0 -3.3 -0.4 -5 -0.8z"/>
  <path d="M171.8 140.3 c1.2 -0.2 3.2 -0.2 4.5 0 1.2 0.2 0.2 0.4 -2.3 0.4 -2.5 0 -3.5 -0.2 -2.2 -0.4z"/>
 </g>
 <g fill="#8c8c8c">
  <path d="M159.3 276.3 c-1.8 -0.7 -1.6 -3.3 0.2 -3.3 0.8 0 1.5 0.5 1.5 1.2 0 0.9 0.3 0.9 1.2 0 2 -2 3.2 -1.3 1.3 0.8 -1.9 2.1 -2.2 2.2 -4.2 1.3z"/>
  <path d="M146.8 272.8 c-4.2 -1.1 -5.2 -3.8 -1.4 -3.8 5.2 0 8.6 1.2 8.6 3.1 0 2.1 -1.4 2.2 -7.2 0.7z"/>
  <path d="M133.8 269.3 c-3.3 -0.8 -2 -3.3 1.7 -3.3 2.8 0 3.5 0.4 3.5 2 0 2 -1.4 2.3 -5.2 1.3z"/>
  <path d="M157 265 c0 -4.5 2.3 -5.7 3.4 -1.7 1.1 4.1 0.7 5.7 -1.4 5.7 -1.7 0 -2 -0.7 -2 -4z"/>
  <path d="M122.8 266.3 c-3.3 -0.8 -2 -3.3 1.7 -3.3 2.8 0 3.5 0.4 3.5 2 0 2 -1.4 2.3 -5.2 1.3z"/>
  <path d="M171.1 262.3 c0 -1 0.4 -2.7 0.9 -3.8 0.7 -1.7 0.9 -1.5 0.9 1.2 0.1 1.7 -0.3 3.5 -0.9 3.8 -0.5 0.3 -1 -0.2 -0.9 -1.2z"/>
  <path d="M156 248 c0 -4.5 2.3 -5.7 3.4 -1.7 1.1 4.1 0.7 5.7 -1.4 5.7 -1.7 0 -2 -0.7 -2 -4z"/>
  <path d="M95.7 232.1 c0.3 -1.1 1.4 -2.7 2.4 -3.7 1.8 -1.7 1.9 -1.6 1.9 1.9 0 3.2 -0.3 3.7 -2.4 3.7 -1.9 0 -2.3 -0.4 -1.9 -1.9z"/>
  <path d="M155 230.5 c0 -4 2.4 -4.9 3.4 -1.2 1 3.7 0.7 4.7 -1.4 4.7 -1.6 0 -2 -0.7 -2 -3.5z"/>
  <path d="M257.7 227.3 c-1.4 -0.3 -1.7 -1.1 -1.3 -2.6 0.3 -1.2 0.6 -2.8 0.6 -3.4 0 -0.8 1.4 -1.3 3.4 -1.3 1.9 0 3.6 0.6 3.9 1.3 0.9 2.3 1.6 -1.7 6 -32.3 4.3 -30.5 4.3 -30.5 1 -30.8 -3.1 -0.3 -3.3 -0.5 -3.3 -4.3 0 -3.8 0.1 -3.9 3.4 -3.9 1.9 0 3.7 0.6 3.9 1.3 0.3 0.6 0.6 -0.3 0.6 -2 0.1 -2.4 0.6 -3.3 1.9 -3.3 1.4 0 1.5 -0.2 0.2 -1 -1.2 -0.8 -0.9 -1 1.3 -1 2.3 0 2.7 0.4 2.7 2.8 0 2.9 -10.8 79.3 -11.2 79.7 -0.7 0.6 -11.5 1.3 -13.1 0.8z"/>
  <path d="M241.8 226.3 c-3.3 -0.8 -2 -3.3 1.7 -3.3 2.8 0 3.5 0.4 3.5 2 0 2 -1.4 2.3 -5.2 1.3z"/>
  <path d="M230.3 223.1 c-4.3 -2.1 -4.2 -4.1 0.2 -4.1 3.2 0 3.5 0.2 3.5 3 0 1.7 -0.1 2.9 -0.2 2.9 -0.2 -0.1 -1.8 -0.9 -3.5 -1.8z"/>
  <path d="M110 219.2 c0 -0.8 5.2 -4.2 6.4 -4.2 0.3 0 0.6 1.1 0.6 2.5 0 2.2 -0.4 2.5 -3.5 2.5 -1.9 0 -3.5 -0.4 -3.5 -0.8z"/>
  <path d="M176.8 216.8 c-2.9 -4.5 -2.9 -5.8 -0.3 -5.8 2.5 0 3.4 1.5 1.4 2.2 -0.9 0.3 -0.9 1 0 2.7 1.7 3 0.8 3.8 -1.1 0.9z"/>
  <path d="M217.3 216.7 c-7 -2.4 -8.3 -4.7 -2.8 -4.7 1.9 0 3.5 0.5 3.5 1 0 0.6 1.4 1 3 1 2.5 0 3 0.4 3 2.5 0 1.4 -0.1 2.4 -0.2 2.4 -0.2 -0.1 -3.1 -1.1 -6.5 -2.2z"/>
  <path d="M154 214 c0 -4.5 2.3 -5.7 3.4 -1.7 1.1 4.1 0.7 5.7 -1.4 5.7 -1.7 0 -2 -0.7 -2 -4z"/>
  <path d="M119.7 213.8 c0.4 -0.7 0.6 -2.3 0.4 -3.5 -0.2 -1.8 0.3 -2.3 1.8 -2.3 1.7 0 2.1 0.6 2.1 3.5 0 3.1 -0.3 3.5 -2.6 3.5 -1.8 0 -2.3 -0.4 -1.7 -1.2z"/>
  <path d="M253 207 c-0.7 -3.9 -2.2 -8 -3.2 -9.2 -2 -2.4 -2.4 -7.8 -0.6 -9.6 0.7 -0.7 2.6 -1.2 4.3 -1.2 3 0 3 0 5.3 11.8 3 15.3 3 15.2 -1.1 15.2 -3.4 0 -3.4 0 -4.7 -7z"/>
  <path d="M180 211 c0 -1.6 0.7 -2 3.5 -2 4 0 4.9 2.4 1.3 3.4 -3.8 1 -4.8 0.7 -4.8 -1.4z"/>
  <path d="M191.8 212.3 c-1 -0.2 -1.8 -1.1 -1.8 -1.9 0 -1 1.3 -1.4 5 -1.4 4.3 0 5 0.3 5 2 0 1.6 -0.6 2 -3.2 1.9 -1.8 -0.1 -4.1 -0.3 -5 -0.6z"/>
  <path d="M168.7 195.3 c-2.1 -9.3 -3 -16.4 -1.8 -13.8 0.5 1.1 1 3.2 1 4.8 0.1 1.7 0.7 2.7 1.6 2.7 0.8 0 1.9 1.6 2.4 3.8 1.5 5.3 1.4 9.2 -0.3 9.2 -1 0 -1.9 -2.3 -2.9 -6.7z"/>
  <path d="M153 196 c0 -4.5 2.3 -5.7 3.4 -1.7 1.1 4.1 0.7 5.7 -1.4 5.7 -1.7 0 -2 -0.7 -2 -4z"/>
  <path d="M118.6 195.8 c-1 -3.8 -0.7 -4.8 1.4 -4.8 1.6 0 2 0.7 2 3.5 0 4 -2.4 4.9 -3.4 1.3z"/>
  <path d="M225.3 190.7 c-5.2 -0.9 -6.3 -1.4 -6.3 -3 0 -1.6 0.5 -1.8 4.3 -1.2 10.9 1.6 14.7 2.7 14.7 4.1 0 1.6 -3.1 1.6 -12.7 0.1z"/>
  <path d="M117.6 187.8 c-1 -3.8 -0.7 -4.8 1.4 -4.8 1.6 0 2 0.7 2 3.5 0 4 -2.4 4.9 -3.4 1.3z"/>
  <path d="M207 187 c0 -2.1 1 -2.4 4.8 -1.4 3.6 1 2.7 3.4 -1.3 3.4 -2.8 0 -3.5 -0.4 -3.5 -2z"/>
  <path d="M152 179 c0 -4.5 2.3 -5.7 3.4 -1.7 1.1 4.1 0.7 5.7 -1.4 5.7 -1.7 0 -2 -0.7 -2 -4z"/>
  <path d="M231.9 176.3 c-1.9 -3.2 -3.9 -5.9 -4.5 -6 -0.6 -0.1 -4.8 -2.4 -9.5 -5 -13.7 -7.9 -33.9 -16 -46.6 -18.8 -1.8 -0.3 -3.3 -1.1 -3.3 -1.6 0 -0.5 -2.1 -1 -4.7 -1 -2.7 -0.1 -0.1 -0.5 5.6 -0.9 10.1 -0.7 10.7 -0.7 20.4 2.6 9.9 3.3 34.7 14.6 37.8 17.1 0.8 0.7 2 1.3 2.6 1.3 1.1 0 3.3 4.3 3.3 6.5 0 0.8 0.5 1.5 1 1.5 0.6 0 1 0.7 1 1.5 0 0.8 0.5 1.5 1 1.5 0.6 0 1 1.6 1 3.5 0 1.9 -0.4 3.5 -0.8 3.5 -0.5 0 -2.4 -2.6 -4.3 -5.7z"/>
  <path d="M165.8 175 c-0.4 -1.4 -0.8 -3.8 -0.7 -5.5 0 -3 0 -3 1 -0.5 0.6 1.3 0.9 3.8 0.7 5.5 -0.3 2.9 -0.3 3 -1 0.5z"/>
  <path d="M264 172.3 c0 -5.8 1 -7.3 4.6 -7.3 3 0 3.4 0.3 3.4 2.8 0 5.7 -1 7.2 -4.6 7.2 -3 0 -3.4 -0.3 -3.4 -2.7z"/>
  <path d="M151 162.5 c0 -2.7 0.4 -3.5 1.8 -3.5 1.3 0 1.9 0.9 2 3.5 0.2 2.9 -0.1 3.5 -1.8 3.5 -1.6 0 -2 -0.6 -2 -3.5z"/>
  <path d="M114.6 162.8 c-1 -3.8 -0.7 -4.8 1.4 -4.8 1.6 0 2 0.7 2 3.5 0 4 -2.4 4.9 -3.4 1.3z"/>
  <path d="M164.9 160 c-0.3 -2.6 -1 -3.6 -2.9 -4.1 -2.1 -0.6 -2.2 -0.7 -0.4 -0.8 1.1 -0.1 2.8 0.5 3.8 1.2 1.6 1.1 1.7 1.9 0.9 4.3 -1.1 2.9 -1.1 2.9 -1.4 -0.6z"/>
  <path d="M138 159 c0 -2.1 1 -2.4 4.8 -1.4 3.6 1 2.7 3.4 -1.3 3.4 -2.8 0 -3.5 -0.4 -3.5 -2z"/>
  <path d="M113.5 153.9 c-0.7 -3.1 1.5 -6.9 3.9 -6.9 0.6 0 0.3 0.5 -0.6 1.1 -2.2 1.2 -2.3 3.5 -0.4 4.2 1.8 0.7 0.9 4.7 -0.9 4.7 -0.8 0 -1.6 -1.4 -2 -3.1z"/>
  <path d="M152 155 c-2 -0.6 -2.1 -0.8 -0.5 -0.8 1.1 0 3.1 0.4 4.5 0.8 2 0.6 2.1 0.8 0.5 0.8 -1.1 0 -3.1 -0.4 -4.5 -0.8z"/>
  <path d="M141.2 153.8 c-2.4 -0.5 -4.2 -1.2 -3.9 -1.5 0.6 -0.5 11.7 1.6 11.7 2.3 0 0.6 -2.9 0.3 -7.8 -0.8z"/>
  <path d="M130.5 150.6 c-1.8 -1.3 -1.8 -1.4 0.3 -2.5 2.7 -1.4 4.3 -1.4 1.8 0.1 -1.8 1 -1.8 1.1 0.5 2.4 1.6 0.9 1.9 1.3 0.8 1.4 -0.8 0 -2.4 -0.6 -3.4 -1.4z"/>
  <path d="M263.8 148.3 c-2.1 -0.2 -3.8 -0.8 -3.8 -1.3 0 -0.5 -2.2 -0.6 -5 -0.3 -4.7 0.5 -5 0.4 -5 -1.6 0 -2 0.4 -2.2 4.3 -1.7 2.3 0.3 6.5 0.8 9.2 1.1 8.3 1 10.5 1.6 10.5 3.1 0 1.4 -1.9 1.5 -10.2 0.7z"/>
  <path d="M122.1 145.6 c0.6 -0.6 7.5 -1.9 16.4 -3.1 2.8 -0.4 4.8 -0.4 4.5 -0.1 -0.3 0.2 -3.7 1 -7.5 1.5 -3.9 0.6 -8.6 1.4 -10.5 1.7 -1.9 0.3 -3.2 0.3 -2.9 0z"/>
  <path d="M234.3 144.7 c-4.4 -1.5 -4.2 -2.7 0.5 -2.8 3.7 -0.2 3.7 -0.2 0.2 -0.9 -2.9 -0.6 -2.6 -0.7 1.5 -0.4 2.8 0.2 6.1 0.4 7.5 0.5 2.3 0.1 2.3 0.2 -0.5 0.9 -3 0.8 -3 0.8 -0.2 0.9 3 0.1 3.6 1.5 1.1 2.5 -2.2 0.8 -6.3 0.5 -10.1 -0.7z"/>
  <path d="M198 143.5 c0 -0.8 0.8 -1.5 1.8 -1.6 1.4 0 1.4 -0.2 -0.3 -0.9 -1.2 -0.5 3.5 -0.9 12.5 -0.9 9 0 13.7 0.4 12.5 0.9 -1.7 0.7 -1.7 0.9 -0.2 0.9 0.9 0.1 1.7 0.8 1.7 1.6 0 1.3 -2.2 1.5 -14 1.5 -11.8 0 -14 -0.2 -14 -1.5z"/>
  <path d="M269.3 143.3 c0.9 -0.2 2.5 -0.2 3.5 0 0.9 0.3 0.1 0.5 -1.8 0.5 -1.9 0 -2.7 -0.2 -1.7 -0.5z"/>
  <path d="M259.3 142.3 c1.5 -0.2 3.9 -0.2 5.5 0 1.5 0.2 0.2 0.4 -2.8 0.4 -3 0 -4.3 -0.2 -2.7 -0.4z"/>
  <path d="M153.3 141.3 c2 -0.2 5.4 -0.2 7.5 0 2 0.2 0.3 0.4 -3.8 0.4 -4.1 0 -5.8 -0.2 -3.7 -0.4z"/>
  <path d="M166.3 140.3 c0.9 -0.2 2.5 -0.2 3.5 0 0.9 0.3 0.1 0.5 -1.8 0.5 -1.9 0 -2.7 -0.2 -1.7 -0.5z"/>
  <path d="M173.8 140.3 c1.2 -0.2 3 -0.2 4 0 0.9 0.3 -0.1 0.5 -2.3 0.4 -2.2 0 -3 -0.2 -1.7 -0.4z"/>
 </g>
 <g fill="#848484">
  <path d="M157.3 275.7 c-4.5 -1.3 -4.3 -3.7 0.2 -3.7 2.5 0 3.5 0.4 3.5 1.6 0 1.1 0.9 0.9 3.8 -1.3 3.7 -2.7 3.7 -2.7 1.2 0.1 -3.5 3.9 -5 4.4 -8.7 3.3z"/>
  <path d="M137.8 270.3 c-3.3 -0.8 -2 -3.3 1.7 -3.3 2.8 0 3.5 0.4 3.5 2 0 2 -1.4 2.3 -5.2 1.3z"/>
  <path d="M157 266.5 c0 -4 2.4 -4.9 3.4 -1.2 1 3.7 0.7 4.7 -1.4 4.7 -1.6 0 -2 -0.7 -2 -3.5z"/>
  <path d="M126.8 267.3 c-3.3 -0.8 -2 -3.3 1.7 -3.3 2.8 0 3.5 0.4 3.5 2 0 2 -1.4 2.3 -5.2 1.3z"/>
  <path d="M171 264.9 c0 -2.7 6.9 -42.1 7.5 -42.7 0.9 -0.9 0.6 1.8 -3 22.7 -3 17.8 -4.5 24.7 -4.5 20z"/>
  <path d="M111.3 261.5 c-4.3 -1.8 -4.2 -3.5 0.2 -3.5 3.1 0 3.5 0.3 3.5 2.5 0 1.4 -0.1 2.5 -0.2 2.5 -0.2 -0.1 -1.8 -0.7 -3.5 -1.5z"/>
  <path d="M156 249.5 c0 -4 2.4 -4.9 3.4 -1.2 1 3.7 0.7 4.7 -1.4 4.7 -1.6 0 -2 -0.7 -2 -3.5z"/>
  <path d="M94.1 243.5 c-1.1 -4.5 -0.3 -8.5 1.8 -8.5 0.8 0 2.1 7 2.1 11.1 0 3.8 -2.8 1.9 -3.9 -2.6z"/>
  <path d="M155 232 c0 -4.5 2.3 -5.7 3.4 -1.7 1.1 4.1 0.7 5.7 -1.4 5.7 -1.7 0 -2 -0.7 -2 -4z"/>
  <path d="M258.8 227.3 c-1.9 -0.5 -1.9 -0.4 -4.8 -13.8 -2.9 -13.6 -3.9 -16.5 -5.6 -16.5 -1 0 -1.4 -1.2 -1.4 -4.3 0 -3.8 0.3 -4.4 3.3 -5.9 1.7 -0.9 3.9 -1.8 4.8 -2.1 3.7 -1.2 12.9 -26 12.9 -34.9 0 -2.3 -0.5 -2.8 -3.7 -3.5 -2.1 -0.4 -9.3 -0.7 -16 -0.7 -6.8 0 -12.3 -0.4 -12.3 -0.8 0 -0.4 -2.5 -0.8 -5.5 -0.8 -3.5 0 -5.5 -0.4 -5.5 -1.1 0 -1.3 18.1 -0.6 33.3 1.2 15.9 1.9 21.3 2.1 19.7 1 -1.2 -0.9 -1.1 -1.1 0.8 -1.1 1.2 0 2.5 0.7 2.8 1.5 0.5 1.3 -10.1 80.4 -10.8 81 -0.7 0.5 -10.4 1.2 -12 0.8z m11.2 -5.8 c0 -1.9 -0.2 -3.5 -0.4 -3.5 -0.2 0 -0.6 1.6 -0.8 3.5 -0.2 1.9 0 3.5 0.4 3.5 0.4 0 0.8 -1.6 0.8 -3.5z m1.7 -16.2 c-0.3 -1 -0.5 -0.2 -0.5 1.7 0 1.9 0.2 2.7 0.5 1.8 0.2 -1 0.2 -2.6 0 -3.5z m1 -7 c-0.3 -1 -0.5 -0.2 -0.5 1.7 0 1.9 0.2 2.7 0.5 1.8 0.2 -1 0.2 -2.6 0 -3.5z m1 -7 c-0.3 -1 -0.5 -0.2 -0.5 1.7 0 1.9 0.2 2.7 0.5 1.8 0.2 -1 0.2 -2.6 0 -3.5z m-19.7 1.2 c0 -2.3 -0.2 -2.4 -2.5 -1.3 -2.3 1 -2.3 1.2 -0.7 2.4 2.5 1.9 3.2 1.7 3.2 -1.1z m20.7 -8.2 c-0.3 -1 -0.5 -0.2 -0.5 1.7 0 1.9 0.2 2.7 0.5 1.8 0.2 -1 0.2 -2.6 0 -3.5z m1 -7 c-0.3 -1 -0.5 -0.2 -0.5 1.7 0 1.9 0.2 2.7 0.5 1.8 0.2 -1 0.2 -2.6 0 -3.5z m1 -7 c-0.3 -1 -0.5 -0.2 -0.5 1.7 0 1.9 0.2 2.7 0.5 1.8 0.2 -1 0.2 -2.6 0 -3.5z m2 -14 c-0.3 -1 -0.5 -0.2 -0.5 1.7 0 1.9 0.2 2.7 0.5 1.8 0.2 -1 0.2 -2.6 0 -3.5z"/>
  <path d="M242.8 226.3 c-3.6 -0.9 -2 -3.3 2.2 -3.3 3.3 0 4 0.3 4 2 0 2 -2 2.4 -6.2 1.3z"/>
  <path d="M104.3 222.5 c3.6 -3.2 4.7 -3.1 4.7 0 0 2.2 -0.4 2.5 -3.7 2.5 -3.8 -0.1 -3.8 -0.1 -1 -2.5z"/>
  <path d="M223.8 219.5 c-1.6 -1.3 -2.8 -2.7 -2.8 -3 0 -0.3 1.6 -0.5 3.5 -0.5 3.2 0 3.5 0.2 3.5 3 0 3.6 -0.7 3.7 -4.2 0.5z"/>
  <path d="M154 215.5 c0 -4 2.4 -4.9 3.4 -1.2 1 3.7 0.7 4.7 -1.4 4.7 -1.6 0 -2 -0.7 -2 -3.5z"/>
  <path d="M206.3 213.8 c-4.6 -1 -6.1 -3.8 -2 -3.8 5.8 0 9.7 1.3 9.7 3.1 0 2.1 -1.2 2.2 -7.7 0.7z"/>
  <path d="M120.3 210.5 c-0.3 -2.9 0 -3.5 1.7 -3.5 1.6 0 2 0.7 2 3.5 0 2.7 -0.4 3.5 -1.7 3.5 -1.3 0 -1.9 -0.9 -2 -3.5z"/>
  <path d="M173.6 210.1 c-0.3 -0.4 -1 -2 -1.5 -3.5 -1 -2.4 -0.8 -2.6 1.4 -2.6 2.2 0 2.5 0.4 2.5 3.5 0 3.3 -1.2 4.6 -2.4 2.6z"/>
  <path d="M119.6 203.8 c-1 -3.8 -0.7 -4.8 1.4 -4.8 1.6 0 2 0.7 2 3.5 0 4 -2.4 4.9 -3.4 1.3z"/>
  <path d="M153 198 c0 -4.5 2.3 -5.7 3.4 -1.7 1.1 4.1 0.7 5.7 -1.4 5.7 -1.7 0 -2 -0.7 -2 -4z"/>
  <path d="M173 189.6 c0 -1.4 1.4 -1.9 9.8 -3.1 3.7 -0.6 4.2 -0.5 4.2 1.3 0 1.6 -0.9 2 -5.2 2.6 -7.6 0.9 -8.8 0.8 -8.8 -0.8z"/>
  <path d="M225 189 c0 -2.1 1 -2.4 4.8 -1.4 3.6 1 2.7 3.4 -1.3 3.4 -2.8 0 -3.5 -0.4 -3.5 -2z"/>
  <path d="M192 187.6 c0 -1.3 2.8 -2.6 5.8 -2.6 0.6 0 1.2 0.9 1.2 2 0 1.6 -0.7 2 -3.5 2 -2.3 0 -3.5 -0.5 -3.5 -1.4z"/>
  <path d="M206 187 c0 -2.1 1 -2.4 4.8 -1.4 3.6 1 2.7 3.4 -1.3 3.4 -2.8 0 -3.5 -0.4 -3.5 -2z"/>
  <path d="M236.6 185.1 c-0.3 -0.4 -1 -2 -1.5 -3.5 -1 -2.4 -0.8 -2.6 1.4 -2.6 2.2 0 2.5 0.4 2.5 3.5 0 3.3 -1.2 4.6 -2.4 2.6z"/>
  <path d="M152 181 c0 -4.5 2.3 -5.7 3.4 -1.7 1.1 4.1 0.7 5.7 -1.4 5.7 -1.7 0 -2 -0.7 -2 -4z"/>
  <path d="M116.6 178.8 c-1 -3.8 -0.7 -4.8 1.4 -4.8 1.6 0 2 0.7 2 3.5 0 4 -2.4 4.9 -3.4 1.3z"/>
  <path d="M229.9 172 c-1.2 -2.7 -2.8 -5 -3.5 -5 -0.6 0 -1.7 -0.7 -2.4 -1.5 -0.6 -0.8 -1.5 -1.4 -1.8 -1.3 -0.4 0.1 -6.3 -2.6 -13.2 -6 -16.3 -8 -34.3 -14.2 -41.2 -14.2 -2.8 0 -4.9 -0.2 -4.7 -0.4 0.5 -0.5 19.6 -1.5 35.4 -1.8 10 -0.2 10 -0.2 -0.5 -0.8 -10.5 -0.6 -10.5 -0.6 4.5 -0.7 9.1 -0.1 14.2 0.2 13 0.7 -1.7 0.7 -1.7 0.9 -0.2 0.9 0.9 0.1 1.7 0.8 1.7 1.7 0 1.4 -1.4 1.6 -12.2 1 -11.6 -0.6 -12.1 -0.5 -8.4 0.9 2.1 0.8 8.9 4 15.2 7 6.3 3 11.8 5.5 12.4 5.5 0.5 0 1.2 1.1 1.6 2.5 0.3 1.4 1.3 2.5 2.1 2.5 2.1 0 4.3 2.5 4.3 4.9 0 1.2 0.5 2.1 1 2.1 0.6 0 1 1.6 1 3.5 0 4.9 -1.4 4.4 -4.1 -1.5z"/>
  <path d="M165.4 172.6 c-0.3 -2.1 -0.4 -3.9 -0.1 -4.2 0.2 -0.3 0.8 1.1 1.1 3.2 0.4 2 0.5 3.8 0.2 4.1 -0.2 0.3 -0.8 -1.1 -1.2 -3.1z"/>
  <path d="M115.6 170.8 c-1 -3.8 -0.7 -4.8 1.4 -4.8 1.6 0 2 0.7 2 3.5 0 4 -2.4 4.9 -3.4 1.3z"/>
  <path d="M151 165 c0 -2.3 -0.4 -3 -2 -3 -1.4 0 -2 -0.7 -2 -2.1 0 -1.9 0.4 -2.1 3.2 -1.5 3.9 0.8 3.6 0.4 4.4 5.4 0.6 3.8 0.5 4.2 -1.5 4.2 -1.7 0 -2.1 -0.6 -2.1 -3z"/>
  <path d="M164.8 159.2 c-0.2 -1.8 -0.1 -3.2 0.3 -3.2 1.5 0 1.9 1.8 1 4.1 -0.8 2.2 -0.8 2.2 -1.3 -0.9z"/>
  <path d="M126.8 159.3 c-2 -0.3 -2.8 -1 -2.8 -2.4 0 -2.2 0.3 -2.3 7 -0.8 3.1 0.7 5 1.6 5 2.5 0 1.4 -3 1.6 -9.2 0.7z"/>
  <path d="M113.6 153.4 c-0.4 -1.6 -0.2 -3.2 0.6 -4.2 1.6 -1.8 7 -4.2 9.5 -4.1 1 0 -0.3 0.7 -2.8 1.5 -5.4 1.6 -8 4 -5.5 5 2 0.8 2.1 4.4 0.2 4.4 -0.8 0 -1.7 -1.2 -2 -2.6z"/>
  <path d="M156.8 155.3 c1.2 -0.2 3.2 -0.2 4.5 0 1.2 0.2 0.2 0.4 -2.3 0.4 -2.5 0 -3.5 -0.2 -2.2 -0.4z"/>
  <path d="M138.5 153 c-2.5 -1.1 0.1 -1.1 3.5 0 2 0.6 2.1 0.8 0.5 0.8 -1.1 0 -2.9 -0.3 -4 -0.8z"/>
  <path d="M130.4 150.5 c-1 -0.8 -1.4 -1.5 -0.8 -1.5 0.5 0 1.9 0.7 3 1.5 1 0.8 1.4 1.5 0.8 1.5 -0.5 0 -1.9 -0.7 -3 -1.5z"/>
  <path d="M269.8 143.3 c1.2 -0.2 3.2 -0.2 4.5 0 1.2 0.2 0.2 0.4 -2.3 0.4 -2.5 0 -3.5 -0.2 -2.2 -0.4z"/>
  <path d="M259.8 142.3 c1.2 -0.2 3.2 -0.2 4.5 0 1.2 0.2 0.2 0.4 -2.3 0.4 -2.5 0 -3.5 -0.2 -2.2 -0.4z"/>
  <path d="M245.8 141.3 c1.8 -0.2 4.5 -0.2 6 0 1.5 0.2 0 0.4 -3.3 0.4 -3.3 0 -4.5 -0.2 -2.7 -0.4z"/>
  <path d="M171.8 140.3 c2.3 -0.2 6.1 -0.2 8.5 0 2.3 0.2 0.4 0.4 -4.3 0.4 -4.7 0 -6.6 -0.2 -4.2 -0.4z"/>
  <path d="M227.3 140.3 c1.5 -0.2 3.7 -0.2 5 0 1.2 0.2 0 0.4 -2.8 0.4 -2.7 0 -3.8 -0.2 -2.2 -0.4z"/>
 </g>
 <g fill="#7b7b7b">
  <path d="M159.6 275.8 c-1.3 -4.1 -1.4 -4.3 -1.5 -2.5 -0.1 1.8 -1.2 2.1 -4.8 1.1 -3.4 -0.9 -2.9 -3.4 0.7 -3.4 2.8 0 3 -0.3 3 -3.5 0 -2.4 0.5 -3.5 1.5 -3.5 1.3 0 2 2.1 2.7 8.9 0.3 2.2 0.5 2.2 5.1 -1.9 3.3 -2.9 4.7 -5 4.8 -6.8 0 -1.5 0.5 -3.6 1 -4.7 0.6 -1.4 0.7 -0.4 0.3 3 -0.5 4.3 -1.2 5.6 -4.7 8.8 -5.6 5 -7.6 6.1 -8.1 4.5z"/>
  <path d="M141.8 271.3 c-3.3 -0.8 -2 -3.3 1.7 -3.3 2.8 0 3.5 0.4 3.5 2 0 2 -1.4 2.3 -5.2 1.3z"/>
  <path d="M109.3 260.5 c-4.3 -1.8 -4.2 -3.5 0.2 -3.5 3.1 0 3.5 0.3 3.5 2.5 0 1.4 -0.1 2.5 -0.2 2.5 -0.2 -0.1 -1.8 -0.7 -3.5 -1.5z"/>
  <path d="M156 251 c0 -4.5 2.3 -5.7 3.4 -1.7 1.1 4.1 0.7 5.7 -1.4 5.7 -1.7 0 -2 -0.7 -2 -4z"/>
  <path d="M96.7 250.2 c-2.3 -2.6 -2.2 -5.2 0.3 -5.2 1.6 0 2 0.7 2 3.5 0 4 -0.1 4.1 -2.3 1.7z"/>
  <path d="M175.3 239.3 c0.4 -1.7 1.2 -6.9 1.8 -11.5 1.2 -7.9 1.1 -8.5 -1 -12.6 -1.2 -2.4 -2.1 -4.6 -1.9 -4.8 0.2 -0.2 3 -0.6 6.1 -1 4.7 -0.6 5.7 -0.4 5.7 0.8 0 1.6 -2.8 2.8 -6.7 2.8 -2.7 0 -2.9 1.2 -0.9 4.3 1.3 1.9 1.2 3.6 -0.4 13.1 -1.1 6 -2.2 11.1 -2.6 11.5 -0.4 0.3 -0.4 -0.8 -0.1 -2.6z"/>
  <path d="M155 233.5 c0 -4 2.4 -4.9 3.4 -1.2 1 3.7 0.7 4.7 -1.4 4.7 -1.6 0 -2 -0.7 -2 -3.5z"/>
  <path d="M258.4 226.7 c-1.6 -0.8 -2.5 -3.5 -4.7 -13.6 -3.1 -14.3 -3.3 -17.1 -1.3 -17.1 1.4 0 2 2.2 6.2 21.8 1.6 7.7 1.9 8.2 4.3 8.2 6.8 0 6.4 1.1 10.1 -25.6 1.9 -13.4 3.8 -24.4 4.2 -24.4 1 0 1.4 -3.5 -2.6 24.9 -1.9 13.4 -3.8 24.7 -4.3 25.1 -1.4 1.3 -9.7 1.7 -11.9 0.7z"/>
  <path d="M244.8 226.3 c-3.3 -0.8 -2 -3.3 1.7 -3.3 2.8 0 3.5 0.4 3.5 2 0 2 -1.4 2.3 -5.2 1.3z"/>
  <path d="M232.5 224 c-1 -1.1 -2.8 -2 -3.9 -2 -1.2 0 -3.2 -1.2 -4.5 -2.5 -2.3 -2.5 -2.3 -2.5 1.4 -2.5 2.8 0 3.8 0.5 4.2 2 0.4 1.5 1.4 2 3.9 2 3 0 3.4 0.3 3.4 2.5 0 3 -2 3.3 -4.5 0.5z"/>
  <path d="M107 221.2 c0 -0.8 6.6 -4.9 10.2 -6.4 1.4 -0.6 1.8 -0.2 1.8 1.7 0 2 -0.5 2.5 -2.5 2.5 -1.6 0 -2.5 0.6 -2.5 1.5 0 1 -1.1 1.5 -3.5 1.5 -1.9 0 -3.5 -0.4 -3.5 -0.8z"/>
  <path d="M154 217 c0 -4.5 2.3 -5.7 3.4 -1.7 1.1 4.1 0.7 5.7 -1.4 5.7 -1.7 0 -2 -0.7 -2 -4z"/>
  <path d="M195.8 212.3 c-3.3 -0.8 -2 -3.3 1.7 -3.3 2.8 0 3.5 0.4 3.5 2 0 2 -1.4 2.3 -5.2 1.3z"/>
  <path d="M170.6 202.8 c-1 -3.8 -0.7 -4.8 1.4 -4.8 1.6 0 2 0.7 2 3.5 0 4 -2.4 4.9 -3.4 1.3z"/>
  <path d="M153 200 c0 -4.5 2.3 -5.7 3.4 -1.7 1.1 4.1 0.7 5.7 -1.4 5.7 -1.7 0 -2 -0.7 -2 -4z"/>
  <path d="M118.6 194.8 c-1 -3.8 -0.7 -4.8 1.4 -4.8 1.6 0 2 0.7 2 3.5 0 4 -2.4 4.9 -3.4 1.3z"/>
  <path d="M232.3 192.3 c-1.5 -0.3 -2.3 -1.2 -2.3 -2.5 0 -1.8 0.4 -1.9 4.1 -1.3 3.8 0.7 4.1 0.6 3.4 -1.4 -0.5 -1.8 -0.2 -2.1 1.9 -2.1 2.4 0 2.6 0.4 2.6 4 0 4 0 4 -3.7 3.9 -2.1 -0.1 -4.8 -0.4 -6 -0.6z"/>
  <path d="M250 188.5 c0 -1.5 0.6 -2.5 1.4 -2.5 0.8 0 1.6 -0.7 2 -1.5 0.3 -0.8 1.7 -1.5 3.1 -1.5 1.8 0 2.5 -0.5 2.5 -1.9 0 -3 1.1 -5.1 2.6 -5.1 0.8 0 1.4 -0.8 1.4 -1.7 -0.1 -1 1 -6.2 2.2 -11.5 1.8 -7.8 2.7 -9.8 4.1 -9.8 2.1 0 2.1 0.6 -0.3 10.8 -2.8 11.5 -11.4 28.9 -12.7 25.5 -0.4 -1 -1 -1 -2.6 0.2 -3 2.1 -3.7 1.9 -3.7 -1z"/>
  <path d="M218 188 c0 -2.1 1 -2.4 4.8 -1.4 3.6 1 2.7 3.4 -1.3 3.4 -2.8 0 -3.5 -0.4 -3.5 -2z"/>
  <path d="M117.6 186.8 c-1 -3.8 -0.7 -4.8 1.4 -4.8 1.6 0 2 0.7 2 3.5 0 4 -2.4 4.9 -3.4 1.3z"/>
  <path d="M193 187.6 c0 -1.7 3.1 -2.6 9.5 -2.6 6.4 0 9.5 0.9 9.5 2.6 0 1.1 -2.1 1.4 -9.5 1.4 -7.4 0 -9.5 -0.3 -9.5 -1.4z"/>
  <path d="M152 183 c0 -4.5 2.3 -5.7 3.4 -1.7 1.1 4.1 0.7 5.7 -1.4 5.7 -1.7 0 -2 -0.7 -2 -4z"/>
  <path d="M234.1 179.5 c-2 -3.5 -2 -3.5 0.9 -3.5 2.8 0 3 0.3 3 3.5 0 1.9 -0.4 3.5 -0.9 3.5 -0.5 0 -1.8 -1.6 -3 -3.5z"/>
  <path d="M229.4 170.5 c-0.8 -2 -2.5 -4 -3.8 -4.5 -1.4 -0.5 -2.7 -1.8 -3.1 -2.9 -0.3 -1.1 -0.9 -2 -1.3 -1.9 -0.4 0.1 -6.3 -2.6 -13.2 -5.9 -6.9 -3.3 -15 -6.9 -18 -7.8 -3 -1 -6.8 -2.6 -8.5 -3.6 -2.9 -1.8 -2.8 -1.8 12.3 -1.8 8.4 0 15.2 0.4 15.2 0.9 0 0.5 -2 1 -4.5 1.2 -4.6 0.3 -4.6 0.3 7.4 5.8 10.8 5 12.1 5.9 13.7 9.3 1.1 2.3 2.4 3.7 3.6 3.7 2.1 0 3.8 3.6 3.8 8.1 0 4 -1.8 3.7 -3.6 -0.6z"/>
  <path d="M151 166 c0 -3.6 -0.2 -4 -2.5 -4 -1.8 0 -2.5 -0.5 -2.5 -2 0 -2.1 1 -2.4 4.6 -1.4 1.4 0.4 2.5 1.9 3.3 4.3 1.6 5.5 1.4 7.1 -0.9 7.1 -1.7 0 -2 -0.7 -2 -4z"/>
  <path d="M278.1 166.5 c0 -1.6 0.5 -7 1.3 -11.8 1.3 -8.7 1.3 -8.9 -0.8 -9.7 -2.1 -0.9 -2.1 -0.9 0.1 -0.9 1.2 -0.1 2.5 0.4 2.9 1 0.7 1.2 -1.4 19.2 -2.7 22.4 -0.6 1.7 -0.8 1.5 -0.8 -1z"/>
  <path d="M114.6 161.8 c-0.8 -3.3 0.4 -10 1.8 -9.4 0.6 0.3 3 1 5.4 1.7 5.7 1.5 5.9 4.3 0.2 3.7 -3.9 -0.3 -4 -0.3 -4 2.9 0 3.8 -2.4 4.6 -3.4 1.1z"/>
  <path d="M137 159 c0 -2.1 1 -2.4 4.8 -1.4 3.6 1 2.7 3.4 -1.3 3.4 -2.8 0 -3.5 -0.4 -3.5 -2z"/>
  <path d="M164.8 158.7 c-0.3 -1.5 -0.2 -2.7 0.3 -2.7 1.3 0 1.7 1.4 0.9 3.5 -0.6 1.7 -0.7 1.6 -1.2 -0.8z"/>
  <path d="M157.3 155.3 c0.9 -0.2 2.5 -0.2 3.5 0 0.9 0.3 0.1 0.5 -1.8 0.5 -1.9 0 -2.7 -0.2 -1.7 -0.5z"/>
  <path d="M147.8 154.3 c1.2 -0.2 3 -0.2 4 0 0.9 0.3 -0.1 0.5 -2.3 0.4 -2.2 0 -3 -0.2 -1.7 -0.4z"/>
  <path d="M132.3 151.5 c-4.6 -1.9 -4.1 -2.8 0.5 -1.1 2 0.8 4.6 1.7 5.7 1.9 1.6 0.4 1.5 0.5 -0.5 0.5 -1.4 0.1 -4 -0.5 -5.7 -1.3z"/>
  <path d="M269 147.7 c0 -2.1 0.3 -2.2 4.8 -1.7 4.6 0.4 4.6 0.5 1 0.8 -2.5 0.2 -3.8 0.8 -3.8 1.8 0 0.8 -0.4 1.4 -1 1.4 -0.5 0 -1 -1 -1 -2.3z"/>
  <path d="M259 147 c0 -0.5 -2.1 -0.7 -5 -0.3 -3.4 0.4 -5 0.2 -5 -0.6 0 -0.6 -1.3 -1.1 -3 -1.1 -1.6 0 -3 -0.5 -3 -1.1 0 -1.1 11.6 -0.7 21.2 0.8 3.1 0.5 3.5 0.7 2.3 1.9 -1.5 1.6 -7.5 1.9 -7.5 0.4z"/>
  <path d="M233 145 c0 -0.6 -4.5 -1 -11.5 -1 -7 0 -11.5 -0.4 -11.5 -1 0 -1.1 25.9 -1.4 29.8 -0.4 4.1 1.1 2.6 3.4 -2.3 3.4 -2.5 0 -4.5 -0.4 -4.5 -1z"/>
  <path d="M270.3 143.3 c0.9 -0.2 2.5 -0.2 3.5 0 0.9 0.3 0.1 0.5 -1.8 0.5 -1.9 0 -2.7 -0.2 -1.7 -0.5z"/>
  <path d="M260.3 142.3 c0.9 -0.2 2.5 -0.2 3.5 0 0.9 0.3 0.1 0.5 -1.8 0.5 -1.9 0 -2.7 -0.2 -1.7 -0.5z"/>
  <path d="M153.3 141.3 c1.5 -0.2 3.7 -0.2 5 0 1.2 0.2 0 0.4 -2.8 0.4 -2.7 0 -3.8 -0.2 -2.2 -0.4z"/>
  <path d="M175.3 140.3 c3.2 -0.2 8.1 -0.2 11 0 2.9 0.2 0.3 0.3 -5.8 0.3 -6 0 -8.4 -0.1 -5.2 -0.3z"/>
  <path d="M216.8 140.3 c2.3 -0.2 5.9 -0.2 8 0 2 0.2 0.1 0.4 -4.3 0.4 -4.4 0 -6.1 -0.2 -3.7 -0.4z"/>
 </g>
 <g fill="#737373">
  <path d="M158.7 275.9 c-2.2 -1.3 -2.5 -9.9 -0.2 -9.9 0.9 0 1.6 1.4 2 3.8 0.4 2 0.8 4.1 0.9 4.5 0.1 0.5 2.6 -1.3 5.6 -4 2.9 -2.6 4.9 -4.1 4.4 -3.2 -0.8 1.4 -5 5.3 -9.4 8.6 -1 0.8 -2.1 0.8 -3.3 0.2z"/>
  <path d="M145.8 272.3 c-3.3 -0.8 -2 -3.3 1.7 -3.3 2.8 0 3.5 0.4 3.5 2 0 2 -1.4 2.3 -5.2 1.3z"/>
  <path d="M130.8 268.3 c-3.3 -0.8 -2 -3.3 1.7 -3.3 2.8 0 3.5 0.4 3.5 2 0 2 -1.4 2.3 -5.2 1.3z"/>
  <path d="M119.8 265.3 c-3.3 -0.8 -2 -3.3 1.7 -3.3 2.8 0 3.5 0.4 3.5 2 0 2 -1.4 2.3 -5.2 1.3z"/>
  <path d="M171.5 262 c5.3 -29.2 7.1 -42.9 5.8 -44.6 -0.7 -1 -1.3 -2.3 -1.3 -2.8 0 -0.6 0.8 0.1 1.8 1.7 1.8 2.7 1.8 3.2 -1.9 25.3 -2.1 12.5 -4.1 22.9 -4.4 23.3 -0.4 0.3 -0.4 -1 0 -2.9z"/>
  <path d="M107.3 259.5 c-4.3 -1.8 -4.2 -3.5 0.2 -3.5 3.1 0 3.5 0.3 3.5 2.5 0 1.4 -0.1 2.5 -0.2 2.5 -0.2 -0.1 -1.8 -0.7 -3.5 -1.5z"/>
  <path d="M156 252.5 c0 -4 2.4 -4.9 3.4 -1.2 1 3.7 0.7 4.7 -1.4 4.7 -1.6 0 -2 -0.7 -2 -3.5z"/>
  <path d="M155 235 c0 -4.5 2.3 -5.7 3.4 -1.7 1.1 4.1 0.7 5.7 -1.4 5.7 -1.7 0 -2 -0.7 -2 -4z"/>
  <path d="M95.5 233.3 c0.9 -2.1 2.5 -4.7 3.5 -5.8 2 -1.9 2 -1.9 2 1.8 0 2 -0.4 3.7 -1 3.7 -0.5 0 -1 0.9 -1 2 0 1.5 -0.7 2 -2.5 2 -2.5 0 -2.5 0 -1 -3.7z"/>
  <path d="M259.3 227.3 c-1.5 -0.5 -1.7 -3.3 -0.3 -3.3 0.6 0 1 0.5 1 1 0 1.1 6.9 1.3 8.6 0.2 0.6 -0.4 2.4 -9.5 3.8 -20.2 2.8 -20.1 3.3 -22.6 4.1 -21.8 0.7 0.7 -5.4 42.1 -6.3 42.9 -0.9 0.8 -9.3 1.7 -10.9 1.2z"/>
  <path d="M245.8 226.3 c-3.3 -0.8 -2 -3.3 1.7 -3.3 2.8 0 3.5 0.4 3.5 2 0 2 -1.4 2.3 -5.2 1.3z"/>
  <path d="M234 225.2 c0 -0.5 -1.1 -1.5 -2.5 -2.2 -1.4 -0.7 -2.5 -1.7 -2.5 -2.2 0 -1.4 6.1 -0.9 7.6 0.6 2.1 2.1 1.7 4.6 -0.6 4.6 -1.1 0 -2 -0.4 -2 -0.8z"/>
  <path d="M154 219 c0 -4.5 2.3 -5.7 3.4 -1.7 1.1 4.1 0.7 5.7 -1.4 5.7 -1.7 0 -2 -0.7 -2 -4z"/>
  <path d="M253.2 211.8 c-1.2 -5.7 -2.2 -11 -2.2 -11.9 0 -1 -1.1 -2 -2.5 -2.3 -2.1 -0.5 -2.5 -1.2 -2.5 -4.1 0 -3.1 0.3 -3.5 2.5 -3.5 2 0 2.5 -0.5 2.5 -2.5 0 -1.4 0.6 -2.5 1.3 -2.5 0.7 0 2.4 -1.3 3.7 -3 2.1 -2.5 7 -4.2 7 -2.5 0 1.4 -3 6.3 -4.6 7.6 -1.2 1 -1.5 1 -1 0.1 0.4 -0.7 -1.3 0.2 -3.8 2 -4.6 3.2 -4.6 3.2 -2.2 5.3 1.9 1.6 2.9 4.4 5 14 3.1 14.3 3.1 13.5 0.8 13.5 -1.5 0 -2.2 -1.8 -4 -10.2z"/>
  <path d="M216.8 216.1 c-6.5 -2 -6.6 -4.6 -0.3 -3.8 5.3 0.5 5.8 0.9 5.3 3.4 -0.3 1.8 -0.5 1.8 -5 0.4z"/>
  <path d="M204.8 213.3 c-3.3 -0.8 -2 -3.3 1.7 -3.3 2.8 0 3.5 0.4 3.5 2 0 2 -1.4 2.3 -5.2 1.3z"/>
  <path d="M120.6 210.8 c-1 -3.8 -0.7 -4.8 1.4 -4.8 1.6 0 2 0.7 2 3.5 0 4 -2.4 4.9 -3.4 1.3z"/>
  <path d="M172.1 206.3 c-1.5 -3.1 -5.3 -19.3 -4.8 -21.1 0.3 -1 0.5 -0.6 0.6 1.1 0 1.5 0.4 2.7 0.9 2.7 0.4 0 4.3 -0.7 8.7 -1.5 10.4 -1.9 10.5 -1.9 10.5 0.5 0 1.4 -0.7 2 -2.3 2 -1.3 0 -4.9 0.5 -7.9 1.1 -5.6 1.1 -5.6 1.1 -5 5.3 0.3 2.2 0.9 4.3 1.3 4.4 1.2 0.5 1.1 7.2 -0.1 7.2 -0.5 0 -1.3 -0.8 -1.9 -1.7z"/>
  <path d="M119.6 202.8 c-1 -3.8 -0.7 -4.8 1.4 -4.8 1.6 0 2 0.7 2 3.5 0 4 -2.4 4.9 -3.4 1.3z"/>
  <path d="M153 201.5 c0 -4 2.4 -4.9 3.4 -1.2 1 3.7 0.7 4.7 -1.4 4.7 -1.6 0 -2 -0.7 -2 -3.5z"/>
  <path d="M220.8 190.3 c-3 -0.3 -3.8 -0.8 -3.8 -2.4 0 -1.9 0.4 -2 4.3 -1.4 8.3 1.2 9.7 1.7 9.7 3.1 0 1.4 -1.9 1.5 -10.2 0.7z"/>
  <path d="M237.1 185.8 c-2.1 -4.3 -2.1 -4.3 0 -4.6 2.7 -0.5 3.9 1.3 3.9 5.6 0 4.4 -1.4 4 -3.9 -1z"/>
  <path d="M194 187.6 c0 -1.6 3.2 -2.6 6 -1.9 3.7 1 2.3 3.3 -2 3.3 -2.7 0 -4 -0.4 -4 -1.4z"/>
  <path d="M152 184.5 c0 -4 2.4 -4.9 3.4 -1.2 1 3.7 0.7 4.7 -1.4 4.7 -1.6 0 -2 -0.7 -2 -3.5z"/>
  <path d="M166.3 178.5 c0 -2.2 0.2 -3 0.4 -1.7 0.2 1.2 0.2 3 0 4 -0.3 0.9 -0.5 -0.1 -0.4 -2.3z"/>
  <path d="M116.6 177.8 c-1 -3.8 -0.7 -4.8 1.4 -4.8 1.6 0 2 0.7 2 3.5 0 4 -2.4 4.9 -3.4 1.3z"/>
  <path d="M233.1 177.4 c-2.7 -3.5 -2.6 -4.4 0.4 -4.4 2.2 0 2.5 0.4 2.5 3.5 0 1.9 -0.2 3.5 -0.4 3.5 -0.3 0 -1.4 -1.2 -2.5 -2.6z"/>
  <path d="M276 179.5 c0 -0.6 1.1 -8.2 2.4 -17 2.2 -14.6 2.3 -16.1 0.8 -17.3 -1.4 -1.1 -1.4 -1.2 0 -1.2 0.9 0 2 0.5 2.3 1 0.8 1.4 -3.4 33.2 -4.6 34.5 -0.6 0.6 -0.9 0.6 -0.9 0z"/>
  <path d="M262 175.4 c0 -5.1 2.2 -10.4 4.3 -10.4 1.6 0 1.9 0.5 1.4 2.9 -1.6 7.9 -5.7 13.3 -5.7 7.5z"/>
  <path d="M115.6 169.8 c-1 -3.8 -0.7 -4.8 1.4 -4.8 1.6 0 2 0.7 2 3.5 0 4 -2.4 4.9 -3.4 1.3z"/>
  <path d="M151 167.5 c0 -4 2.4 -4.9 3.4 -1.2 1 3.7 0.7 4.7 -1.4 4.7 -1.6 0 -2 -0.7 -2 -3.5z"/>
  <path d="M165.3 166.5 c0 -2.2 0.2 -3 0.4 -1.7 0.2 1.2 0.2 3 0 4 -0.3 0.9 -0.5 -0.1 -0.4 -2.3z"/>
  <path d="M229 168.4 c0 -0.9 -0.9 -1.8 -2 -2.1 -1.1 -0.3 -2 -1.2 -2 -1.9 0 -0.8 -0.4 -1.4 -1 -1.4 -0.5 0 -1.6 -1.2 -2.4 -2.7 -0.8 -1.6 -1.7 -2.7 -2 -2.5 -0.3 0.1 -4.1 -1.5 -8.4 -3.6 -4.2 -2.1 -10.8 -5.2 -14.7 -6.7 -3.8 -1.6 -7.2 -3.2 -7.5 -3.6 -0.3 -0.4 -1.6 -0.9 -3 -1.2 -1.4 -0.2 1.2 -0.5 5.6 -0.6 7.3 -0.1 8.9 0.3 16 3.4 16.7 7.5 17.4 8.1 17.4 14.8 0 2.4 0.4 2.7 3.5 2.7 3.3 0 3.5 0.2 3.5 3.5 0 2.4 -0.5 3.5 -1.5 3.5 -0.8 0 -1.5 -0.7 -1.5 -1.6z"/>
  <path d="M266 162.1 c0 -1 0.3 -3.9 0.6 -6.5 0.5 -3.6 1.1 -4.6 2.5 -4.6 2.2 0 2.3 1.1 0.8 8 -0.7 3.1 -1.6 5 -2.5 5 -0.8 0 -1.4 -0.8 -1.4 -1.9z"/>
  <path d="M165.2 159 c0 -1.9 0.2 -2.7 0.5 -1.7 0.2 0.9 0.2 2.5 0 3.5 -0.3 0.9 -0.5 0.1 -0.5 -1.8z"/>
  <path d="M136 159 c0 -2.1 1 -2.4 4.8 -1.4 3.6 1 2.7 3.4 -1.3 3.4 -2.8 0 -3.5 -0.4 -3.5 -2z"/>
  <path d="M267.3 149.3 c-0.7 -0.2 -1.3 -1.1 -1.3 -1.9 0 -1 -1.2 -1.4 -4 -1.4 -2.2 0 -4 -0.5 -4 -1.1 0 -0.6 1.7 -0.8 4.8 -0.4 8.5 1.1 9.1 1.3 8.5 3.5 -0.5 2 -1.6 2.3 -4 1.3z"/>
  <path d="M248 145 c0 -2.1 1 -2.4 4.8 -1.4 3.6 1 2.7 3.4 -1.3 3.4 -2.8 0 -3.5 -0.4 -3.5 -2z"/>
 </g>
 <g fill="#6b6b6b">
  <path d="M158.3 275.3 c-0.8 -0.2 -1.3 -2.2 -1.3 -4.4 0 -5.5 2.6 -5.3 3.7 0.3 0.9 4.3 0.9 4.3 5.5 0 2.7 -2.6 4.9 -5.5 5.1 -7 0.4 -2.7 0.4 -2.7 0.5 -0.2 0.2 3 -0.1 3.4 -5.6 8.3 -4.1 3.6 -5.4 4.1 -7.9 3z"/>
  <path d="M149.8 273.3 c-3.3 -0.8 -2 -3.3 1.7 -3.3 2.8 0 3.5 0.4 3.5 2 0 2 -1.4 2.3 -5.2 1.3z"/>
  <path d="M134.8 269.3 c-3.3 -0.8 -2 -3.3 1.7 -3.3 2.8 0 3.5 0.4 3.5 2 0 2 -1.4 2.3 -5.2 1.3z"/>
  <path d="M120.6 265.2 c-6.1 -2.1 -7.2 -4.2 -2.2 -4.2 2 0 3.6 0.5 3.6 1 0 0.6 1.6 1 3.5 1 2.8 0 3.5 0.4 3.5 2 0 2.4 -1.7 2.5 -8.4 0.2z"/>
  <path d="M106.5 259 c-1.2 -0.4 -2.7 -1.5 -3.4 -2.4 -1.2 -1.4 -0.9 -1.6 2.3 -1.6 3.2 0 3.6 0.3 3.6 2.5 0 1.4 -0.1 2.5 -0.2 2.4 -0.2 0 -1.2 -0.4 -2.3 -0.9z"/>
  <path d="M156 254 c0 -4.5 2.3 -5.7 3.4 -1.7 1.1 4.1 0.7 5.7 -1.4 5.7 -1.7 0 -2 -0.7 -2 -4z"/>
  <path d="M93.7 241.1 c-0.5 -2.2 1.8 -8.1 3.3 -8.1 1.1 0 1.3 4.2 0.4 7.8 -0.8 2.7 -3 2.9 -3.7 0.3z"/>
  <path d="M155 237 c0 -4.5 2.3 -5.7 3.4 -1.7 1.1 4.1 0.7 5.7 -1.4 5.7 -1.7 0 -2 -0.7 -2 -4z"/>
  <path d="M97.8 229.2 c1.2 -1.6 2.8 -3.5 3.7 -4.2 1.5 -1.2 1.6 -1 1.3 2.6 -0.3 3.6 -0.5 3.9 -3.7 4.2 -3.3 0.3 -3.3 0.3 -1.3 -2.6z"/>
  <path d="M258.4 227.2 c-2.2 -0.3 -3.4 -3.5 -3.4 -8.8 0 -4.4 2.7 -2.6 4 2.5 0.7 3.2 1.8 5.1 2.8 5.3 2.6 0.5 -0.7 1.5 -3.4 1z"/>
  <path d="M246.8 226.3 c-3.6 -0.9 -2 -3.3 2.2 -3.3 3.3 0 4 0.3 4 2 0 2 -2 2.4 -6.2 1.3z"/>
  <path d="M270.6 219.5 c0.4 -3.3 1 -6.7 1.5 -7.5 1.1 -1.9 0 8.6 -1.2 11.5 -0.5 1.2 -0.6 -0.4 -0.3 -4z"/>
  <path d="M104 223.2 c0 -0.8 5.2 -4.2 6.4 -4.2 0.3 0 0.6 1.1 0.6 2.5 0 2.2 -0.4 2.5 -3.5 2.5 -1.9 0 -3.5 -0.4 -3.5 -0.8z"/>
  <path d="M154 220.5 c0 -4 2.4 -4.9 3.4 -1.2 1 3.7 0.7 4.7 -1.4 4.7 -1.6 0 -2 -0.7 -2 -3.5z"/>
  <path d="M223.3 218.8 c-4.2 -2.6 -4.2 -3.8 0.2 -3.8 3.2 0 3.5 0.2 3.5 3 0 1.7 -0.1 3 -0.2 2.9 -0.2 0 -1.8 -1 -3.5 -2.1z"/>
  <path d="M117 216 c0 -0.5 0.9 -1.4 2 -2 1.1 -0.6 2 -1.7 2 -2.5 0 -0.8 0.7 -1.5 1.5 -1.5 1 0 1.5 1.1 1.5 3.5 0 3.3 -0.2 3.5 -3.5 3.5 -1.9 0 -3.5 -0.4 -3.5 -1z"/>
  <path d="M253 210.5 c0 -4 2.4 -4.9 3.4 -1.2 1 3.7 0.7 4.7 -1.4 4.7 -1.6 0 -2 -0.7 -2 -3.5z"/>
  <path d="M178 211 c0 -1.6 0.7 -2 3.5 -2 4 0 4.9 2.4 1.3 3.4 -3.8 1 -4.8 0.7 -4.8 -1.4z"/>
  <path d="M196.8 212.3 c-3.3 -0.8 -2 -3.3 1.7 -3.3 2.8 0 3.5 0.4 3.5 2 0 2 -1.4 2.3 -5.2 1.3z"/>
  <path d="M272.1 208.8 c-0.1 -0.7 4.5 -33.3 5.4 -38.7 0.4 -1.8 0.9 -3.1 1.1 -2.8 0.7 0.7 -4.5 37.6 -5.6 40.2 -0.5 1.1 -0.9 1.7 -0.9 1.3z"/>
  <path d="M153 203 c0 -4.5 2.3 -5.7 3.4 -1.7 1.1 4.1 0.7 5.7 -1.4 5.7 -1.7 0 -2 -0.7 -2 -4z"/>
  <path d="M250.6 200.5 c-0.6 -3.9 -1 -4.5 -3.2 -4.5 -2.1 0 -2.4 -0.5 -2.4 -3.5 0 -2.4 0.5 -3.5 1.5 -3.5 0.8 0 1.5 -0.4 1.5 -1 0 -0.5 0.9 -1 2 -1 1.1 0 2 -0.7 2 -1.5 0 -0.8 1.5 -2.5 3.4 -3.7 1.8 -1.2 3.9 -3.7 4.5 -5.5 0.9 -2.5 1.8 -3.3 3.7 -3.3 2.4 0 2.4 0.1 1.1 3.3 -2 4.6 -5.3 9.8 -6.3 9.9 -1.2 0.1 -9.4 6 -9.4 6.8 0 0.4 1.1 1.2 2.5 1.8 1.4 0.6 2.5 1.8 2.5 2.6 0 0.7 0.3 2.8 0.6 4.5 0.6 2.6 0.4 3.1 -1.4 3.1 -1.6 0 -2.1 -0.9 -2.6 -4.5z"/>
  <path d="M118.6 193.8 c-1 -3.8 -0.7 -4.8 1.4 -4.8 1.6 0 2 0.7 2 3.5 0 4 -2.4 4.9 -3.4 1.3z"/>
  <path d="M168 190 c0 -0.5 0.7 -1 1.5 -1 0.8 0 1.5 0.5 1.5 1 0 0.6 -0.7 1 -1.5 1 -0.8 0 -1.5 -0.4 -1.5 -1z"/>
  <path d="M152 186 c0 -4.5 2.3 -5.7 3.4 -1.7 1.1 4.1 0.7 5.7 -1.4 5.7 -1.7 0 -2 -0.7 -2 -4z"/>
  <path d="M216 188 c0 -2.1 1 -2.4 4.8 -1.4 3.6 1 2.7 3.4 -1.3 3.4 -2.8 0 -3.5 -0.4 -3.5 -2z"/>
  <path d="M117.6 185.8 c-1 -3.8 -0.7 -4.8 1.4 -4.8 1.6 0 2 0.7 2 3.5 0 4 -2.4 4.9 -3.4 1.3z"/>
  <path d="M231.1 173.8 c-2.1 -4.3 -2.1 -4.3 0 -4.6 2.7 -0.5 3.9 1.3 3.9 5.6 0 4.4 -1.4 4 -3.9 -1z"/>
  <path d="M151 169 c0 -4.5 2.3 -5.7 3.4 -1.7 1.1 4.1 0.7 5.7 -1.4 5.7 -1.7 0 -2 -0.7 -2 -4z"/>
  <path d="M265 164.5 c0 -2.8 0.4 -3.5 2 -3.5 2.1 0 2.4 1 1.4 4.8 -1 3.6 -3.4 2.7 -3.4 -1.3z"/>
  <path d="M165.3 162.5 c0 -2.2 0.2 -3 0.4 -1.7 0.2 1.2 0.2 3 0 4 -0.3 0.9 -0.5 -0.1 -0.4 -2.3z"/>
  <path d="M222.3 161.1 c-1.8 -5.3 -3 -6.1 -20 -13.6 -3.5 -1.5 -6.3 -3.1 -6.3 -3.6 0 -0.4 -1.9 -1 -4.2 -1.2 -2.4 -0.2 -0.6 -0.4 3.9 -0.5 8.9 -0.2 15.7 1.7 18.1 5 0.7 1 2.5 1.8 4 1.8 4.3 0.1 6.2 2.2 6.9 7.9 0.4 3.3 1 5.1 1.9 5.1 0.8 0 1.4 0.9 1.4 2 0 1.3 -0.7 2 -2 2 -1.4 0 -2.4 -1.3 -3.7 -4.9z"/>
  <path d="M114.6 160.8 c-1 -3.8 -0.7 -4.8 1.4 -4.8 1.6 0 2 0.7 2 3.5 0 4 -2.4 4.9 -3.4 1.3z"/>
  <path d="M145 160 c0 -2.1 1 -2.4 4.8 -1.4 3.6 1 2.7 3.4 -1.3 3.4 -2.8 0 -3.5 -0.4 -3.5 -2z"/>
  <path d="M279.7 155.5 c0.4 -3.3 0.7 -7 0.7 -8.2 0.1 -1.3 0.5 -2.3 0.9 -2.3 1 0 -0.1 11.5 -1.4 14.5 -0.5 1.2 -0.6 -0.4 -0.2 -4z"/>
  <path d="M128 158 c0 -2.1 1 -2.4 4.8 -1.4 3.6 1 2.7 3.4 -1.3 3.4 -2.8 0 -3.5 -0.4 -3.5 -2z"/>
  <path d="M267 153.5 c0 -2.8 0.4 -3.5 2 -3.5 2.1 0 2.4 1 1.4 4.8 -1 3.6 -3.4 2.7 -3.4 -1.3z"/>
  <path d="M113.6 152.8 c-0.4 -1.6 0.1 -2.9 1.6 -4.3 2.2 -2 2.2 -2 0.4 0.2 -1.7 2.1 -1.7 2.3 -0.2 2.9 2 0.7 2.1 3.4 0.2 3.4 -0.7 0 -1.6 -1 -2 -2.2z"/>
  <path d="M258 146 c0 -2.1 1 -2.4 4.8 -1.4 3.6 1 2.7 3.4 -1.3 3.4 -2.8 0 -3.5 -0.4 -3.5 -2z"/>
  <path d="M247 145 c0 -2.1 1 -2.4 4.8 -1.4 3.6 1 2.7 3.4 -1.3 3.4 -2.8 0 -3.5 -0.4 -3.5 -2z"/>
  <path d="M231 144 c0 -2.1 1.6 -2.5 5.8 -1.4 3.9 1.1 2.7 3.4 -1.8 3.4 -3.3 0 -4 -0.3 -4 -2z"/>
 </g>
 <g fill="#636363">
  <path d="M157.7 275.3 c-0.4 -0.3 -0.7 -1.9 -0.7 -3.5 0 -4 2.4 -3.5 3.7 0.7 1 3.1 0.9 3.5 -0.6 3.5 -1 0 -2.1 -0.3 -2.4 -0.7z"/>
  <path d="M163 274.7 c0 -0.2 1.5 -1.6 3.3 -3.3 3.2 -2.9 3.2 -2.9 0.3 0.4 -2.8 3 -3.6 3.7 -3.6 2.9z"/>
  <path d="M138.8 270.3 c-3.3 -0.8 -2 -3.3 1.7 -3.3 2.8 0 3.5 0.4 3.5 2 0 2 -1.4 2.3 -5.2 1.3z"/>
  <path d="M127.8 267.3 c-3.3 -0.8 -2 -3.3 1.7 -3.3 2.8 0 3.5 0.4 3.5 2 0 2 -1.4 2.3 -5.2 1.3z"/>
  <path d="M116.3 263.5 c-4.3 -1.8 -4.2 -3.5 0.2 -3.5 3.1 0 3.5 0.3 3.5 2.5 0 1.4 -0.1 2.5 -0.2 2.5 -0.2 -0.1 -1.8 -0.7 -3.5 -1.5z"/>
  <path d="M156 256 c0 -4.5 2.3 -5.7 3.4 -1.7 1.1 4.1 0.7 5.7 -1.4 5.7 -1.7 0 -2 -0.7 -2 -4z"/>
  <path d="M96.1 249.2 c-0.5 -0.9 -1.2 -3.4 -1.6 -5.5 -0.6 -3.3 -0.5 -3.7 1.3 -3.7 1.4 0 2.1 0.9 2.6 3.1 1.3 6.9 0 10.4 -2.3 6.1z"/>
  <path d="M155 239 c0 -4.5 2.3 -5.7 3.4 -1.7 1.1 4.1 0.7 5.7 -1.4 5.7 -1.7 0 -2 -0.7 -2 -4z"/>
  <path d="M99.1 228.3 c2.7 -3.7 5.3 -6.3 6.1 -6.3 1.2 0 0.9 5.5 -0.4 6.8 -0.7 0.7 -2.5 1.2 -4.1 1.2 -2.6 0 -2.8 -0.2 -1.6 -1.7z"/>
  <path d="M258.8 227.2 c-1 -0.2 -1.8 -1 -1.8 -1.8 0 -1.6 1.1 -1.8 2.6 -0.5 0.5 0.5 1.8 1.1 2.9 1.3 2 0.4 2 0.4 0 0.9 -1.1 0.3 -2.8 0.3 -3.7 0.1z"/>
  <path d="M248.8 226.3 c-3.3 -0.8 -2 -3.3 1.7 -3.3 2.8 0 3.5 0.4 3.5 2 0 2 -1.4 2.3 -5.2 1.3z"/>
  <path d="M267.8 226 c1.2 -0.5 2.2 -1.3 2.2 -1.7 0 -1.1 9.8 -70.9 10.5 -75.2 0.4 -1.8 0.8 -3.1 1.1 -2.8 0.5 0.5 -10.4 78.6 -11.2 79.9 -0.3 0.4 -1.5 0.8 -2.7 0.7 -2.2 0 -2.2 0 0.1 -0.9z"/>
  <path d="M154 222 c0 -4.5 2.3 -5.7 3.4 -1.7 1.1 4.1 0.7 5.7 -1.4 5.7 -1.7 0 -2 -0.7 -2 -4z"/>
  <path d="M221.3 217.5 c-4.3 -1.8 -4.2 -3.5 0.2 -3.5 3.1 0 3.5 0.3 3.5 2.5 0 1.4 -0.1 2.5 -0.2 2.5 -0.2 -0.1 -1.8 -0.7 -3.5 -1.5z"/>
  <path d="M254 215.5 c0 -4 2.4 -4.9 3.4 -1.2 1 3.7 0.7 4.7 -1.4 4.7 -1.6 0 -2 -0.7 -2 -3.5z"/>
  <path d="M115 217 c0 -0.6 1.2 -1.6 2.8 -2.3 1.5 -0.6 3 -1.6 3.4 -2.2 0.4 -0.5 0.8 0.5 0.8 2.3 0 3 -0.2 3.2 -3.5 3.2 -1.9 0 -3.5 -0.5 -3.5 -1z"/>
  <path d="M209.8 214.3 c-3.3 -0.8 -2 -3.3 1.7 -3.3 2.8 0 3.5 0.4 3.5 2 0 2 -1.4 2.3 -5.2 1.3z"/>
  <path d="M174.1 211.1 c-1.2 -2.2 -6.1 -18.8 -6.1 -20.6 0 -0.8 1.2 -1.5 2.8 -1.7 2.6 -0.3 2.8 0 4.4 6.7 2.8 11.5 2.1 21.6 -1.1 15.6z"/>
  <path d="M197.8 212.3 c-3.3 -0.8 -2 -3.3 1.7 -3.3 2.8 0 3.5 0.4 3.5 2 0 2 -1.4 2.3 -5.2 1.3z"/>
  <path d="M252 206.5 c0 -4 2.4 -4.9 3.4 -1.2 1 3.7 0.7 4.7 -1.4 4.7 -1.6 0 -2 -0.7 -2 -3.5z"/>
  <path d="M153 205 c0 -4.5 2.3 -5.7 3.4 -1.7 1.1 4.1 0.7 5.7 -1.4 5.7 -1.7 0 -2 -0.7 -2 -4z"/>
  <path d="M119.6 201.8 c-1 -3.8 -0.7 -4.8 1.4 -4.8 1.6 0 2 0.7 2 3.5 0 4 -2.4 4.9 -3.4 1.3z"/>
  <path d="M250 197.5 c0 -4 0.2 -4.1 2.4 -1.9 2.3 2.2 2 5.4 -0.4 5.4 -1.6 0 -2 -0.7 -2 -3.5z"/>
  <path d="M228.3 191.7 c-4.1 -0.8 -5.3 -1.5 -5.3 -2.9 0 -1 0.4 -1.8 0.9 -1.8 1.3 0 11.3 2 13.4 2.6 1.6 0.5 1.8 0.2 1.2 -1.5 -0.4 -1.2 -0.2 -2.1 0.4 -2.1 0.6 0 1.1 1.6 1.1 3.5 0 3.3 -0.2 3.5 -3.2 3.3 -1.8 0 -5.7 -0.6 -8.5 -1.1z"/>
  <path d="M152 188 c0 -4.5 2.3 -5.7 3.4 -1.7 1.1 4.1 0.7 5.7 -1.4 5.7 -1.7 0 -2 -0.7 -2 -4z"/>
  <path d="M175 189.6 c0 -1.4 1.4 -1.9 9.8 -3.1 3.7 -0.6 4.2 -0.5 4.2 1.3 0 1.6 -0.9 2 -5.2 2.6 -7.6 0.9 -8.8 0.8 -8.8 -0.8z"/>
  <path d="M215 188 c0 -2.1 1 -2.4 4.8 -1.4 3.6 1 2.7 3.4 -1.3 3.4 -2.8 0 -3.5 -0.4 -3.5 -2z"/>
  <path d="M255.2 183.9 c0.3 -3.1 0.6 -3.4 3.7 -3.7 4.1 -0.4 3.8 1.1 -0.8 4.7 -3.3 2.5 -3.3 2.5 -2.9 -1z"/>
  <path d="M236.6 184.1 c-0.3 -0.4 -1 -2 -1.5 -3.5 -1 -2.4 -0.8 -2.6 1.4 -2.6 2.2 0 2.5 0.4 2.5 3.5 0 3.3 -1.2 4.6 -2.4 2.6z"/>
  <path d="M116.6 176.8 c-1 -3.8 -0.7 -4.8 1.4 -4.8 1.6 0 2 0.7 2 3.5 0 4 -2.4 4.9 -3.4 1.3z"/>
  <path d="M262 174.5 c0 -1.4 1.1 -6.4 2.5 -11.1 1.4 -4.7 2.5 -10.1 2.5 -12 0 -2.8 0.4 -3.4 2.1 -3.4 1.9 0 2 0.4 1.4 5.3 -1.4 10.9 -5.4 23.7 -7.4 23.7 -0.6 0 -1.1 -1.1 -1.1 -2.5z"/>
  <path d="M151 171 c0 -4.5 2.3 -5.7 3.4 -1.7 1.1 4.1 0.7 5.7 -1.4 5.7 -1.7 0 -2 -0.7 -2 -4z"/>
  <path d="M230 171.1 c-1.6 -3.1 -1.2 -5.1 1 -5.1 1.6 0 2 0.7 2 3.5 0 3.9 -1.4 4.6 -3 1.6z"/>
  <path d="M115.6 168.8 c-1 -3.8 -0.7 -4.8 1.4 -4.8 1.6 0 2 0.7 2 3.5 0 4 -2.4 4.9 -3.4 1.3z"/>
  <path d="M223.6 163.8 c-0.8 -1.3 -1.7 -3.9 -2.1 -5.8 -0.9 -4.1 -3 -5.9 -6.7 -6 -1.5 0 -3.3 -0.8 -4 -1.8 -0.7 -1 -2.9 -2.4 -4.8 -3.2 -1.9 -0.7 -4 -1.9 -4.6 -2.6 -0.5 -0.7 -2.8 -1.4 -5 -1.7 -2.1 -0.2 0.2 -0.4 5.1 -0.5 9.7 -0.2 10.9 0.2 11.9 3.5 0.5 1.6 1.8 2.3 5.5 2.8 4.7 0.6 4.7 0.6 6 5.8 2.1 8.9 2.4 11.7 1.2 11.7 -0.6 0 -1.7 -1 -2.5 -2.2z"/>
  <path d="M144 160 c0 -2.1 1 -2.4 4.8 -1.4 3.6 1 2.7 3.4 -1.3 3.4 -2.8 0 -3.5 -0.4 -3.5 -2z"/>
  <path d="M135 159 c0 -2.1 1 -2.4 4.8 -1.4 3.6 1 2.7 3.4 -1.3 3.4 -2.8 0 -3.5 -0.4 -3.5 -2z"/>
  <path d="M120.8 158.3 c-1.6 -0.2 -2.8 -0.9 -2.8 -1.4 0 -0.5 -0.9 -0.9 -2 -0.9 -1.5 0 -2 -0.7 -2 -2.6 0 -2.5 0.1 -2.6 2.3 -1.1 1.2 0.8 4.8 2 8 2.7 3.7 0.7 5.7 1.6 5.7 2.6 0 1.4 -3 1.6 -9.2 0.7z"/>
  <path d="M257 146 c0 -2.1 1 -2.4 4.8 -1.4 3.6 1 2.7 3.4 -1.3 3.4 -2.8 0 -3.5 -0.4 -3.5 -2z"/>
  <path d="M246 145 c0 -2.1 1 -2.4 4.8 -1.4 3.6 1 2.7 3.4 -1.3 3.4 -2.8 0 -3.5 -0.4 -3.5 -2z"/>
  <path d="M229 144 c0 -2.1 1.6 -2.5 5.8 -1.4 3.9 1.1 2.7 3.4 -1.8 3.4 -3.3 0 -4 -0.3 -4 -2z"/>
 </g>
 <g fill="#5a5a5a">
  <path d="M150 273.2 c-4.7 -1.3 -8.6 -2.9 -8.8 -3.3 -0.2 -0.5 -1 -0.9 -1.7 -0.9 -0.8 0 -2.2 -1.1 -3.3 -2.5 -1.1 -1.4 -2.4 -2.5 -2.9 -2.5 -1.5 0 -4.9 -4.1 -7.2 -8.8 -2.5 -5 -6.6 -33.2 -5.7 -39.7 0.2 -2.2 -1.1 -16.7 -3 -32.3 -1.9 -15.6 -3.4 -29.2 -3.4 -30.3 0 -2 0 -2 2.9 0 2.4 1.7 2.9 2.9 3.4 7.8 0.3 3.2 2.6 23.3 5.2 44.7 4 33.8 4.9 39.5 7 43.5 2.7 5.1 6.9 10.1 8.4 10.1 0.5 0 1.8 1 2.8 2.3 1 1.3 5.1 3.7 9 5.3 6.5 2.6 7.3 3.2 7.3 5.6 0 1.4 0.6 2.9 1.3 3.1 3.6 1.5 -4 0.1 -11.3 -2.1z"/>
  <path d="M114.3 262.5 c-4.3 -1.8 -4.2 -3.5 0.2 -3.5 3.1 0 3.5 0.3 3.5 2.5 0 1.4 -0.1 2.5 -0.2 2.5 -0.2 -0.1 -1.8 -0.7 -3.5 -1.5z"/>
  <path d="M156 258.5 c0 -4.9 2.3 -6.4 3.4 -2.2 1.2 4.4 0.7 6.7 -1.4 6.7 -1.7 0 -2 -0.7 -2 -4.5z"/>
  <path d="M155 241.5 c0 -4.9 2.3 -6.4 3.4 -2.2 1.2 4.4 0.7 6.7 -1.4 6.7 -1.7 0 -2 -0.7 -2 -4.5z"/>
  <path d="M95.7 233.1 c0.3 -1.1 1.4 -2.7 2.4 -3.7 1.8 -1.7 1.9 -1.6 1.9 1.9 0 3.2 -0.3 3.7 -2.4 3.7 -1.9 0 -2.3 -0.4 -1.9 -1.9z"/>
  <path d="M154 224 c0 -4.5 2.3 -5.7 3.4 -1.7 1.1 4.1 0.7 5.7 -1.4 5.7 -1.7 0 -2 -0.7 -2 -4z"/>
  <path d="M249.9 226.3 c-1 -0.2 -1.9 -1.2 -2.2 -2.2 -0.9 -3.8 -30 -12.3 -36.3 -10.7 -3.2 0.8 -7.4 -0.3 -7.4 -2 0 -0.8 0.9 -1.4 2 -1.4 1.4 0 2 -0.7 2 -2.1 0 -2.1 0.3 -2.2 8.6 -1.5 9.6 0.8 24.8 4.4 32 7.5 2.5 1.2 4.8 2.1 4.9 2.1 0.3 0 -2.4 -11.9 -3.6 -15.7 -0.7 -2.2 -1.7 -3.3 -3 -3.3 -1.4 0 -1.9 -0.7 -1.9 -2.9 0 -3.9 0.9 -6.1 2.5 -6.1 0.7 0 1.5 -0.5 1.7 -1.1 0.2 -0.6 1.9 -0.9 3.8 -0.7 3.5 0.3 3.5 0.3 -0.9 3.5 -4.3 3.2 -4.3 3.2 -1.8 4.4 2.7 1.2 2.5 0.6 8 25.4 1.2 5.4 1.7 6.1 4.3 6.6 1.8 0.4 0.3 0.7 -4.1 0.7 -3.8 0 -7.7 -0.2 -8.6 -0.5z"/>
  <path d="M267.8 226.3 c1.2 -0.2 2.2 -1 2.2 -1.6 0 -0.7 0.9 -7 2 -14.2 1.1 -7.1 2 -13.4 2 -13.9 0 -0.5 0.2 -0.7 0.5 -0.4 0.5 0.5 -3.1 27.1 -4 29.6 -0.2 0.6 -1.5 1.1 -2.7 1.1 -2.3 -0.2 -2.3 -0.2 0 -0.6z"/>
  <path d="M102.6 224.5 c0.6 -1.4 3.5 -3.5 4.8 -3.5 0.3 0 0.6 1.1 0.6 2.5 0 2.1 -0.5 2.5 -3 2.5 -2.2 0 -2.8 -0.4 -2.4 -1.5z"/>
  <path d="M109 220.2 c0 -0.8 5.2 -4.2 6.4 -4.2 0.3 0 0.6 1.1 0.6 2.5 0 2.2 -0.4 2.5 -3.5 2.5 -1.9 0 -3.5 -0.4 -3.5 -0.8z"/>
  <path d="M174.4 211.4 c-2.5 -5.6 -6.4 -18.7 -6.4 -21.3 0 -2 1.7 -0.2 2.3 2.4 0.2 1.1 0.4 0.8 0.2 -0.7 -0.1 -2.3 0.3 -2.8 2.7 -3.3 1.5 -0.3 4.2 -0.8 5.8 -1.1 2.7 -0.5 3 -0.3 3 2.1 0 1.4 -0.6 3.3 -1.4 4.1 -1.7 1.6 -3 8.5 -2.1 11.3 0.5 1.7 1.3 1.9 8.5 1.4 8 -0.6 8 -0.6 8 2.6 0 3.1 0 3.1 -5.7 3.1 -3.2 0 -7.5 0.3 -9.5 0.6 -3.3 0.6 -3.6 0.9 -2.7 2.5 0.5 1.1 0.7 1.9 0.4 1.9 -0.3 0 -1.7 -2.5 -3.1 -5.6z"/>
  <path d="M153 207 c0 -4.5 2.3 -5.7 3.4 -1.7 1.1 4.1 0.7 5.7 -1.4 5.7 -1.7 0 -2 -0.7 -2 -4z"/>
  <path d="M152 190 c0 -4.5 2.3 -5.7 3.4 -1.7 1.1 4.1 0.7 5.7 -1.4 5.7 -1.7 0 -2 -0.7 -2 -4z"/>
  <path d="M222 189 c0 -2.1 1 -2.4 4.8 -1.4 3.6 1 2.7 3.4 -1.3 3.4 -2.8 0 -3.5 -0.4 -3.5 -2z"/>
  <path d="M214 188 c0 -2.1 1 -2.4 4.8 -1.4 3.6 1 2.7 3.4 -1.3 3.4 -2.8 0 -3.5 -0.4 -3.5 -2z"/>
  <path d="M233.6 177.8 c-2.5 -5.1 -4.6 -9.8 -4.6 -10.5 0 -0.7 -0.9 -1.3 -2 -1.3 -2.3 0 -4.7 -4.1 -5.6 -9.8 -0.6 -4 -0.7 -4.1 -5.5 -4.7 -4.1 -0.6 -5 -1.1 -5.5 -3.1 -0.3 -1.3 -1.5 -2.6 -2.5 -2.9 -1 -0.4 -1.9 -1 -1.9 -1.5 0 -0.5 -1.7 -1.1 -3.7 -1.3 -2.1 -0.2 -0.3 -0.4 4 -0.5 7.7 -0.2 7.7 -0.2 7.7 2.8 0 2.9 0.1 3 5 3 5.6 0 5.6 -0.1 6.5 8.3 0.5 4.7 1 5.7 2.6 5.7 1 0 1.9 0.7 1.9 1.5 0 0.8 0.6 1.5 1.4 1.5 1.4 0 2.6 2.9 2.6 6.8 0 1.3 0.6 2.2 1.5 2.2 1 0 1.5 1 1.5 3 0 2 0.5 3 1.5 3 1 0 1.5 1.1 1.5 3.5 0 1.9 -0.4 3.5 -0.9 3.5 -0.6 0 -3 -4.1 -5.5 -9.2z"/>
  <path d="M257 181.9 c0 -2.2 0.5 -3.2 2 -3.6 1.4 -0.4 2 -1.4 2 -3.4 0 -2.4 0.4 -2.9 2.5 -2.9 2.5 0 2.5 0 0.9 3.8 -0.9 2 -1.8 4.2 -2.1 4.9 -0.2 0.6 -1.6 1.9 -2.9 2.8 -2.4 1.5 -2.4 1.5 -2.4 -1.6z"/>
  <path d="M276 181.8 c0 -2.2 5.1 -35.3 5.5 -35.6 0.3 -0.3 0.5 -0.3 0.5 0 0 2.2 -5.1 35.3 -5.5 35.6 -0.3 0.3 -0.5 0.3 -0.5 0z"/>
  <path d="M151 173 c0 -4.5 2.3 -5.7 3.4 -1.7 1.1 4.1 0.7 5.7 -1.4 5.7 -1.7 0 -2 -0.7 -2 -4z"/>
  <path d="M264 166.5 c0 -2.8 0.4 -3.5 2 -3.5 2.1 0 2.4 1 1.4 4.8 -1 3.6 -3.4 2.7 -3.4 -1.3z"/>
  <path d="M266.4 155.5 c0.4 -4.2 0.3 -6.5 -0.4 -6.5 -0.5 0 -1 -0.9 -1 -2 0 -1.2 0.7 -2 1.8 -2 3.6 0 4.4 1.5 3.7 6.6 -1.2 8.9 -1.6 10.4 -3.2 10.4 -1.3 0 -1.5 -1 -0.9 -6.5z"/>
  <path d="M134 159 c0 -2.1 1 -2.4 4.8 -1.4 3.6 1 2.7 3.4 -1.3 3.4 -2.8 0 -3.5 -0.4 -3.5 -2z"/>
  <path d="M245 145 c0 -2.1 1 -2.4 4.8 -1.4 3.6 1 2.7 3.4 -1.3 3.4 -2.8 0 -3.5 -0.4 -3.5 -2z"/>
  <path d="M226 144 c0 -2.1 2.3 -2.6 6.8 -1.4 4.1 1.1 2.6 3.4 -2.3 3.4 -3.8 0 -4.5 -0.3 -4.5 -2z"/>
 </g>
 <g fill="#525252">
  <path d="M153.3 274 c-2.9 -1 -9.3 -2.8 -14.3 -4 -5.9 -1.5 -9 -2.7 -9 -3.6 0 -0.8 0.7 -1.4 1.5 -1.4 2.1 0 1.9 -1.3 -0.9 -4.3 -5.7 -6.1 -7.4 -11.3 -9.5 -29.2 -1.3 -11.2 -1.6 -17.2 -1 -17.6 0.7 -0.4 -0.2 -10.8 -2.5 -30.1 -4 -32.6 -4 -33.2 -2.6 -32.3 0.6 0.4 0.8 1 0.6 1.4 -0.3 0.3 0.3 0.7 1.2 0.8 0.9 0 6.2 1 11.7 2.1 5.5 1.1 13.5 2.3 17.8 2.7 7 0.6 7.7 0.9 7.7 2.8 0 1.2 1.4 27.2 3.1 57.7 2.1 35.7 3.6 55.8 4.3 56.2 2.1 1.4 -2.9 0.7 -8.1 -1.2z"/>
  <path d="M120.8 265.3 c-3.3 -0.8 -2 -3.3 1.7 -3.3 2.8 0 3.5 0.4 3.5 2 0 2 -1.4 2.3 -5.2 1.3z"/>
  <path d="M112.3 261.5 c-4.3 -1.8 -4.2 -3.5 0.2 -3.5 3.1 0 3.5 0.3 3.5 2.5 0 1.4 -0.1 2.5 -0.2 2.5 -0.2 -0.1 -1.8 -0.7 -3.5 -1.5z"/>
  <path d="M101.1 254.5 c-5.7 -5.3 -7.1 -8.5 -3.7 -8.5 2.9 0 10.6 7.9 10.6 10.8 0 3.2 -1.5 2.7 -6.9 -2.3z"/>
  <path d="M102.1 225.1 c0.7 -1 2 -2.3 3 -3 1.7 -1 1.9 -0.8 1.9 1.9 0 2.7 -0.3 3 -3 3 -2.7 0 -2.9 -0.2 -1.9 -1.9z"/>
  <path d="M250.8 226.3 c-1 -0.2 -1.8 -1.1 -1.8 -1.8 0 -2.6 -7.8 -5.6 -23.2 -9 -4.8 -1 -5.8 -1 -5.8 0.1 0 1 -0.7 1.1 -3.2 0.2 -1.8 -0.6 -3.5 -1.5 -3.8 -1.9 -0.9 -1.3 -29.1 -2.2 -33.7 -1.1 -4.2 1 -4.2 1 -6.7 -6.2 -2.8 -7.8 -4.9 -16.6 -4.2 -17.3 0.3 -0.3 1 1.5 1.6 3.8 1.9 7.3 5.2 17.1 5.6 16.6 0.3 -0.2 0 -1.5 -0.5 -2.8 -1.4 -3.9 1 -16.8 3.2 -17 0.7 -0.1 -0.1 -0.4 -1.8 -0.8 -5.1 -1.2 10.8 -3.1 25.3 -3.1 11.3 0 28.6 1.8 35 3.6 1.2 0.3 2.2 0.2 2.2 -0.3 0 -0.4 -1.8 -4.4 -4 -8.8 -2.2 -4.4 -4.5 -9.4 -5.1 -11.2 -0.7 -2.2 -1.9 -3.5 -3.4 -3.9 -2.6 -0.6 -4.1 -4.1 -4.8 -10.4 -0.3 -3.5 -0.4 -3.5 -5.5 -3.8 -5.5 -0.3 -5.5 -0.3 -5.2 -6.9 0.1 -0.5 -1.6 -1.1 -3.7 -1.5 -5.4 -1 34.8 0.1 47.6 1.2 15.1 1.4 16 1.7 15.6 4.3 -0.2 1.2 -0.6 4.7 -0.9 7.7 -0.4 3 -1.9 9.3 -3.3 14 -2.9 9 -7.8 15.7 -14.9 20.1 -4 2.4 -4.2 3.1 -1.1 4.4 2.3 1.1 3.2 3.7 7.4 23.3 2.1 9.2 2.1 9.2 -1.6 9.1 -2 -0.1 -4.4 -0.3 -5.3 -0.6z m-60 -17 c-1 -0.2 -2.6 -0.2 -3.5 0 -1 0.3 -0.2 0.5 1.7 0.5 1.9 0 2.7 -0.2 1.8 -0.5z"/>
  <path d="M263.8 226.3 c1.2 -0.2 3 -0.2 4 0 0.9 0.3 -0.1 0.5 -2.3 0.4 -2.2 0 -3 -0.2 -1.7 -0.4z"/>
  <path d="M231.3 223.1 c-4.3 -2.1 -4.2 -4.1 0.2 -4.1 3.2 0 3.5 0.2 3.5 3 0 1.7 -0.1 2.9 -0.2 2.9 -0.2 -0.1 -1.8 -0.9 -3.5 -1.8z"/>
  <path d="M272.2 210 c0 -1.9 0.2 -2.7 0.5 -1.7 0.2 0.9 0.2 2.5 0 3.5 -0.3 0.9 -0.5 0.1 -0.5 -1.8z"/>
  <path d="M273.2 203 c0 -1.9 0.2 -2.7 0.5 -1.7 0.2 0.9 0.2 2.5 0 3.5 -0.3 0.9 -0.5 0.1 -0.5 -1.8z"/>
  <path d="M274.2 196 c0 -1.9 0.2 -2.7 0.5 -1.7 0.2 0.9 0.2 2.5 0 3.5 -0.3 0.9 -0.5 0.1 -0.5 -1.8z"/>
  <path d="M275.2 189 c0 -1.9 0.2 -2.7 0.5 -1.7 0.2 0.9 0.2 2.5 0 3.5 -0.3 0.9 -0.5 0.1 -0.5 -1.8z"/>
  <path d="M276.2 182 c0 -1.9 0.2 -2.7 0.5 -1.7 0.2 0.9 0.2 2.5 0 3.5 -0.3 0.9 -0.5 0.1 -0.5 -1.8z"/>
  <path d="M277.2 175 c0 -1.9 0.2 -2.7 0.5 -1.7 0.2 0.9 0.2 2.5 0 3.5 -0.3 0.9 -0.5 0.1 -0.5 -1.8z"/>
  <path d="M278.2 168 c0 -1.9 0.2 -2.7 0.5 -1.7 0.2 0.9 0.2 2.5 0 3.5 -0.3 0.9 -0.5 0.1 -0.5 -1.8z"/>
  <path d="M279.2 161 c0 -1.9 0.2 -2.7 0.5 -1.7 0.2 0.9 0.2 2.5 0 3.5 -0.3 0.9 -0.5 0.1 -0.5 -1.8z"/>
 </g>
 <g fill="#4a4a4a">
  <path d="M155.1 274.6 c-4.2 -1.5 -5 -3.1 -1.7 -3.1 1.3 0 2.2 0.3 2 0.7 -0.2 0.3 1 1.1 2.6 1.7 3.1 1 4 2.2 1.8 2 -0.7 0 -2.8 -0.6 -4.7 -1.3z"/>
  <path d="M159.3 268 c0 -3 0.2 -4.3 0.4 -2.7 0.2 1.5 0.2 3.9 0 5.5 -0.2 1.5 -0.4 0.2 -0.4 -2.8z"/>
  <path d="M141.8 270.8 c-2.2 -0.6 -3.8 -1.7 -4.1 -2.9 -0.3 -1 -1.2 -1.9 -2.1 -1.9 -1 0 -1.6 -0.9 -1.6 -2.4 0 -1.8 -0.6 -2.5 -2.2 -2.8 -1.9 -0.2 -2.3 -1 -2.6 -4.3 -0.2 -4 -0.2 -4 1.3 -1.2 0.9 1.5 1.8 2.7 2.1 2.7 0.3 0 0.2 -0.5 -0.2 -1.2 -0.4 -0.7 -0.3 -0.8 0.5 -0.4 0.6 0.4 0.9 1.1 0.6 1.5 -0.7 1.2 3.2 4.4 4.3 3.7 0.5 -0.3 1.5 0.1 2.2 0.9 0.7 0.8 0.9 1.5 0.5 1.5 -0.4 0 -0.2 0.7 0.5 1.5 0.7 0.9 1.9 1.4 2.7 1.1 0.8 -0.3 1.2 -0.2 0.9 0.3 -0.3 0.4 0.6 1.3 1.9 1.9 1.4 0.7 2.5 1.6 2.5 2.2 0 1.2 -2.2 1.1 -7.2 -0.2z"/>
  <path d="M124.8 266.3 c-3.3 -0.8 -2 -3.3 1.7 -3.3 2.8 0 3.5 0.4 3.5 2 0 2 -1.4 2.3 -5.2 1.3z"/>
  <path d="M110.3 260.5 c-4.3 -1.8 -4.2 -3.5 0.2 -3.5 3.1 0 3.5 0.3 3.5 2.5 0 1.4 -0.1 2.5 -0.2 2.5 -0.2 -0.1 -1.8 -0.7 -3.5 -1.5z"/>
  <path d="M158.3 252.5 c0 -3.8 0.2 -5.3 0.4 -3.2 0.2 2 0.2 5.2 0 7 -0.2 1.7 -0.4 0.1 -0.4 -3.8z"/>
  <path d="M96.1 248.2 c-0.5 -0.9 -1.2 -3.4 -1.6 -5.5 -0.6 -3.3 -0.5 -3.7 1.3 -3.7 1.4 0 2.1 0.9 2.6 3.1 1.3 6.9 0 10.4 -2.3 6.1z"/>
  <path d="M122 240 c0 -4.5 2.3 -5.7 3.4 -1.7 1.1 4.1 0.7 5.7 -1.4 5.7 -1.7 0 -2 -0.7 -2 -4z"/>
  <path d="M157.3 236 c0 -4.1 0.2 -5.8 0.4 -3.7 0.2 2 0.2 5.4 0 7.5 -0.2 2 -0.4 0.3 -0.4 -3.8z"/>
  <path d="M95.3 234.8 c1.9 -4.6 3.7 -4.8 3.7 -0.4 0 3.2 -0.3 3.6 -2.5 3.6 -2.4 0 -2.5 -0.1 -1.2 -3.2z"/>
  <path d="M121 231.5 c0 -4 2.4 -4.9 3.4 -1.2 1 3.7 0.7 4.7 -1.4 4.7 -1.6 0 -2 -0.7 -2 -3.5z"/>
  <path d="M120.2 222.9 c0.3 -3.6 0.2 -4 -1.7 -3.5 -1.1 0.3 -2.8 0.6 -3.7 0.6 -1 0 -1.8 0.7 -1.8 1.5 0 1 -1.1 1.5 -3.5 1.5 -1.9 0 -3.5 -0.3 -3.5 -0.8 0 -0.9 9.6 -6.7 12.8 -7.7 2.2 -0.7 2.3 -1 1.8 -6.8 -0.4 -3.9 -0.3 -5.4 0.3 -4.2 0.4 1.1 1.1 5.4 1.5 9.5 0.4 4.1 0.9 9 1.3 10.8 0.5 2.8 0.3 3.2 -1.7 3.2 -2 0 -2.2 -0.4 -1.8 -4.1z"/>
  <path d="M252.8 226.3 c-1 -0.2 -1.8 -0.9 -1.8 -1.4 0 -0.5 -0.6 -0.9 -1.4 -0.9 -0.8 0 -2.1 -0.6 -2.8 -1.3 -0.7 -0.7 -3.4 -1.9 -6 -2.6 -2.7 -0.8 -4.8 -1.7 -4.8 -2.1 0 -0.4 -2.5 -1.1 -5.5 -1.5 -4.6 -0.5 -5.5 -1 -5.5 -2.7 0 -1.8 0.4 -1.9 4.3 -1.3 2.3 0.4 7.8 2.1 12.2 3.7 4.4 1.6 8.8 3 9.7 3.1 0.9 0.1 1.4 0.5 1.2 0.9 -0.5 0.8 5.1 3.9 6 3.3 0.3 -0.3 0.4 -0.2 0.1 0.2 -0.3 0.3 0 1.2 0.6 2 0.9 1 0.6 1.3 -1.7 1.2 -1.6 -0.1 -3.7 -0.3 -4.6 -0.6z"/>
  <path d="M156.3 219 c0 -4.1 0.2 -5.8 0.4 -3.7 0.2 2 0.2 5.4 0 7.5 -0.2 2 -0.4 0.3 -0.4 -3.8z"/>
  <path d="M234.2 224.8 c-2 -2 -1.4 -2.8 2.3 -2.8 2.8 0 3.5 0.4 3.5 2 0 2.3 -3.8 2.8 -5.8 0.8z"/>
  <path d="M225.5 220 c-1.8 -2 -1.7 -2 2.3 -2 3.5 0 4.2 0.3 4.2 2 0 1.4 -0.7 2 -2.3 2 -1.3 0 -3.2 -0.9 -4.2 -2z"/>
  <path d="M220 216.8 c-4.5 -1.8 -14 -3.8 -21 -4.4 -11.9 -1.1 -7.7 -3.7 4.5 -2.8 3.9 0.3 9.1 0.6 11.6 0.8 5.1 0.3 8.2 2.5 7.7 5.5 -0.2 1.5 -0.7 1.7 -2.8 0.9z"/>
  <path d="M173.7 209.4 c-1.9 -5.2 -1.2 -6 0.8 -1 1.4 3.3 1.5 3.3 5.7 2.5 5.8 -1.1 7.8 -1.1 7.8 0.1 0 0.6 -1.5 1 -3.3 1 -1.7 0 -4.6 0.4 -6.3 0.9 -3 0.8 -3.1 0.7 -4.7 -3.5z"/>
  <path d="M155.3 201.5 c0 -3.8 0.2 -5.3 0.4 -3.2 0.2 2 0.2 5.2 0 7 -0.2 1.7 -0.4 0.1 -0.4 -3.8z"/>
  <path d="M119.6 198.9 c-1.1 -5 -2.8 -21.1 -2.3 -21.6 0.7 -0.6 1.3 3.1 2.7 14.6 0.9 8 0.7 12.1 -0.4 7z"/>
  <path d="M154.3 185 c0 -4.1 0.2 -5.8 0.4 -3.7 0.2 2 0.2 5.4 0 7.5 -0.2 2 -0.4 0.3 -0.4 -3.8z"/>
  <path d="M181.8 187.3 c1.2 -0.2 3 -0.2 4 0 0.9 0.3 -0.1 0.5 -2.3 0.4 -2.2 0 -3 -0.2 -1.7 -0.4z"/>
  <path d="M217.8 187.3 c1.2 -0.2 3.2 -0.2 4.5 0 1.2 0.2 0.2 0.4 -2.3 0.4 -2.5 0 -3.5 -0.2 -2.2 -0.4z"/>
  <path d="M194.2 186.3 c3.7 -0.2 10 -0.2 14 0 4 0.1 1 0.3 -6.7 0.3 -7.7 0 -11 -0.1 -7.3 -0.3z"/>
  <path d="M116.7 174.7 c-0.4 -1 -0.7 -2.8 -0.6 -4 0 -2.1 0.1 -2.1 1 0.2 0.5 1.4 0.8 3.2 0.7 4 -0.3 1.3 -0.5 1.3 -1.1 -0.2z"/>
  <path d="M153.3 167.5 c0 -3.8 0.2 -5.3 0.4 -3.2 0.2 2 0.2 5.2 0 7 -0.2 1.7 -0.4 0.1 -0.4 -3.8z"/>
  <path d="M115.6 166.3 c-0.2 -1 -0.8 -4.8 -1.2 -8.6 -0.6 -6.7 -0.6 -6.7 2.4 -5 3.4 2 3.6 3.1 0.2 1.3 -1.9 -1 -2.1 -0.9 -1.7 0.7 0.9 3 1.9 13.3 1.3 13.3 -0.2 0 -0.7 -0.8 -1 -1.7z"/>
  <path d="M147.8 159.3 c1.2 -0.2 3.2 -0.2 4.5 0 1.2 0.2 0.2 0.4 -2.3 0.4 -2.5 0 -3.5 -0.2 -2.2 -0.4z"/>
  <path d="M138.8 158.3 c1.2 -0.2 3.2 -0.2 4.5 0 1.2 0.2 0.2 0.4 -2.3 0.4 -2.5 0 -3.5 -0.2 -2.2 -0.4z"/>
  <path d="M128 157 c-1.7 -0.6 -0.9 -0.7 2.5 -0.3 2.8 0.3 5.2 0.7 5.4 0.9 0.8 0.7 -5.4 0.2 -7.9 -0.6z"/>
  <path d="M269.3 151.5 c0 -2.2 0.2 -3 0.4 -1.7 0.2 1.2 0.2 3 0 4 -0.3 0.9 -0.5 -0.1 -0.4 -2.3z"/>
  <path d="M261.5 145.8 c-3.8 -0.4 -12.8 -1.2 -20 -1.7 -8.9 -0.6 -10.9 -0.9 -6.3 -1 8.2 -0.1 31.5 1.9 34.3 3 2.4 1 1.1 0.9 -8 -0.3z"/>
  <path d="M212.8 142.3 c2.3 -0.2 5.9 -0.2 8 0 2 0.2 0.1 0.4 -4.3 0.4 -4.4 0 -6.1 -0.2 -3.7 -0.4z"/>
 </g>
 <g fill="#424242">
  <path d="M146.8 272.1 c-7.7 -2.3 -8.8 -2.9 -8.8 -4.8 0 -2.6 1.6 -3 3.9 -0.9 0.9 0.7 5 2.8 9.1 4.6 4.1 1.8 7.7 3.4 7.9 3.6 1.1 1 -4.2 -0.1 -12.1 -2.5z"/>
  <path d="M128.8 267.3 c-3.3 -0.8 -2 -3.3 1.7 -3.3 2.8 0 3.5 0.4 3.5 2 0 2 -1.4 2.3 -5.2 1.3z"/>
  <path d="M117.8 263.9 c-2.9 -1.6 -2.1 -2.9 1.7 -2.9 2.8 0 3.5 0.4 3.5 2 0 2.2 -2.4 2.6 -5.2 0.9z"/>
  <path d="M108.3 259.5 c-4.3 -1.8 -4.2 -3.5 0.2 -3.5 3.1 0 3.5 0.3 3.5 2.5 0 1.4 -0.1 2.5 -0.2 2.5 -0.2 -0.1 -1.8 -0.7 -3.5 -1.5z"/>
  <path d="M125.7 255.5 c-2.9 -5.9 -3.6 -11.5 -1.4 -11.5 0.6 0 2.3 2.6 3.6 5.7 1.4 3.1 3.6 6.9 4.9 8.4 2.4 2.9 2.4 2.9 -1 2.9 -3.1 0 -3.6 -0.4 -6.1 -5.5z"/>
  <path d="M94 239.4 c0 -2.1 1.8 -5.4 3 -5.4 0.6 0 1 1.6 1 3.5 0 2.8 -0.4 3.5 -2 3.5 -1.1 0 -2 -0.7 -2 -1.6z"/>
  <path d="M121 232.5 c0 -4 2.4 -4.9 3.4 -1.2 1 3.7 0.7 4.7 -1.4 4.7 -1.6 0 -2 -0.7 -2 -3.5z"/>
  <path d="M120 224.5 c0 -4 2.4 -4.9 3.4 -1.2 1 3.7 0.7 4.7 -1.4 4.7 -1.6 0 -2 -0.7 -2 -3.5z"/>
  <path d="M253.8 226.2 c-2 -0.2 -2.8 -0.9 -2.8 -2.3 0 -1.5 -0.7 -1.9 -3.5 -1.9 -3.1 0 -3.5 -0.3 -3.5 -2.5 0 -2.8 0.2 -2.7 8.6 1.7 2.7 1.4 5.6 3.3 6.3 4.2 1.3 1.6 1.5 1.6 -5.1 0.8z"/>
  <path d="M233.3 223.8 c-1.5 -1.7 -1.3 -1.8 3.5 -1.8 4.6 0 5.2 0.3 5.2 2 0 1.7 -0.6 2 -3.5 1.8 -2 -0.1 -4.3 -1 -5.2 -2z"/>
  <path d="M105.3 222.5 c3.6 -3.2 4.7 -3.1 4.7 0 0 2.2 -0.4 2.5 -3.7 2.5 -3.8 -0.1 -3.8 -0.1 -1 -2.5z"/>
  <path d="M119 217.1 c0 -3.5 2.6 -4.9 3.4 -1.8 1 3.7 0.7 4.7 -1.4 4.7 -1.5 0 -2 -0.7 -2 -2.9z"/>
  <path d="M222.2 217.7 c-2.6 -1.5 -3.1 -2.4 -2.6 -4.1 0.9 -2.9 0.9 -2.9 4.4 -2.1 2.9 0.6 3 0.9 2.4 4.3 -0.4 2.1 -0.7 3.7 -0.8 3.8 0 0.1 -1.6 -0.8 -3.4 -1.9z"/>
  <path d="M231.3 217.3 c-1.5 -0.3 -2.3 -1.2 -2.3 -2.5 0 -1.8 0.4 -1.9 3.7 -1.3 4.5 0.8 7.3 2.2 7.3 3.5 0 1 -4.4 1.1 -8.7 0.3z"/>
  <path d="M174.7 211.8 c-0.4 -1.4 -0.2 -1.6 0.6 -1 0.7 0.6 3.2 0.7 6.2 0.2 6.7 -1.2 7.5 -1.2 7.5 0 0 0.6 -1.7 1 -3.8 1 -2 0 -5.1 0.4 -6.9 0.9 -2.7 0.8 -3.2 0.6 -3.6 -1.1z"/>
  <path d="M212 212 c0 -2.1 1 -2.4 4.8 -1.4 3.6 1 2.7 3.4 -1.3 3.4 -2.8 0 -3.5 -0.4 -3.5 -2z"/>
  <path d="M200.8 212.3 c-3.1 -0.8 -1.9 -2.3 1.7 -2.3 2.4 0 3.5 0.5 3.5 1.5 0 1.5 -1.7 1.7 -5.2 0.8z"/>
  <path d="M120.5 207 c-0.4 -1.7 -0.5 -3.4 -0.2 -3.6 0.3 -0.3 0.8 0.9 1.2 2.6 0.4 1.7 0.5 3.4 0.2 3.6 -0.3 0.3 -0.8 -0.9 -1.2 -2.6z"/>
  <path d="M172 204.8 c-1.3 -3.2 -4.2 -14.9 -3.7 -15.4 0.2 -0.2 1.5 3.7 2.8 8.6 2.5 8.8 2.8 11.3 0.9 6.8z"/>
  <path d="M119.5 199 c-0.4 -1.7 -0.5 -3.4 -0.2 -3.6 0.3 -0.3 0.8 0.9 1.2 2.6 0.4 1.7 0.5 3.4 0.2 3.6 -0.3 0.3 -0.8 -0.9 -1.2 -2.6z"/>
  <path d="M118.6 190.9 c-0.8 -4.2 0 -5 0.9 -0.9 0.4 1.7 0.5 3.4 0.2 3.6 -0.2 0.3 -0.7 -1 -1.1 -2.7z"/>
  <path d="M117.5 182 c-0.4 -1.7 -0.5 -3.4 -0.2 -3.6 0.3 -0.3 0.8 0.9 1.2 2.6 0.4 1.7 0.5 3.4 0.2 3.6 -0.3 0.3 -0.8 -0.9 -1.2 -2.6z"/>
  <path d="M116.5 174 c-0.4 -1.7 -0.5 -3.4 -0.2 -3.6 0.3 -0.3 0.8 0.9 1.2 2.6 0.4 1.7 0.5 3.4 0.2 3.6 -0.3 0.3 -0.8 -0.9 -1.2 -2.6z"/>
  <path d="M115.5 166 c-0.4 -1.7 -0.5 -3.4 -0.2 -3.6 0.3 -0.3 0.8 0.9 1.2 2.6 0.4 1.7 0.5 3.4 0.2 3.6 -0.3 0.3 -0.8 -0.9 -1.2 -2.6z"/>
  <path d="M114.6 157.4 c-0.4 -2 -0.5 -3.8 -0.2 -4.1 0.2 -0.3 0.8 1.1 1.2 3.1 0.3 2.1 0.4 3.9 0.1 4.2 -0.2 0.3 -0.8 -1.1 -1.1 -3.2z"/>
 </g>
 <g fill="#3a3a3a">
  <path d="M157 274.9 c-1.4 -0.6 -10.6 -3.2 -20.5 -5.9 -9.9 -2.7 -20.9 -6.2 -24.5 -7.9 -8.3 -3.9 -15.4 -11 -17 -16.9 -2.5 -9.5 4.9 -19.8 19.5 -27.3 6.6 -3.4 6.6 -3.4 6.1 -10.9 -0.5 -7.5 -0.5 -7.5 0.4 -1 0.5 3.6 1.9 14.4 3 24 1.6 13.9 2.6 18.6 4.6 23 3.5 7.3 12.6 14.9 23.6 19.6 4.5 1.9 8.4 3.7 8.7 4 0.7 0.7 -1.2 0.3 -3.9 -0.7z"/>
  <path d="M246.8 226 c-8.4 -0.5 -12.3 -1.1 -13.5 -2.2 -1 -0.9 -2.9 -1.9 -4.3 -2.3 -1.4 -0.4 -3.4 -1.5 -4.5 -2.6 -1.9 -1.7 -12.6 -5 -20.7 -6.4 -2.1 -0.3 -3.8 -1.1 -3.8 -1.7 0 -1.9 20.4 -0.2 31.4 2.7 10.6 2.6 24.5 8.6 27.2 11.6 1 1.1 1.3 1.8 0.8 1.7 -0.5 0 -6.2 -0.4 -12.6 -0.8z"/>
  <path d="M173.6 208.9 c-0.9 -2.3 -1.5 -4.3 -1.2 -4.6 0.2 -0.2 0.9 1.2 1.6 3.2 0.7 2 2.1 4 3.4 4.5 2.1 0.9 2.1 0.9 0 0.9 -1.6 0.1 -2.6 -0.9 -3.8 -4z"/>
  <path d="M184.5 211 c2.8 -1.2 5.5 -1.2 5.5 0 0 0.6 -1.7 1 -3.7 0.9 -3.1 0 -3.4 -0.2 -1.8 -0.9z"/>
  <path d="M170.6 200.4 c-0.4 -1.4 -0.5 -2.8 -0.3 -3.1 0.3 -0.2 0.8 0.8 1.1 2.3 0.4 1.4 0.5 2.8 0.3 3.1 -0.3 0.2 -0.8 -0.8 -1.1 -2.3z"/>
  <path d="M119.3 194.5 c0 -2.2 0.2 -3 0.4 -1.7 0.2 1.2 0.2 3 0 4 -0.3 0.9 -0.5 -0.1 -0.4 -2.3z"/>
  <path d="M117.5 182.5 c-0.4 -4.2 -0.5 -7.9 -0.2 -8.1 0.2 -0.3 0.8 2.9 1.2 7.1 0.4 4.2 0.5 7.9 0.2 8.1 -0.2 0.3 -0.8 -2.9 -1.2 -7.1z"/>
  <path d="M115.3 161.5 c0 -2.2 0.2 -3 0.4 -1.7 0.2 1.2 0.2 3 0 4 -0.3 0.9 -0.5 -0.1 -0.4 -2.3z"/>
  <path d="M114.2 154 c0 -1.9 0.2 -2.7 0.5 -1.7 0.2 0.9 0.2 2.5 0 3.5 -0.3 0.9 -0.5 0.1 -0.5 -1.8z"/>
 </g>
 <g fill="#313131">
  <path d="M149.5 272.5 c-2.2 -0.7 -9.6 -2.8 -16.5 -4.6 -23.3 -6 -35.4 -13.7 -37.9 -24 -2.3 -9.6 4.8 -19.5 19.2 -26.8 6 -3.1 6.7 -3.7 6.8 -6.5 0.1 -1.7 1.2 5.7 2.5 16.4 2.9 24.1 4.4 28 14 35.8 3.5 2.9 8.9 6.4 11.9 7.7 3 1.4 5.5 2.7 5.5 3 0 0.7 -0.9 0.5 -5.5 -1z m-11.5 -7.5 c-5.2 -4.7 -8.7 -6.7 -6 -3.5 2.1 2.6 0.5 1.6 -2.1 -1.2 -1.3 -1.4 -1.8 -2.3 -1.1 -1.9 1.8 1 1.5 0.2 -1.5 -5.7 -2.2 -4.2 -3.1 -8.3 -4.8 -21.5 -2.1 -16.3 -2.1 -16.3 -8.4 -13 -23.8 12.2 -24.7 31.3 -2 41.8 5.2 2.4 26.3 9.1 30.9 9.9 0.3 0 -2 -2.2 -5 -4.9z"/>
  <path d="M120.2 228 c0 -1.9 0.2 -2.7 0.5 -1.7 0.2 0.9 0.2 2.5 0 3.5 -0.3 0.9 -0.5 0.1 -0.5 -1.8z"/>
  <path d="M257.7 226.3 c-0.4 -0.3 -4.2 -0.6 -8.4 -0.6 -7.8 0 -7.8 0 -0.8 -0.6 4.6 -0.4 6.4 -0.9 5.2 -1.4 -1.1 -0.4 -2.3 -0.4 -2.8 -0.1 -0.5 0.3 -0.8 0 -0.7 -0.7 0.4 -1.5 -9.2 -5.4 -20.2 -8.1 -7.6 -1.9 -12.2 -2.3 -32.2 -2.7 -3.7 -0.1 -5.8 -0.5 -5.8 -1.3 0 -2.1 28 -0.2 39.4 2.6 10.6 2.7 24.5 8.7 27.2 11.7 1.5 1.7 0.7 2.8 -0.9 1.2z"/>
  <path d="M232.1 223 c-1.3 -1.1 -3.1 -2 -4.1 -2 -0.9 0 -2.5 -0.8 -3.4 -1.9 -0.9 -1 -4.3 -2.6 -7.4 -3.6 -7.7 -2.3 -8.4 -2.6 -3.7 -1.8 2.2 0.3 5.4 0.6 7 0.6 2.5 -0.1 2.7 0 1 0.7 -1.7 0.7 -1.7 0.9 -0.2 0.9 0.9 0.1 2.6 1 3.7 2.1 1.1 1.1 2.6 2 3.4 2 0.7 0 2.4 0.9 3.8 1.9 1.3 1.1 4 2.1 5.9 2.4 3.4 0.4 3.4 0.4 -0.1 0.5 -2.2 0.1 -4.4 -0.6 -5.9 -1.8z"/>
  <path d="M177 212 c1.4 -0.4 3.4 -0.8 4.5 -0.8 1.6 0 1.5 0.2 -0.5 0.8 -1.4 0.4 -3.4 0.8 -4.5 0.8 -1.6 0 -1.5 -0.2 0.5 -0.8z"/>
  <path d="M185.5 211 c2.8 -1.2 5.5 -1.2 5.5 0 0 0.6 -1.7 1 -3.7 0.9 -3.1 0 -3.4 -0.2 -1.8 -0.9z"/>
  <path d="M120.2 203 c0 -1.9 0.2 -2.7 0.5 -1.7 0.2 0.9 0.2 2.5 0 3.5 -0.3 0.9 -0.5 0.1 -0.5 -1.8z"/>
  <path d="M117.2 178 c0 -1.9 0.2 -2.7 0.5 -1.7 0.2 0.9 0.2 2.5 0 3.5 -0.3 0.9 -0.5 0.1 -0.5 -1.8z"/>
  <path d="M116.2 170 c0 -1.9 0.2 -2.7 0.5 -1.7 0.2 0.9 0.2 2.5 0 3.5 -0.3 0.9 -0.5 0.1 -0.5 -1.8z"/>
 </g>
 <g fill="#292929">
  <path d="M154.8 274.2 c-2.7 -0.8 -4.8 -1.9 -4.8 -2.4 0 -0.8 7.9 1.9 9.5 3.4 1.1 1 1.1 1 -4.7 -1z"/>
  <path d="M144.4 269.7 c-3.3 -1.9 -11.5 -8.9 -11 -9.4 0.2 -0.3 2.9 1.5 5.9 3.9 2.9 2.4 6.2 4.8 7.3 5.5 2.5 1.6 0.5 1.6 -2.2 0z"/>
  <path d="M125.2 248.3 c-0.5 -1 -1.2 -4.9 -1.6 -8.8 -0.4 -3.8 -0.9 -8.5 -1.3 -10.4 -0.4 -2.2 -0.2 -3.2 0.4 -2.8 0.6 0.4 1.4 4 1.8 8 0.3 4.1 1 9.1 1.5 11.3 1 4.3 0.6 5.5 -0.8 2.7z"/>
  <path d="M253.2 223.3 c-2.4 -1.4 -4.1 -2.7 -3.8 -3 0.6 -0.7 8.6 3.8 8.6 4.9 0 1 0.4 1.1 -4.8 -1.9z"/>
  <path d="M121.5 222.2 c-0.8 -3.6 -0.9 -11.1 -0.3 -11.8 0.3 -0.2 0.9 2.7 1.2 6.7 0.8 7.4 0.3 10.2 -0.9 5.1z"/>
  <path d="M237 216.5 c-3.6 -1.3 -5.6 -2.4 -4.5 -2.4 2.6 -0.1 11.5 3.1 11.5 4.1 0 0.4 -0.1 0.8 -0.2 0.7 -0.2 0 -3.2 -1.1 -6.8 -2.4z"/>
  <path d="M216.7 212.5 c-10.4 -1.5 -13.1 -3 -3.7 -2.1 7.6 0.8 17 2.6 17 3.2 0 0.6 -3.4 0.3 -13.3 -1.1z"/>
  <path d="M186.5 211 c2.2 -0.9 19.2 -1.4 18.3 -0.4 -0.3 0.3 -5 0.7 -10.5 0.9 -6.3 0.3 -9.1 0.1 -7.8 -0.5z"/>
 </g>
 <g fill="#212121">
  <path d="M148.5 271.6 c-8.5 -3.9 -18.3 -13 -21.6 -20 -1.6 -3.4 -2.9 -7.2 -2.8 -8.6 0.1 -2 0.4 -1.7 1.4 1.5 3.6 11.6 11.8 20.7 23.6 26.1 2.7 1.3 4.9 2.6 4.9 2.9 0 0.7 0 0.7 -5.5 -1.9z"/>
  <path d="M123.5 237 c-0.4 -1.7 -0.5 -3.4 -0.2 -3.6 0.3 -0.3 0.8 0.9 1.2 2.6 0.4 1.7 0.5 3.4 0.2 3.6 -0.3 0.3 -0.8 -0.9 -1.2 -2.6z"/>
  <path d="M122.6 229.3 c-1.1 -5.8 -1.6 -13.8 -0.7 -11.8 0.9 2.3 2.4 14.5 1.7 14.5 -0.2 0 -0.7 -1.2 -1 -2.7z"/>
  <path d="M257.4 225.9 c-0.4 -0.7 -4.4 -2.9 -9 -5.1 -8.9 -4.2 -10.9 -5.6 -4.6 -3.4 7.3 2.6 18.5 9.6 15.3 9.6 -0.5 0 -1.3 -0.5 -1.7 -1.1z"/>
  <path d="M228.5 214 c-2 -0.9 -2 -0.9 0 -0.9 1.1 0 2.9 0.4 4 0.9 2 0.9 2 0.9 0 0.9 -1.1 0 -2.9 -0.4 -4 -0.9z"/>
  <path d="M218.5 212 c-2 -0.9 -2 -0.9 0 -0.9 1.1 0 2.9 0.4 4 0.9 2 0.9 2 0.9 0 0.9 -1.1 0 -2.9 -0.4 -4 -0.9z"/>
  <path d="M188.5 211 c1.1 -0.5 3.1 -0.9 4.5 -0.9 2.3 0 2.3 0.1 0.5 0.9 -1.1 0.5 -3.1 0.9 -4.5 0.9 -2.3 0 -2.3 -0.1 -0.5 -0.9z"/>
  <path d="M209.5 211 c-2 -0.9 -2 -0.9 0 -0.9 1.1 0 2.9 0.4 4 0.9 2 0.9 2 0.9 0 0.9 -1.1 0 -2.9 -0.4 -4 -0.9z"/>
 </g>
 <g fill="#191919">
  <path d="M150.2 272.2 c-6.4 -2.6 -21.2 -14.3 -21.2 -16.5 0 -0.7 0.5 -0.5 1 0.4 2 3.4 14.8 12.8 21 15.4 3.6 1.5 6.7 2.9 6.9 3.1 1.1 1 -1.9 0.1 -7.7 -2.4z"/>
  <path d="M126.2 249.5 c-0.7 -1.4 -1.2 -3.1 -1.2 -3.8 0.1 -0.7 0.7 0.3 1.6 2.2 1.7 3.9 1.3 5.4 -0.4 1.6z"/>
  <path d="M124.3 240.5 c0 -2.2 0.2 -3 0.4 -1.7 0.2 1.2 0.2 3 0 4 -0.3 0.9 -0.5 -0.1 -0.4 -2.3z"/>
  <path d="M123.3 232.5 c0 -2.2 0.2 -3 0.4 -1.7 0.2 1.2 0.2 3 0 4 -0.3 0.9 -0.5 -0.1 -0.4 -2.3z"/>
  <path d="M122.3 224 c0 -2.5 0.2 -3.5 0.4 -2.2 0.2 1.2 0.2 3.2 0 4.5 -0.2 1.2 -0.4 0.2 -0.4 -2.3z"/>
  <path d="M254.7 224.1 c-6 -3.6 -7.4 -5 -2.2 -2.3 3.9 2 8.5 5.2 7.5 5.1 -0.3 0 -2.6 -1.3 -5.3 -2.8z"/>
  <path d="M121.2 216 c0 -1.9 0.2 -2.7 0.5 -1.7 0.2 0.9 0.2 2.5 0 3.5 -0.3 0.9 -0.5 0.1 -0.5 -1.8z"/>
  <path d="M237.5 216.5 c-3.8 -1.3 -6.3 -2.4 -5.4 -2.4 1.7 -0.1 13.9 3.9 13.9 4.5 0 0.6 -1 0.4 -8.5 -2.1z"/>
  <path d="M223.5 213 c-2.7 -0.7 -2.7 -0.8 -0.5 -0.8 1.4 0 3.6 0.4 5 0.8 2 0.6 2.1 0.8 0.5 0.8 -1.1 0 -3.3 -0.4 -5 -0.8z"/>
  <path d="M213.8 211.3 c1.2 -0.2 3.2 -0.2 4.5 0 1.2 0.2 0.2 0.4 -2.3 0.4 -2.5 0 -3.5 -0.2 -2.2 -0.4z"/>
 </g>
 <g fill="#101010">
  <path d="M122.2 224 c0 -1.9 0.2 -2.7 0.5 -1.7 0.2 0.9 0.2 2.5 0 3.5 -0.3 0.9 -0.5 0.1 -0.5 -1.8z"/>
  <path d="M253.8 223.4 c-3.8 -2 -3.6 -2.8 0.2 -0.9 1.7 0.9 3 1.8 3 2 0 0.7 -0.1 0.6 -3.2 -1.1z"/>
  <path d="M182.8 211.3 c1.2 -0.2 3 -0.2 4 0 0.9 0.3 -0.1 0.5 -2.3 0.4 -2.2 0 -3 -0.2 -1.7 -0.4z"/>
  <path d="M197.3 210.3 c2.6 -0.2 6.7 -0.2 9 0 2.3 0.2 0.2 0.3 -4.8 0.3 -4.9 0 -6.8 -0.1 -4.2 -0.3z"/>
 </g>
 <g fill="#080808">
 </g>
 <g fill="#000000">
 </g>
</svg>