<svg height="792pt" stroke-linejoin="round" viewBox="0 0 612 792" width="612pt" xmlns="http://www.w3.org/2000/svg" xmlns:xlink="http://www.w3.org/1999/xlink"><defs stroke-linejoin="round"><clipPath id="a" stroke-linejoin="round"><path d="m76.5 412.971429h474.3v339.428571h-474.3z"/></clipPath><clipPath id="b" stroke-linejoin="round"><path d="m76.5 39.6h474.3v339.428571h-474.3z"/></clipPath><path id="c" d="m0 0v-4" stroke="#000" stroke-linejoin="round" stroke-width=".5"/><path id="d" d="m0 0v4" stroke="#000" stroke-linejoin="round" stroke-width=".5"/><path id="e" d="m0 0h4" stroke="#000" stroke-linejoin="round" stroke-width=".5"/><path id="f" d="m0 0h-4" stroke="#000" stroke-linejoin="round" stroke-width=".5"/><path id="g" d="m31.7812 66.4062q-7.6093 0-11.4531-7.5-3.8281-7.4843-3.8281-22.5312 0-14.9844 3.8281-22.4844 3.8438-7.49998 11.4531-7.49998 7.6719 0 11.5 7.49998 3.8438 7.5 3.8438 22.4844 0 15.0469-3.8438 22.5312-3.8281 7.5-11.5 7.5m0 7.8126q12.2657 0 18.7344-9.7032 6.4688-9.6875 6.4688-28.1406 0-18.4062-6.4688-28.10938-6.4687-9.6875-18.7344-9.6875-12.25 0-18.7187 9.6875-6.46875 9.70318-6.46875 28.10938 0 18.4531 6.46875 28.1406 6.4687 9.7032 18.7187 9.7032" stroke-linejoin="round"/><path id="h" d="m37.7969 64.3125-24.9063-38.9219h24.9063zm-2.5938 8.5937h12.4063v-47.5156h10.4062v-8.2031h-10.4062v-17.1875h-9.8125v17.1875h-32.90628v9.5156z" stroke-linejoin="round"/><path id="i" d="m10.7969 72.9062h38.7187v-8.3124h-29.6875v-17.8594q2.1407.7344 4.2813 1.0937 2.1562.3594 4.3125.3594 12.2031 0 19.3281-6.6875 7.1406-6.6875 7.1406-18.1094 0-11.7656-7.3281-18.29685-7.3281-6.51563-20.6563-6.51563-4.5937 0-9.3593.781255-4.75.78125-9.82815 2.343745v9.92188q4.39065-2.39062 9.07815-3.5625 4.6875-1.17188 9.9062-1.17188 8.4531 0 13.375 4.43748 4.9375 4.4375 4.9375 12.0625 0 7.6094-4.9375 12.0469-4.9219 4.4531-13.375 4.4531-3.9531 0-7.8906-.875-3.9219-.875-8.0156-2.7344z" stroke-linejoin="round"/><path id="j" d="m33.0156 40.375q-6.6406 0-10.5312-4.5469-3.875-4.5312-3.875-12.4375 0-7.8594 3.875-12.4375 3.8906-4.56248 10.5312-4.56248 6.6406 0 10.5156 4.56248 3.875 4.5781 3.875 12.4375 0 7.9063-3.875 12.4375-3.875 4.5469-10.5156 4.5469m19.5782 30.9219v-8.9844q-3.7188 1.75-7.5 2.6719-3.7813.9375-7.5.9375-9.7657 0-14.9219-6.5938-5.1407-6.5937-5.875-19.9219 2.875 4.25 7.2187 6.5157 4.3594 2.2656 9.5782 2.2656 10.9843 0 17.3593-6.6719 6.375-6.6562 6.375-18.125 0-11.2344-6.6406-18.03122-6.6406-6.78126-17.6719-6.78126-12.6562 0-19.3437 9.6875-6.68752 9.70318-6.68752 28.10938 0 17.2812 8.20312 27.5625 8.2031 10.2813 22.0156 10.2813 3.7188 0 7.5-.7344 3.7813-.7344 7.8907-2.1875" stroke-linejoin="round"/><path id="k" d="m8.20312 72.9062h46.87498v-4.2031l-26.4687-68.7031h-10.2969l24.9063 64.5938h-35.01568z" stroke-linejoin="round"/><path id="l" d="m31.7812 34.625q-7.0312 0-11.0624-3.7656-4.0157-3.7656-4.0157-10.3438 0-6.5937 4.0157-10.3594 4.0312-3.76558 11.0624-3.76558 7.0313 0 11.0782 3.78128 4.0625 3.7969 4.0625 10.3437 0 6.5782-4.0313 10.3438-4.0156 3.7656-11.1094 3.7656m-9.8593 4.1875q-6.3438 1.5625-9.8907 5.9063-3.5312 4.3593-3.5312 10.6093 0 8.7344 6.2188 13.8125 6.2343 5.0782 17.0624 5.0782 10.8907 0 17.0938-5.0782 6.2031-5.0781 6.2031-13.8125 0-6.25-3.5469-10.6093-3.5312-4.3438-9.8281-5.9063 7.125-1.6563 11.0938-6.5 3.9843-4.8281 3.9843-11.7969 0-10.60935-6.4687-16.28122-6.4687-5.65626-18.5313-5.65626-12.0468 0-18.5312 5.65626-6.46875 5.67187-6.46875 16.28122 0 6.9688 3.99995 11.7969 4.0157 4.8437 11.1407 6.5m-3.6094 15.5781q0-5.6562 3.5313-8.8281 3.5468-3.1719 9.9374-3.1719 6.3594 0 9.9376 3.1719 3.5937 3.1719 3.5937 8.8281 0 5.6719-3.5937 8.8438-3.5782 3.1718-9.9376 3.1718-6.3906 0-9.9374-3.1718-3.5313-3.1719-3.5313-8.8438" stroke-linejoin="round"/><path id="m" d="m8.01562 75.875h7.81248q7.3125-11.5156 10.9531-22.5625 3.6407-11.0313 3.6407-21.9219 0-10.9375-3.6407-22.0156-3.6406-11.07812-10.9531-22.5625h-7.81248q6.48438 11.1875 9.68748 22.25 3.2031 11.0625 3.2031 22.3281 0 11.2813-3.2031 22.2656-3.2031 11-9.68748 22.2188" stroke-linejoin="round"/><path id="n" d="m31 75.875q-6.5312-11.2188-9.7188-22.2188-3.1718-10.9843-3.1718-22.2656 0-11.2656 3.2031-22.3281 3.2031-11.0625 9.6875-22.25h-7.8125q-7.3125 11.48438-10.9531 22.5625-3.64065 11.0781-3.64065 22.0156 0 10.8906 3.60935 21.9219 3.625 11.0469 10.9844 22.5625z" stroke-linejoin="round"/><path id="o" d="m9.8125 72.9062h46.0937v-8.3124h-36.2343v-21.5782h34.7187v-8.2968h-34.7187v-26.42192h37.1093v-8.29688h-46.9687z" stroke-linejoin="round"/><path id="p" d="m9.42188 54.6875h8.98432v-54.6875h-8.98432zm0 21.2969h8.98432v-11.3906h-8.98432z" stroke-linejoin="round"/><path id="q" d="m56.2031 29.5938v-4.3907h-41.3125q.5938-9.2812 5.5938-14.1406 5-4.85938 13.9375-4.85938 5.1719 0 10.0312 1.26563 4.8594 1.26563 9.6563 3.81245v-8.49995q-4.8438-2.046875-9.9219-3.125-5.0781-1.07813-10.2969-1.07813-13.0937 0-20.7344 7.60938-7.64058 7.625-7.64058 20.625 0 13.4219 7.24998 21.2969 7.25 7.8906 19.5625 7.8906 11.0313 0 17.4531-7.1094 6.4219-7.0937 6.4219-19.2968m-8.9843 2.6406q-.0938 7.3594-4.125 11.75-4.0313 4.4062-10.6719 4.4062-7.5157 0-12.0313-4.25-4.5156-4.25-5.2031-11.9687z" stroke-linejoin="round"/><path id="r" d="m45.4062 46.3906v29.5938h8.9844v-75.9844h-8.9844v8.20312q-2.8281-4.875-7.1562-7.249995-4.3125-2.375005-10.375-2.375005-9.9062 0-16.1406 7.90626-6.21878 7.92182-6.21878 20.81252 0 12.8906 6.21878 20.7969 6.2344 7.9062 16.1406 7.9062 6.0625 0 10.375-2.375 4.3281-2.3594 7.1562-7.2344m-30.6093-19.0937q0-9.9063 4.0781-15.5469 4.0781-5.64062 11.2031-5.64062 7.125 0 11.2188 5.64062 4.1093 5.6406 4.1093 15.5469 0 9.9062-4.1093 15.5469-4.0938 5.6406-11.2188 5.6406-7.125 0-11.2031-5.6406-4.0781-5.6407-4.0781-15.5469" stroke-linejoin="round"/><path id="s" d="m37.1094 75.9844v-7.4844h-8.5938q-4.8281 0-6.7187-1.9531-1.875-1.9531-1.875-7.0313v-4.8281h14.7969v-6.9844h-14.7969v-47.7031h-9.0313v47.7031h-8.59372v6.9844h8.59372v3.8125q0 9.125 4.25 13.2969 4.25 4.1875 13.4688 4.1875z" stroke-linejoin="round"/><path id="t" d="m34.2812 27.4844q-10.8906 0-15.0937-2.4844-4.2031-2.4844-4.2031-8.5 0-4.7812 3.1562-7.59375 3.1563-2.79687 8.5625-2.79687 7.4844 0 12 5.29682 4.5157 5.2969 4.5157 14.0782v2zm17.9219 3.7187v-31.2031h-8.9843v8.29688q-3.0782-4.96876-7.6719-7.343755-4.5938-2.375005-11.2344-2.375005-8.3906 0-13.3594 4.71876-4.9531 4.71874-4.9531 12.62502 0 9.2187 6.1719 13.9062 6.1875 4.6875 18.4375 4.6875h12.6094v.8906q0 6.2032-4.0782 9.5938-4.0781 3.3906-11.4531 3.3906-4.6875 0-9.1406-1.125-4.4375-1.125-8.5313-3.375v8.3125q4.9219 1.9063 9.5625 2.8438 4.6407.9531 9.0313.9531 11.875 0 17.7344-6.1562 5.8593-6.1407 5.8593-18.6407" stroke-linejoin="round"/><path id="u" d="m48.7812 52.5938v-8.4063q-3.8124 2.1094-7.6406 3.1563-3.8281 1.0468-7.7344 1.0468-8.75 0-13.5937-5.5468-4.8281-5.5313-4.8281-15.5469 0-10.0157 4.8281-15.5625 4.8437-5.53128 13.5937-5.53128 3.9063 0 7.7344 1.04688 3.8282 1.04688 7.6406 3.1562v-8.31245q-3.7656-1.75-7.7968-2.625-4.0156-.89063-8.5625-.89063-12.3594 0-19.6407 7.76563-7.26558 7.76565-7.26558 20.95315 0 13.375 7.34378 21.0312 7.3594 7.6719 20.1562 7.6719 4.1406 0 8.0938-.8594 3.9531-.8437 7.6718-2.5468" stroke-linejoin="round"/><path id="v" d="m9.8125 72.9062h13.2813l32.3281-60.9843v60.9843h9.5625v-72.9062h-13.2813l-32.3125 60.9844v-60.9844h-9.5781z" stroke-linejoin="round"/><path id="w" d="m9.8125 72.9062h14.7031l18.5938-49.6093 18.7031 49.6093h14.7031v-72.9062h-9.625v64.0156l-18.7968-50h-9.9063l-18.7969 50v-64.0156h-9.5781z" stroke-linejoin="round"/><path id="x" d="m52 44.1875q3.375 6.0625 8.0625 8.9375 4.6875 2.875 11.0313 2.875 8.5468 0 13.1874-5.9844 4.6407-5.9687 4.6407-17v-33.0156h-9.0313v32.7188q0 7.8593-2.7968 11.6562-2.7813 3.8125-8.4844 3.8125-6.9844 0-11.0469-4.6406-4.0469-4.625-4.0469-12.6407v-30.9062h-9.0312v32.7188q0 7.9062-2.7813 11.6874-2.7812 3.7813-8.5937 3.7813-6.8906 0-10.9532-4.6563-4.0468-4.6562-4.0468-12.625v-30.9062h-9.03128v54.6875h9.03128v-8.5q3.0781 5.0313 7.375 7.4219 4.2968 2.3906 10.2031 2.3906 5.9687 0 10.1406-3.0312 4.1719-3.0157 6.1719-8.7813" stroke-linejoin="round"/><path id="y" d="m9.42188 75.9844h8.98432v-75.9844h-8.98432z" stroke-linejoin="round"/><path id="z" d="m11.7188 12.4062h10.2968v-8.4062l-8-15.625h-6.29685l4.00005 15.625z" stroke-linejoin="round"/><path id="A" d="m18.3125 70.2188v-15.5313h18.5v-6.9844h-18.5v-29.6875q0-6.6875 1.8281-8.59372 1.8282-1.90626 7.4532-1.90626h9.2187v-7.51562h-9.2187q-10.4063 0-14.3594 3.875-3.95315 3.89062-3.95315 14.1406v29.6875h-6.59375v6.9844h6.59375v15.5313z" stroke-linejoin="round"/><path id="B" d="m8.5 21.5781v33.1094h8.9844v-32.7656q0-7.7657 3.0156-11.6563 3.0312-3.87498 9.0938-3.87498 7.2656 0 11.4843 4.64058 4.2344 4.6407 4.2344 12.6563v31h8.9844v-54.6875h-8.9844v8.40625q-3.2656-4.98437-7.5937-7.40625-4.3126-2.42188-10.0313-2.42188-9.4219 0-14.3125 5.85938-4.875 5.8594-4.875 17.1406" stroke-linejoin="round"/><path id="C" d="m44.2812 53.0781v-8.5q-3.7968 1.9531-7.9062 2.9219-4.0938.9844-8.5.9844-6.6875 0-10.0312-2.0469-3.3438-2.0469-3.3438-6.1563 0-3.125 2.3906-4.9062 2.3906-1.7812 9.625-3.3906l3.0782-.6875q9.5624-2.0469 13.5937-5.7813 4.0313-3.7344 4.0313-10.4218 0-7.62505-6.0313-12.07818-6.0313-4.4375-16.5781-4.4375-4.3906 0-9.1563.85938-4.7656.859375-10.03122 2.5625v9.2812q4.98432-2.5937 9.81252-3.89058 4.8281-1.28124 9.5781-1.28124 6.3437 0 9.75 2.17187 3.4219 2.17185 3.4219 6.12495 0 3.6563-2.4688 5.6094-2.4531 1.9532-10.8125 3.7656l-3.125.7344q-8.3437 1.75-12.06248 5.3906-3.70312 3.6407-3.70312 9.9844 0 7.7188 5.4687 11.9063 5.4688 4.2031 15.5313 4.2031 4.9687 0 9.3594-.7344 4.4062-.7187 8.1093-2.1875" stroke-linejoin="round"/><path id="D" d="m19.1875 8.29688h34.4219v-8.29688h-46.28128v8.29688q5.60938 5.81252 15.29688 15.59372 9.7031 9.7969 12.1875 12.6406 4.7344 5.3126 6.6094 9 1.8906 3.6876 1.8906 7.25 0 5.8126-4.0781 9.4688-4.0782 3.6719-10.625 3.6719-4.6406 0-9.7969-1.6094-5.1406-1.6094-11-4.8906v9.9687q5.9531 2.3906 11.125 3.6094 5.1875 1.2188 9.4844 1.2188 11.3281 0 18.0625-5.6719 6.7344-5.6563 6.7344-15.125 0-4.5-1.6876-8.5313-1.6718-4.0156-6.125-9.4844-1.2187-1.4218-7.7656-8.1874-6.5312-6.7657-18.4531-18.92192" stroke-linejoin="round"/><path id="E" d="m40.5781 39.3125q7.0781-1.5156 11.0469-6.3125 3.9844-4.7812 3.9844-11.8125 0-10.7813-7.4219-16.70312-7.4219-5.90626-21.0937-5.90626-4.5782 0-9.4376.906255-4.8593.90625-10.0312 2.718745v9.51568q4.0938-2.39068 8.9688-3.60942 4.8906-1.21876 10.2187-1.21876 9.2656 0 14.125 3.65628 4.8594 3.6562 4.8594 10.6406 0 6.4531-4.5157 10.0781-4.5156 3.6406-12.5624 3.6406h-8.5v8.1094h8.8906q7.2656 0 11.125 2.9063 3.8594 2.9062 3.8594 8.375 0 5.6093-3.9844 8.6093-3.9688 3.0157-11.3906 3.0157-4.0626 0-8.7032-.8907-4.6406-.875-10.2031-2.7187v8.7813q5.625 1.5624 10.5313 2.3437 4.9062.7813 9.25.7813 11.2343 0 17.7656-5.1094 6.5468-5.0938 6.5468-13.7813 0-6.0625-3.4687-10.2343-3.4687-4.1719-9.8594-5.7813" stroke-linejoin="round"/><path id="F" d="m12.4062 8.29688h16.1094v55.62502l-17.5312-3.5157v8.9844l17.4375 3.5156h9.8593v-64.60932h16.1094v-8.29688h-41.9844z" stroke-linejoin="round"/><path id="G" d="m44.3906 34.1875q3.1719-1.0781 6.1719-4.5937 3-3.5157 6.0313-9.6719l10.0156-19.9219h-10.6094l-9.3125 18.7031q-3.625 7.3281-7.0156 9.7188-3.3907 2.3906-9.25 2.3906h-10.75v-30.8125h-9.8594v72.9062h22.2656q12.5 0 18.6563-5.2343 6.1562-5.2188 6.1562-15.7657 0-6.8906-3.2031-11.4374-3.2031-4.5313-9.2969-6.2813m-24.7187 30.6094v-25.875h12.4062q7.125 0 10.7657 3.2969 3.6406 3.2968 3.6406 9.6874 0 6.3907-3.6406 9.6407-3.6407 3.25-10.7657 3.25z" stroke-linejoin="round"/><path id="H" d="m53.5156 70.5156v-9.625q-5.6094 2.6875-10.5937 4-4.9844 1.3282-9.625 1.3282-8.0469 0-12.4219-3.125-4.375-3.125-4.375-8.8907 0-4.8437 2.9062-7.3125 2.9063-2.4531 11.0157-3.9687l5.9531-1.2188q11.0312-2.1093 16.2812-7.4062 5.25-5.2969 5.25-14.1719 0-10.60938-7.1093-16.07812-7.0938-5.46876-20.8125-5.46876-5.1719 0-11.0156 1.17188-5.8282 1.171875-12.07818 3.46875v10.15625q5.99998-3.3594 11.76558-5.07812 5.7657-1.70313 11.3282-1.70313 8.4375 0 13.0312 3.3125 4.5938 3.32815 4.5938 9.48435 0 5.3594-3.2969 8.3906-3.2969 3.0313-10.8125 4.5469l-6.0156 1.1719q-11.0313 2.1875-15.9688 6.875-4.92185 4.6875-4.92185 13.0469 0 9.6719 6.81245 15.2343 6.8126 5.5626 18.7657 5.5626 5.1406 0 10.4531-.9376 5.3281-.9218 10.8906-2.7656" stroke-linejoin="round"/><path id="I" d="m4.89062 31.3906h26.31248v-8h-26.31248z" stroke-linejoin="round"/><path id="J" d="m54.8906 33.0156v-33.0156h-8.9844v32.7188q0 7.7656-3.0312 11.6093-3.0312 3.8594-9.0781 3.8594-7.2813 0-11.4844-4.6406-4.2031-4.625-4.2031-12.6407v-30.9062h-9.03128v54.6875h9.03128v-8.5q3.2344 4.9375 7.5937 7.375 4.375 2.4375 10.0938 2.4375 9.4219 0 14.25-5.8281 4.8437-5.8281 4.8437-17.1563" stroke-linejoin="round"/><path id="K" d="m34.1875 63.1875-13.3906-36.2813h26.8125zm-5.5781 9.7187h11.1875l27.7812-72.9062h-10.25l-6.6406 18.7031h-32.8594l-6.6406-18.7031h-10.40625z" stroke-linejoin="round"/></defs><g stroke-linejoin="round"><path d="m0 792h612v-792h-612z" fill="#fff"/><g><path d="m76.5 379.029h474.3v-339.429h-474.3z" fill="#fff"/><g fill="none"><path clip-path="url(#b)" d="m76.5 323.023 9.6796.97 9.6796.969 9.6798.97 9.679.97 9.68.97 9.68.97 9.679.969 9.68.97 9.679.97 9.68.97 9.68.97 9.679.969 9.68.97 9.679.97 9.68.97 9.679.97 9.68.969 9.68.97 9.679.97 9.68.97 9.679.97 9.68.969 9.68.97 9.679.97 9.68.97 9.679.97 9.68.969 9.68.97 9.679.97 9.68.97 9.679.97 9.68.969 9.68.97 9.679.97 9.68.97 9.679.97 9.68.969 9.679.97 9.68.97 9.68.97 9.679.969 9.68.97 9.679.97 9.68.97 9.68.97 9.679.969 9.68.97 9.679.97 9.68.97" stroke="#00f" stroke-linecap="square" stroke-width="2"/><path clip-path="url(#b)" d="m76.5 66.1603 9.6796.7395 9.6796.7394 9.6798.7395 9.679.7395 9.68.7394 9.68.7395 9.679.7395 9.68.7394 9.679.7395 9.68.7395 9.68.7394 9.679.7395 9.68.7395 9.679.7395 9.68.7394 9.679.7395 9.68.7395 9.68.7394 9.679.7395 9.68.7395 9.679.7394 9.68.7395 9.68.7395 9.679.7395 9.68.7394 9.679.7395 9.68.7395 9.68.7394 9.679.7395 9.68.7395 9.679.7394 9.68.7395 9.68.7395 9.679.7394 9.68.7395 9.679.7395 9.68.7395 9.679.7394 9.68.7395 9.68.7395 9.679.7394 9.68.7395 9.679.7395 9.68.7394 9.68.7395 9.679.7396 9.68.739 9.679.74 9.68.739" stroke="#008000" stroke-linecap="square" stroke-width="2"/><path clip-path="url(#b)" d="m76.5 311.143 9.6796.606 9.6796.606 9.6798.606 9.679.606 9.68.606 9.68.607 9.679.606 9.68.606 9.679.606 9.68.606 9.68.606 9.679.606 9.68.606 9.679.607 9.68.606 9.679.606 9.68.606 9.68.606 9.679.606 9.68.606 9.679.606 9.68.607 9.68.606 9.679.606 9.68.606 9.679.606 9.68.606 9.68.606 9.679.606 9.68.607 9.679.606 9.68.606 9.68.606 9.679.606 9.68.606 9.679.606 9.68.606 9.679.607 9.68.606 9.68.606 9.679.606 9.68.606 9.679.606 9.68.606 9.68.606 9.679.606 9.68.607 9.679.606 9.68.606" stroke="#f00" stroke-linecap="square" stroke-width="2"/><path clip-path="url(#b)" d="m76.5 268.545 9.6796.8 9.6796.8 9.6798.8 9.679.8 9.68.8 9.68.8 9.679.8 9.68.8 9.679.8 9.68.8 9.68.8 9.679.801 9.68.8 9.679.8 9.68.8 9.679.8 9.68.8 9.68.8 9.679.8 9.68.8 9.679.8 9.68.8 9.68.8 9.679.801 9.68.8 9.679.8 9.68.8 9.68.8 9.679.8 9.68.8 9.679.8 9.68.8 9.68.8 9.679.8 9.68.8 9.679.801 9.68.8 9.679.8 9.68.8 9.68.8 9.679.8 9.68.8 9.679.8 9.68.8 9.68.8 9.679.8 9.68.8 9.679.8 9.68.801" stroke="#00bfbf" stroke-linecap="square" stroke-width="2"/><path clip-path="url(#b)" d="m76.5 179.903 9.6796 3.755 9.6796 3.756 9.6798 3.755 9.679 3.756 9.68 3.755 9.68 3.756 9.679 3.756 9.68 3.755 9.679 3.756 9.68 3.755 9.68 3.756 9.679 3.755 9.68 3.756 9.679 3.755 9.68 3.756 9.679 3.755 9.68 3.756 9.68 3.755 9.679 3.756 9.68 3.755 9.679 3.756 9.68 3.756 9.68 3.755 9.679 3.756 9.68 3.755 9.679 3.756 9.68 3.755 9.68 3.756 9.679 3.755 9.68 3.756 9.679 3.755 9.68 3.756 9.68 3.755 9.679 3.756 9.68 3.756 9.679 3.755 9.68 3.756 9.679 3.755 9.68 3.756 9.68 3.755 9.679 3.756 9.68 3.755 9.679 3.756 9.68 3.755 9.68 3.756 9.679 3.755 9.68 3.756 9.679 3.755 9.68 3.756" stroke="#bf00bf" stroke-linecap="square" stroke-width="2"/></g><g stroke="#000" stroke-width=".5"><g><path clip-path="url(#b)" d="m76.5 379.029v-339.429" fill="none" stroke-dasharray="1 3"/><use x="76.5" xlink:href="#c" y="379.028571"/><use x="76.5" xlink:href="#d" y="39.6"/></g><g><path clip-path="url(#b)" d="m144.257 379.029v-339.429" fill="none" stroke-dasharray="1 3"/><use x="144.257143" xlink:href="#c" y="379.028571"/><use x="144.257143" xlink:href="#d" y="39.6"/></g><g><path clip-path="url(#b)" d="m212.014 379.029v-339.429" fill="none" stroke-dasharray="1 3"/><use x="212.014286" xlink:href="#c" y="379.028571"/><use x="212.014286" xlink:href="#d" y="39.6"/></g><g><path clip-path="url(#b)" d="m279.771 379.029v-339.429" fill="none" stroke-dasharray="1 3"/><use x="279.771429" xlink:href="#c" y="379.028571"/><use x="279.771429" xlink:href="#d" y="39.6"/></g><g><path clip-path="url(#b)" d="m347.529 379.029v-339.429" fill="none" stroke-dasharray="1 3"/><use x="347.528571" xlink:href="#c" y="379.028571"/><use x="347.528571" xlink:href="#d" y="39.6"/></g><g><path clip-path="url(#b)" d="m415.286 379.029v-339.429" fill="none" stroke-dasharray="1 3"/><use x="415.285714" xlink:href="#c" y="379.028571"/><use x="415.285714" xlink:href="#d" y="39.6"/></g><g><path clip-path="url(#b)" d="m483.043 379.029v-339.429" fill="none" stroke-dasharray="1 3"/><use x="483.042857" xlink:href="#c" y="379.028571"/><use x="483.042857" xlink:href="#d" y="39.6"/></g><g><path clip-path="url(#b)" d="m550.8 379.029v-339.429" fill="none" stroke-dasharray="1 3"/><use x="550.8" xlink:href="#c" y="379.028571"/><use x="550.8" xlink:href="#d" y="39.6"/></g></g><g><g><g stroke="#000" stroke-width=".5"><path clip-path="url(#b)" d="m76.5 379.029h474.3" fill="none" stroke-dasharray="1 3"/><use x="76.5" xlink:href="#e" y="379.028571"/><use x="550.8" xlink:href="#f" y="379.028571"/></g><g transform="matrix(.12 0 0 -.12 35.70875 382.339821)"><use xlink:href="#h"/><use x="63.623047" xlink:href="#i"/><use x="127.246094" xlink:href="#g"/><use x="190.869141" xlink:href="#g"/><use x="254.492188" xlink:href="#g"/></g></g><g><g stroke="#000" stroke-width=".5"><path clip-path="url(#b)" d="m76.5 336.6h474.3" fill="none" stroke-dasharray="1 3"/><use x="76.5" xlink:href="#e" y="336.6"/><use x="550.8" xlink:href="#f" y="336.6"/></g><g transform="matrix(.12 0 0 -.12 36.048125 339.91125)"><use xlink:href="#i"/><use x="63.623047" xlink:href="#g"/><use x="127.246094" xlink:href="#g"/><use x="190.869141" xlink:href="#g"/><use x="254.492188" xlink:href="#g"/></g></g><g><g stroke="#000" stroke-width=".5"><path clip-path="url(#b)" d="m76.5 294.171h474.3" fill="none" stroke-dasharray="1 3"/><use x="76.5" xlink:href="#e" y="294.171429"/><use x="550.8" xlink:href="#f" y="294.171429"/></g><g transform="matrix(.12 0 0 -.12 36.048125 297.482679)"><use xlink:href="#i"/><use x="63.623047" xlink:href="#i"/><use x="127.246094" xlink:href="#g"/><use x="190.869141" xlink:href="#g"/><use x="254.492188" xlink:href="#g"/></g></g><g><g stroke="#000" stroke-width=".5"><path clip-path="url(#b)" d="m76.5 251.743h474.3" fill="none" stroke-dasharray="1 3"/><use x="76.5" xlink:href="#e" y="251.742857"/><use x="550.8" xlink:href="#f" y="251.742857"/></g><g transform="matrix(.12 0 0 -.12 35.96 255.054107)"><use xlink:href="#j"/><use x="63.623047" xlink:href="#g"/><use x="127.246094" xlink:href="#g"/><use x="190.869141" xlink:href="#g"/><use x="254.492188" xlink:href="#g"/></g></g><g><g stroke="#000" stroke-width=".5"><path clip-path="url(#b)" d="m76.5 209.314h474.3" fill="none" stroke-dasharray="1 3"/><use x="76.5" xlink:href="#e" y="209.314286"/><use x="550.8" xlink:href="#f" y="209.314286"/></g><g transform="matrix(.12 0 0 -.12 35.96 212.625536)"><use xlink:href="#j"/><use x="63.623047" xlink:href="#i"/><use x="127.246094" xlink:href="#g"/><use x="190.869141" xlink:href="#g"/><use x="254.492188" xlink:href="#g"/></g></g><g><g stroke="#000" stroke-width=".5"><path clip-path="url(#b)" d="m76.5 166.886h474.3" fill="none" stroke-dasharray="1 3"/><use x="76.5" xlink:href="#e" y="166.885714"/><use x="550.8" xlink:href="#f" y="166.885714"/></g><g transform="matrix(.12 0 0 -.12 36.10625 170.196964)"><use xlink:href="#k"/><use x="63.623047" xlink:href="#g"/><use x="127.246094" xlink:href="#g"/><use x="190.869141" xlink:href="#g"/><use x="254.492188" xlink:href="#g"/></g></g><g><g stroke="#000" stroke-width=".5"><path clip-path="url(#b)" d="m76.5 124.457h474.3" fill="none" stroke-dasharray="1 3"/><use x="76.5" xlink:href="#e" y="124.457143"/><use x="550.8" xlink:href="#f" y="124.457143"/></g><g transform="matrix(.12 0 0 -.12 36.10625 127.768393)"><use xlink:href="#k"/><use x="63.623047" xlink:href="#i"/><use x="127.246094" xlink:href="#g"/><use x="190.869141" xlink:href="#g"/><use x="254.492188" xlink:href="#g"/></g></g><g><g stroke="#000" stroke-width=".5"><path clip-path="url(#b)" d="m76.5 82.0286h474.3" fill="none" stroke-dasharray="1 3"/><use x="76.5" xlink:href="#e" y="82.028571"/><use x="550.8" xlink:href="#f" y="82.028571"/></g><g transform="matrix(.12 0 0 -.12 35.935625 85.339821)"><use xlink:href="#l"/><use x="63.623047" xlink:href="#g"/><use x="127.246094" xlink:href="#g"/><use x="190.869141" xlink:href="#g"/><use x="254.492188" xlink:href="#g"/></g></g><g><g stroke="#000" stroke-width=".5"><path clip-path="url(#b)" d="m76.5 39.6h474.3" fill="none" stroke-dasharray="1 3"/><use x="76.5" xlink:href="#e" y="39.6"/><use x="550.8" xlink:href="#f" y="39.6"/></g><g transform="matrix(.12 0 0 -.12 35.935625 42.91125)"><use xlink:href="#l"/><use x="63.623047" xlink:href="#i"/><use x="127.246094" xlink:href="#g"/><use x="190.869141" xlink:href="#g"/><use x="254.492188" xlink:href="#g"/></g></g><g transform="matrix(0 -.12 -.12 0 28.213125 320.374286)"><use transform="translate(0 .857813)" xlink:href="#o"/><use transform="translate(63.183594 .857813)" xlink:href="#s"/><use transform="translate(98.388672 .857813)" xlink:href="#s"/><use transform="translate(133.59375 .857813)" xlink:href="#q"/><use transform="translate(195.117188 .857813)" xlink:href="#u"/><use transform="translate(250.097656 .857813)" xlink:href="#A"/><use transform="translate(289.306641 .857813)" xlink:href="#p"/><path d="m2.98438 54.6875h9.51562l17.0938-45.89062 17.0937 45.89062h9.5156l-20.5156-54.6875h-12.2031z" transform="translate(317.089844 .857813)"/><use transform="translate(376.269531 .857813)" xlink:href="#q"/><use transform="translate(469.580078 .857813)" xlink:href="#q"/><use transform="translate(531.103516 .857813)" xlink:href="#y"/><use transform="translate(558.886719 .857813)" xlink:href="#t"/><use transform="translate(620.166016 .857813)" xlink:href="#C"/><use transform="translate(672.265625 .857813)" xlink:href="#A"/><use transform="translate(711.474609 .857813)" xlink:href="#p"/><use transform="translate(739.257813 .857813)" xlink:href="#u"/><use transform="translate(826.025391 .857813)" xlink:href="#x"/><path d="m30.6094 48.3906q-7.2188 0-11.4219-5.6406-4.2031-5.6406-4.2031-15.4531 0-9.8125 4.1718-15.4531 4.1876-5.64068 11.4532-5.64068 7.1875 0 11.375 5.65628 4.2031 5.6718 4.2031 15.4375 0 9.7187-4.2031 15.4062-4.1875 5.6875-11.375 5.6875m0 7.6094q11.7187 0 18.4062-7.625 6.7032-7.6094 6.7032-21.0781 0-13.4219-6.7032-21.07815-6.6875-7.64063-18.4062-7.64063-11.7656 0-18.4375 7.64063-6.65628 7.65625-6.65628 21.07815 0 13.4687 6.65628 21.0781 6.6719 7.625 18.4375 7.625" transform="translate(923.4375 .857813)"/><use transform="translate(984.619141 .857813)" xlink:href="#r"/><use transform="translate(1048.095703 .857813)" xlink:href="#B"/><use transform="translate(1111.474609 .857813)" xlink:href="#y"/><use transform="translate(1139.257813 .857813)" xlink:href="#B"/><use transform="translate(1202.636719 .857813)" xlink:href="#C"/><use transform="translate(1254.736328 .857813)" xlink:href="#z"/><use transform="translate(1318.310547 .857813)" xlink:href="#o"/><use transform="translate(1413.28125 .857813)" xlink:href="#n"/><use transform="translate(1452.294922 .857813)" xlink:href="#w"/><use transform="translate(1538.574219 .857813)" xlink:href="#v"/><path d="m25.3906 72.9062h8.2969l-25.39062-82.18745h-8.29688z" transform="translate(1613.378906 .857813)"/><use transform="translate(1647.070313 .857813)" xlink:href="#x"/><path d="m4.98438 0v2.6875q0 .25.1875.53125l15.53122 17.18745q3.5157 3.8126 5.7031 6.3907 2.2032 2.5937 4.3438 5.9687 2.1562 3.375 3.4062 6.8594 1.25 3.4844 1.25 7.3906 0 4.1094-1.5156 7.8438-1.5156 3.7344-4.5156 5.9844-3 2.25-7.25 2.25-4.3438 0-7.8125-2.625-3.4687-2.6094-4.89062-6.75.39062.0937 1.07812.0937 2.25 0 3.8281-1.5156 1.5938-1.5157 1.5938-3.9063 0-2.2968-1.5938-3.8906-1.5781-1.5781-3.8281-1.5781-2.34375 0-3.9375 1.625-1.57812 1.6406-1.57812 3.8437 0 3.7656 1.40624 7.0469 1.42188 3.2969 4.07818 5.8594 2.6718 2.5781 6.0156 3.9375 3.3437 1.375 7.0937 1.375 5.7188 0 10.6407-2.4219 4.9374-2.4219 7.8124-6.8437 2.8907-4.4063 2.8907-10.3282 0-4.3437-1.9063-8.25-1.9062-3.9062-4.8906-7.1094-2.9688-3.1874-7.6094-7.25-4.6406-4.0468-6.0937-5.4062l-11.3281-10.89062h9.6093q7.0781 0 11.8438.10937 4.7656.125 5.0469.375 1.1718 1.26563 2.4062 9.23435h2.9219l-2.8281-17.8281z" transform="matrix(.7 0 0 .7 1744.482422 43.373438)"/><use transform="translate(1811.488672 .857813)" xlink:href="#m"/></g></g><path d="m76.5 39.6h474.3" fill="none" stroke="#000"/><path d="m550.8 379.029v-339.429" fill="none" stroke="#000"/><path d="m76.5 379.029h474.3" fill="none" stroke="#000"/><path d="m76.5 379.029v-339.429" fill="none" stroke="#000"/><g><path d="m313.196 264.316h230.404v-110.003h-230.404z" fill="#fff" stroke="#000"/><path d="m323.276 165.975h20.16" fill="none" stroke="#00f" stroke-linecap="square" stroke-width="2"/><g transform="matrix(.144 0 0 -.144 359.2755 171.014786)"><use xlink:href="#H"/><use x="63.476563" xlink:href="#A"/><use x="102.685547" xlink:href="#B"/><use x="166.064453" xlink:href="#r"/><use x="229.541016" xlink:href="#y"/><use x="257.324219" xlink:href="#q"/><use x="318.847656" xlink:href="#C"/><use x="370.947266" xlink:href="#C"/><use x="454.833984" xlink:href="#G"/><use x="524.316406" xlink:href="#E"/><use x="619.726563" xlink:href="#n"/><use x="658.740234" xlink:href="#D"/><use x="722.363281" xlink:href="#g"/><use x="785.986328" xlink:href="#F"/><use x="849.609375" xlink:href="#g"/><use x="913.232422" xlink:href="#I"/><use x="949.316406" xlink:href="#F"/><use x="1012.939453" xlink:href="#i"/><use x="1076.5625" xlink:href="#m"/></g><path d="m323.276 187.111h20.16" fill="none" stroke="#008000" stroke-linecap="square" stroke-width="2"/><g transform="matrix(.144 0 0 -.144 359.2755 192.151286)"><use xlink:href="#H"/><use x="63.476563" xlink:href="#A"/><use x="102.685547" xlink:href="#B"/><use x="166.064453" xlink:href="#r"/><use x="229.541016" xlink:href="#y"/><use x="257.324219" xlink:href="#q"/><use x="318.847656" xlink:href="#C"/><use x="370.947266" xlink:href="#C"/><use x="454.833984" xlink:href="#G"/><use x="524.316406" xlink:href="#E"/><use x="619.726563" xlink:href="#n"/><use x="658.740234" xlink:href="#D"/><use x="722.363281" xlink:href="#g"/><use x="785.986328" xlink:href="#g"/><use x="849.609375" xlink:href="#g"/><use x="913.232422" xlink:href="#I"/><use x="949.316406" xlink:href="#l"/><use x="1012.939453" xlink:href="#m"/></g><path d="m323.276 208.248h20.16" fill="none" stroke="#f00" stroke-linecap="square" stroke-width="2"/><g transform="matrix(.144 0 0 -.144 359.2755 213.287786)"><use xlink:href="#H"/><use x="63.476563" xlink:href="#A"/><use x="102.685547" xlink:href="#B"/><use x="166.064453" xlink:href="#r"/><use x="229.541016" xlink:href="#y"/><use x="257.324219" xlink:href="#q"/><use x="318.847656" xlink:href="#C"/><use x="370.947266" xlink:href="#C"/><use x="454.833984" xlink:href="#G"/><use x="524.316406" xlink:href="#h"/><use x="619.726563" xlink:href="#n"/><use x="658.740234" xlink:href="#D"/><use x="722.363281" xlink:href="#g"/><use x="785.986328" xlink:href="#F"/><use x="849.609375" xlink:href="#g"/><use x="913.232422" xlink:href="#I"/><use x="949.316406" xlink:href="#F"/><use x="1012.939453" xlink:href="#i"/><use x="1076.5625" xlink:href="#m"/></g><path d="m323.276 229.384h20.16" fill="none" stroke="#00bfbf" stroke-linecap="square" stroke-width="2"/><g transform="matrix(.144 0 0 -.144 359.2755 234.424286)"><use xlink:href="#H"/><use x="63.476563" xlink:href="#A"/><use x="102.685547" xlink:href="#B"/><use x="166.064453" xlink:href="#r"/><use x="229.541016" xlink:href="#y"/><use x="257.324219" xlink:href="#q"/><use x="318.847656" xlink:href="#C"/><use x="370.947266" xlink:href="#C"/><use x="454.833984" xlink:href="#G"/><use x="524.316406" xlink:href="#i"/><use x="619.726563" xlink:href="#n"/><use x="658.740234" xlink:href="#D"/><use x="722.363281" xlink:href="#g"/><use x="785.986328" xlink:href="#F"/><use x="849.609375" xlink:href="#g"/><use x="913.232422" xlink:href="#I"/><use x="949.316406" xlink:href="#F"/><use x="1012.939453" xlink:href="#i"/><use x="1076.5625" xlink:href="#m"/></g><path d="m323.276 250.521h20.16" fill="none" stroke="#bf00bf" stroke-linecap="square" stroke-width="2"/><g transform="matrix(.144 0 0 -.144 359.2755 255.560786)"><use xlink:href="#H"/><use x="63.476563" xlink:href="#A"/><use x="102.685547" xlink:href="#B"/><use x="166.064453" xlink:href="#r"/><use x="229.541016" xlink:href="#y"/><use x="257.324219" xlink:href="#q"/><use x="318.847656" xlink:href="#C"/><use x="370.947266" xlink:href="#C"/><use x="454.833984" xlink:href="#G"/><use x="524.316406" xlink:href="#h"/><use x="587.939453" xlink:href="#z"/><use x="651.513672" xlink:href="#G"/><use x="720.996094" xlink:href="#i"/><use x="816.40625" xlink:href="#n"/><use x="855.419922" xlink:href="#D"/><use x="919.042969" xlink:href="#g"/><use x="982.666016" xlink:href="#g"/><use x="1046.289063" xlink:href="#g"/><use x="1109.912109" xlink:href="#I"/><use x="1145.996094" xlink:href="#l"/><use x="1209.619141" xlink:href="#m"/></g></g></g><g><path d="m76.5 752.4h474.3v-339.429h-474.3z" fill="#fff"/><g fill="none"><path clip-path="url(#a)" d="m76.5 732.592 9.6796-1.884 9.6796-1.964 9.6798-2.044 9.679-2.124 9.68-2.204 9.68-2.281 9.679-2.36 9.68-2.437 9.679-2.514 9.68-2.589 9.68-2.666 9.679-2.74 9.68-2.814 9.679-2.888 9.68-2.962 9.679-3.033 9.68-3.106 9.68-3.177 9.679-3.248 9.68-3.318 9.679-3.388 9.68-3.456 9.68-3.525 9.679-3.592 9.68-3.66 9.679-3.726 9.68-3.792 9.68-3.858 9.679-3.922 9.68-3.987 9.679-4.05 9.68-4.113 9.68-4.175 9.679-4.237 9.68-4.299 9.679-4.359 9.68-4.419 9.679-4.478 9.68-4.537 9.68-4.595 9.679-4.653 9.68-4.71 9.679-4.767 9.68-4.822 9.68-4.877 9.679-4.932 9.68-4.986 9.679-5.039 9.68-5.093" stroke="#00f" stroke-linecap="square" stroke-width="2"/><path clip-path="url(#a)" d="m76.5 720.971 9.6796-3.027 9.6796-3.164 9.6798-3.299 9.679-3.433 9.68-3.568 9.68-3.702 9.679-3.835 9.68-3.968 9.679-4.101 9.68-4.232 9.68-4.365 9.679-4.495 9.68-4.626 9.679-4.757 9.68-4.886 9.679-5.016 9.68-5.144 9.68-5.273 9.679-5.401 9.68-5.528 9.679-5.656 9.68-5.782 9.68-5.908 9.679-6.034 9.68-6.159 9.679-6.284 9.68-6.408 9.68-6.532 9.679-6.655 9.68-6.779 9.679-6.901 9.68-7.023 9.68-7.144 9.679-7.266 9.68-7.387 9.679-7.506 9.68-7.627 9.679-7.745 9.68-7.865 9.68-7.983 9.679-8.101 9.68-8.219 9.679-8.335 9.68-8.452 9.68-8.569 9.679-8.683 9.68-8.8 9.679-8.914 9.68-9.028" stroke="#008000" stroke-linecap="square" stroke-width="2"/><path clip-path="url(#a)" d="m76.5 732.054 9.6796-1.954 9.6796-2.04 9.6798-2.127 9.679-2.212 9.68-2.299 9.68-2.383 9.679-2.468 9.68-2.553 9.679-2.637 9.68-2.72 9.68-2.804 9.679-2.886 9.68-2.97 9.679-3.051 9.68-3.133 9.679-3.215 9.68-3.296 9.68-3.376 9.679-3.457 9.68-3.537 9.679-3.616 9.68-3.696 9.68-3.774 9.679-3.853 9.68-3.931 9.679-4.009 9.68-4.086 9.68-4.163 9.679-4.24 9.68-4.315 9.679-4.392 9.68-4.467 9.68-4.543 9.679-4.617 9.68-4.691 9.679-4.766 9.68-4.839 9.679-4.912 9.68-4.985 9.68-5.058 9.679-5.13 9.68-5.201 9.679-5.273 9.68-5.344 9.68-5.414 9.679-5.485 9.68-5.555 9.679-5.624 9.68-5.694" stroke="#f00" stroke-linecap="square" stroke-width="2"/><path clip-path="url(#a)" d="m76.5 730.127 9.6796-2.132 9.6796-2.226 9.6798-2.318 9.679-2.412 9.68-2.503 9.68-2.596 9.679-2.686 9.68-2.777 9.679-2.867 9.68-2.957 9.68-3.046 9.679-3.135 9.68-3.223 9.679-3.311 9.68-3.398 9.679-3.484 9.68-3.571 9.68-3.657 9.679-3.742 9.68-3.827 9.679-3.911 9.68-3.994 9.68-4.078 9.679-4.161 9.68-4.243 9.679-4.325 9.68-4.406 9.68-4.487 9.679-4.568 9.68-4.647 9.679-4.726 9.68-4.806 9.68-4.884 9.679-4.961 9.68-5.039 9.679-5.116 9.68-5.192 9.679-5.268 9.68-5.344 9.68-5.419 9.679-5.492 9.68-5.567 9.679-5.641 9.68-5.713 9.68-5.785 9.679-5.858 9.68-5.929 9.679-6 9.68-6.071" stroke="#00bfbf" stroke-linecap="square" stroke-width="2"/><path clip-path="url(#a)" d="m76.5 726.117 9.6796-2.376 9.6796-2.461 9.6798-2.543 9.679-2.623 9.68-2.701 9.68-2.775 9.679-2.849 9.68-2.92 9.679-2.987 9.68-3.054 9.68-3.118 9.679-3.179 9.68-3.238 9.679-3.294 9.68-3.35 9.679-3.401 9.68-3.451 9.68-3.499 9.679-3.544 9.68-3.587 9.679-3.628 9.68-3.666 9.68-3.702 9.679-3.735 9.68-3.767 9.679-3.796 9.68-3.823 9.68-3.847 9.679-3.869 9.68-3.889 9.679-3.907 9.68-3.921 9.68-3.935 9.679-3.945 9.68-3.953 9.679-3.96 9.68-3.963 9.679-3.964 9.68-3.963 9.68-3.96 9.679-3.954 9.68-3.947 9.679-3.936 9.68-3.923 9.68-3.909 9.679-3.891 9.68-3.872 9.679-3.851 9.68-3.826" stroke="#bf00bf" stroke-linecap="square" stroke-width="2"/></g><g><g><g stroke="#000" stroke-width=".5"><path clip-path="url(#a)" d="m76.5 752.4v-339.429" fill="none" stroke-dasharray="1 3"/><use x="76.5" xlink:href="#c" y="752.4"/><use x="76.5" xlink:href="#d" y="412.971429"/></g><g transform="matrix(.12 0 0 -.12 69.6825 765.518125)"><use xlink:href="#j"/><use x="63.623047" xlink:href="#g"/></g></g><g><g stroke="#000" stroke-width=".5"><path clip-path="url(#a)" d="m144.257 752.4v-339.429" fill="none" stroke-dasharray="1 3"/><use x="144.257143" xlink:href="#c" y="752.4"/><use x="144.257143" xlink:href="#d" y="412.971429"/></g><g transform="matrix(.12 0 0 -.12 137.427455 765.518125)"><use xlink:href="#l"/><use x="63.623047" xlink:href="#g"/></g></g><g><g stroke="#000" stroke-width=".5"><path clip-path="url(#a)" d="m212.014 752.4v-339.429" fill="none" stroke-dasharray="1 3"/><use x="212.014286" xlink:href="#c" y="752.4"/><use x="212.014286" xlink:href="#d" y="412.971429"/></g><g transform="matrix(.12 0 0 -.12 201.619286 765.518125)"><use xlink:href="#F"/><use x="63.623047" xlink:href="#g"/><use x="127.246094" xlink:href="#g"/></g></g><g><g stroke="#000" stroke-width=".5"><path clip-path="url(#a)" d="m279.771 752.4v-339.429" fill="none" stroke-dasharray="1 3"/><use x="279.771429" xlink:href="#c" y="752.4"/><use x="279.771429" xlink:href="#d" y="412.971429"/></g><g transform="matrix(.12 0 0 -.12 269.376429 765.518125)"><use xlink:href="#F"/><use x="63.623047" xlink:href="#D"/><use x="127.246094" xlink:href="#g"/></g></g><g><g stroke="#000" stroke-width=".5"><path clip-path="url(#a)" d="m347.529 752.4v-339.429" fill="none" stroke-dasharray="1 3"/><use x="347.528571" xlink:href="#c" y="752.4"/><use x="347.528571" xlink:href="#d" y="412.971429"/></g><g transform="matrix(.12 0 0 -.12 337.133571 765.518125)"><use xlink:href="#F"/><use x="63.623047" xlink:href="#h"/><use x="127.246094" xlink:href="#g"/></g></g><g><g stroke="#000" stroke-width=".5"><path clip-path="url(#a)" d="m415.286 752.4v-339.429" fill="none" stroke-dasharray="1 3"/><use x="415.285714" xlink:href="#c" y="752.4"/><use x="415.285714" xlink:href="#d" y="412.971429"/></g><g transform="matrix(.12 0 0 -.12 404.890714 765.518125)"><use xlink:href="#F"/><use x="63.623047" xlink:href="#j"/><use x="127.246094" xlink:href="#g"/></g></g><g><g stroke="#000" stroke-width=".5"><path clip-path="url(#a)" d="m483.043 752.4v-339.429" fill="none" stroke-dasharray="1 3"/><use x="483.042857" xlink:href="#c" y="752.4"/><use x="483.042857" xlink:href="#d" y="412.971429"/></g><g transform="matrix(.12 0 0 -.12 472.647857 765.518125)"><use xlink:href="#F"/><use x="63.623047" xlink:href="#l"/><use x="127.246094" xlink:href="#g"/></g></g><g><g stroke="#000" stroke-width=".5"><path clip-path="url(#a)" d="m550.8 752.4v-339.429" fill="none" stroke-dasharray="1 3"/><use x="550.8" xlink:href="#c" y="752.4"/><use x="550.8" xlink:href="#d" y="412.971429"/></g><g transform="matrix(.12 0 0 -.12 540.185625 765.518125)"><use xlink:href="#D"/><use x="63.623047" xlink:href="#g"/><use x="127.246094" xlink:href="#g"/></g></g><g transform="matrix(.12 0 0 -.12 242.020313 782.131875)"><path d="m64.4062 67.2812v-10.3906q-4.9843 4.6406-10.625 6.9219-5.6406 2.2969-11.9843 2.2969-12.5 0-19.1407-7.6406-6.6406-7.6407-6.6406-22.0938 0-14.4062 6.6406-22.0469 6.6407-7.6406 19.1407-7.6406 6.3437 0 11.9843 2.29688 5.6407 2.29682 10.625 6.93752v-10.31252q-5.1718-3.51563-10.9687-5.281255-5.7813-1.750005-12.2187-1.750005-16.5626 0-26.0938 10.125-9.51562 10.14068-9.51562 27.67188 0 17.5781 9.51562 27.7031 9.5312 10.1407 26.0938 10.1407 6.5312 0 12.3124-1.7344 5.7969-1.7344 10.875-5.2032"/><path d="m54.8906 33.0156v-33.0156h-8.9844v32.7188q0 7.7656-3.0312 11.6093-3.0312 3.8594-9.0781 3.8594-7.2813 0-11.4844-4.6406-4.2031-4.625-4.2031-12.6407v-30.9062h-9.03128v75.9844h9.03128v-29.7969q3.2344 4.9375 7.5937 7.375 4.375 2.4375 10.0938 2.4375 9.4219 0 14.25-5.8281 4.8437-5.8281 4.8437-17.1563" transform="translate(69.824219)"/><use x="133.203125" xlink:href="#t"/><use x="194.482422" xlink:href="#p"/><use x="222.265625" xlink:href="#J"/><use x="317.431641" xlink:href="#r"/><use x="380.908203" xlink:href="#p"/><use x="408.691406" xlink:href="#t"/><use x="469.970703" xlink:href="#x"/><use x="567.382813" xlink:href="#q"/><use x="628.90625" xlink:href="#A"/><use x="668.115234" xlink:href="#q"/><path d="m41.1094 46.2969q-1.5156.875-3.2969 1.2812-1.7813.4219-3.9219.4219-7.625 0-11.7031-4.9531-4.0781-4.9531-4.0781-14.2344v-28.8125h-9.03128v54.6875h9.03128v-8.5q2.8437 4.9844 7.375 7.3906 4.5468 2.4219 11.0468 2.4219.9219 0 2.0469-.125 1.125-.1094 2.4844-.3594z" transform="translate(729.638672)"/><use x="770.751953" xlink:href="#z"/><use x="834.326172" xlink:href="#r"/><use x="929.589844" xlink:href="#n"/><use x="968.603516" xlink:href="#x"/><use x="1066.015625" xlink:href="#x"/><use x="1163.427734" xlink:href="#m"/></g></g><g><g><g stroke="#000" stroke-width=".5"><path clip-path="url(#a)" d="m76.5 752.4h474.3" fill="none" stroke-dasharray="1 3"/><use x="76.5" xlink:href="#e" y="752.4"/><use x="550.8" xlink:href="#f" y="752.4"/></g><use transform="matrix(.12 0 0 -.12 66.453125 755.71125)" xlink:href="#g"/></g><g><g stroke="#000" stroke-width=".5"><path clip-path="url(#a)" d="m76.5 684.514h474.3" fill="none" stroke-dasharray="1 3"/><use x="76.5" xlink:href="#e" y="684.514286"/><use x="550.8" xlink:href="#f" y="684.514286"/></g><g transform="matrix(.12 0 0 -.12 44.075 687.825536)"><use xlink:href="#F"/><use x="63.623047" xlink:href="#g"/><use x="127.246094" xlink:href="#g"/><use x="190.869141" xlink:href="#g"/></g></g><g><g stroke="#000" stroke-width=".5"><path clip-path="url(#a)" d="m76.5 616.629h474.3" fill="none" stroke-dasharray="1 3"/><use x="76.5" xlink:href="#e" y="616.628571"/><use x="550.8" xlink:href="#f" y="616.628571"/></g><g transform="matrix(.12 0 0 -.12 43.63625 619.939821)"><use xlink:href="#D"/><use x="63.623047" xlink:href="#g"/><use x="127.246094" xlink:href="#g"/><use x="190.869141" xlink:href="#g"/></g></g><g><g stroke="#000" stroke-width=".5"><path clip-path="url(#a)" d="m76.5 548.743h474.3" fill="none" stroke-dasharray="1 3"/><use x="76.5" xlink:href="#e" y="548.742857"/><use x="550.8" xlink:href="#f" y="548.742857"/></g><g transform="matrix(.12 0 0 -.12 43.671875 552.054107)"><use xlink:href="#E"/><use x="63.623047" xlink:href="#g"/><use x="127.246094" xlink:href="#g"/><use x="190.869141" xlink:href="#g"/></g></g><g><g stroke="#000" stroke-width=".5"><path clip-path="url(#a)" d="m76.5 480.857h474.3" fill="none" stroke-dasharray="1 3"/><use x="76.5" xlink:href="#e" y="480.857143"/><use x="550.8" xlink:href="#f" y="480.857143"/></g><g transform="matrix(.12 0 0 -.12 43.34375 484.168393)"><use xlink:href="#h"/><use x="63.623047" xlink:href="#g"/><use x="127.246094" xlink:href="#g"/><use x="190.869141" xlink:href="#g"/></g></g><g><g stroke="#000" stroke-width=".5"><path clip-path="url(#a)" d="m76.5 412.971h474.3" fill="none" stroke-dasharray="1 3"/><use x="76.5" xlink:href="#e" y="412.971429"/><use x="550.8" xlink:href="#f" y="412.971429"/></g><g transform="matrix(.12 0 0 -.12 43.683125 416.282679)"><use xlink:href="#i"/><use x="63.623047" xlink:href="#g"/><use x="127.246094" xlink:href="#g"/><use x="190.869141" xlink:href="#g"/></g></g><g transform="matrix(0 -.12 -.12 0 35.848125 651.821652)"><use xlink:href="#K"/><path d="m54.8906 54.6875-19.7812-26.6094 20.7968-28.0781h-10.5937l-15.9219 21.4844-15.9062-21.4844h-10.6094l21.25 28.6094-19.4375 26.0781h10.5937l14.5-19.4844 14.5 19.4844z" transform="translate(68.408203)"/><use x="127.587891" xlink:href="#p"/><use x="155.371094" xlink:href="#t"/><use x="216.650391" xlink:href="#y"/><use x="276.220703" xlink:href="#C"/><use x="328.320313" xlink:href="#A"/><use x="367.529297" xlink:href="#p"/><use x="395.3125" xlink:href="#s"/><use x="430.517578" xlink:href="#s"/><use x="465.722656" xlink:href="#J"/><use x="529.101563" xlink:href="#q"/><use x="590.625" xlink:href="#C"/><use x="642.724609" xlink:href="#C"/><use x="694.824219" xlink:href="#z"/><use x="758.398438" xlink:href="#o"/><use x="821.582031" xlink:href="#K"/><use x="921.777344" xlink:href="#n"/><use x="960.791016" xlink:href="#w"/><use x="1047.070313" xlink:href="#v"/><use x="1121.875" xlink:href="#m"/></g></g><path d="m76.5 412.971h474.3" fill="none" stroke="#000"/><path d="m550.8 752.4v-339.429" fill="none" stroke="#000"/><path d="m76.5 752.4h474.3" fill="none" stroke="#000"/><path d="m76.5 752.4v-339.429" fill="none" stroke="#000"/><g><path d="m83.7 530.174h230.404v-110.003h-230.404z" fill="#fff" stroke="#000"/><path d="m93.78 431.833h20.16" fill="none" stroke="#00f" stroke-linecap="square" stroke-width="2"/><g transform="matrix(.144 0 0 -.144 129.78 436.873179)"><use xlink:href="#H"/><use x="63.476563" xlink:href="#A"/><use x="102.685547" xlink:href="#B"/><use x="166.064453" xlink:href="#r"/><use x="229.541016" xlink:href="#y"/><use x="257.324219" xlink:href="#q"/><use x="318.847656" xlink:href="#C"/><use x="370.947266" xlink:href="#C"/><use x="454.833984" xlink:href="#G"/><use x="524.316406" xlink:href="#E"/><use x="619.726563" xlink:href="#n"/><use x="658.740234" xlink:href="#D"/><use x="722.363281" xlink:href="#g"/><use x="785.986328" xlink:href="#F"/><use x="849.609375" xlink:href="#g"/><use x="913.232422" xlink:href="#I"/><use x="949.316406" xlink:href="#F"/><use x="1012.939453" xlink:href="#i"/><use x="1076.5625" xlink:href="#m"/></g><path d="m93.78 452.97h20.16" fill="none" stroke="#008000" stroke-linecap="square" stroke-width="2"/><g transform="matrix(.144 0 0 -.144 129.78 458.009679)"><use xlink:href="#H"/><use x="63.476563" xlink:href="#A"/><use x="102.685547" xlink:href="#B"/><use x="166.064453" xlink:href="#r"/><use x="229.541016" xlink:href="#y"/><use x="257.324219" xlink:href="#q"/><use x="318.847656" xlink:href="#C"/><use x="370.947266" xlink:href="#C"/><use x="454.833984" xlink:href="#G"/><use x="524.316406" xlink:href="#E"/><use x="619.726563" xlink:href="#n"/><use x="658.740234" xlink:href="#D"/><use x="722.363281" xlink:href="#g"/><use x="785.986328" xlink:href="#g"/><use x="849.609375" xlink:href="#g"/><use x="913.232422" xlink:href="#I"/><use x="949.316406" xlink:href="#l"/><use x="1012.939453" xlink:href="#m"/></g><path d="m93.78 474.106h20.16" fill="none" stroke="#f00" stroke-linecap="square" stroke-width="2"/><g transform="matrix(.144 0 0 -.144 129.78 479.146179)"><use xlink:href="#H"/><use x="63.476563" xlink:href="#A"/><use x="102.685547" xlink:href="#B"/><use x="166.064453" xlink:href="#r"/><use x="229.541016" xlink:href="#y"/><use x="257.324219" xlink:href="#q"/><use x="318.847656" xlink:href="#C"/><use x="370.947266" xlink:href="#C"/><use x="454.833984" xlink:href="#G"/><use x="524.316406" xlink:href="#h"/><use x="619.726563" xlink:href="#n"/><use x="658.740234" xlink:href="#D"/><use x="722.363281" xlink:href="#g"/><use x="785.986328" xlink:href="#F"/><use x="849.609375" xlink:href="#g"/><use x="913.232422" xlink:href="#I"/><use x="949.316406" xlink:href="#F"/><use x="1012.939453" xlink:href="#i"/><use x="1076.5625" xlink:href="#m"/></g><path d="m93.78 495.243h20.16" fill="none" stroke="#00bfbf" stroke-linecap="square" stroke-width="2"/><g transform="matrix(.144 0 0 -.144 129.78 500.282679)"><use xlink:href="#H"/><use x="63.476563" xlink:href="#A"/><use x="102.685547" xlink:href="#B"/><use x="166.064453" xlink:href="#r"/><use x="229.541016" xlink:href="#y"/><use x="257.324219" xlink:href="#q"/><use x="318.847656" xlink:href="#C"/><use x="370.947266" xlink:href="#C"/><use x="454.833984" xlink:href="#G"/><use x="524.316406" xlink:href="#i"/><use x="619.726563" xlink:href="#n"/><use x="658.740234" xlink:href="#D"/><use x="722.363281" xlink:href="#g"/><use x="785.986328" xlink:href="#F"/><use x="849.609375" xlink:href="#g"/><use x="913.232422" xlink:href="#I"/><use x="949.316406" xlink:href="#F"/><use x="1012.939453" xlink:href="#i"/><use x="1076.5625" xlink:href="#m"/></g><path d="m93.78 516.379h20.16" fill="none" stroke="#bf00bf" stroke-linecap="square" stroke-width="2"/><g transform="matrix(.144 0 0 -.144 129.78 521.419179)"><use xlink:href="#H"/><use x="63.476563" xlink:href="#A"/><use x="102.685547" xlink:href="#B"/><use x="166.064453" xlink:href="#r"/><use x="229.541016" xlink:href="#y"/><use x="257.324219" xlink:href="#q"/><use x="318.847656" xlink:href="#C"/><use x="370.947266" xlink:href="#C"/><use x="454.833984" xlink:href="#G"/><use x="524.316406" xlink:href="#h"/><use x="587.939453" xlink:href="#z"/><use x="651.513672" xlink:href="#G"/><use x="720.996094" xlink:href="#i"/><use x="816.40625" xlink:href="#n"/><use x="855.419922" xlink:href="#D"/><use x="919.042969" xlink:href="#g"/><use x="982.666016" xlink:href="#g"/><use x="1046.289063" xlink:href="#g"/><use x="1109.912109" xlink:href="#I"/><use x="1145.996094" xlink:href="#l"/><use x="1209.619141" xlink:href="#m"/></g></g></g></g></svg>